<svg xmlns="http://www.w3.org/2000/svg" width="658" height="458.153" viewBox="0 0 658 458.153">
  <g id="Group_1427" data-name="Group 1427" transform="translate(-256 -1051)">
    <rect id="Rectangle_392" data-name="Rectangle 392" width="658" height="458.153" transform="translate(256 1051)" fill="#f8f8f8"/>
    <rect id="Rectangle_395" data-name="Rectangle 395" width="658" height="97.055" transform="translate(256 1051)" fill="#c4c4c4" opacity="0.5"/>
    <path id="Path_4298" data-name="Path 4298" d="M0,0H88.83V13.983H0Z" transform="translate(801.238 1115.978)" fill="#f8f8f8" opacity="0.5"/>
    <rect id="Rectangle_397" data-name="Rectangle 397" width="88.83" height="13.983" transform="translate(655.927 1115.978)" fill="#f8f8f8" opacity="0.5"/>
    <rect id="Rectangle_398" data-name="Rectangle 398" width="88.83" height="13.983" transform="translate(516.374 1115.978)" fill="#f8f8f8" opacity="0.5"/>
    <rect id="Rectangle_399" data-name="Rectangle 399" width="88.83" height="13.983" transform="translate(371.973 1115.978)" fill="#f8f8f8" opacity="0.5"/>
    <rect id="Rectangle_402" data-name="Rectangle 402" width="603.715" height="9.87" transform="translate(281.497 1287.057)" fill="#c4c4c4" opacity="0.5"/>
    <rect id="Rectangle_403" data-name="Rectangle 403" width="603.715" height="9.87" transform="translate(281.497 1311.732)" fill="#c4c4c4" opacity="0.5"/>
    <rect id="Rectangle_404" data-name="Rectangle 404" width="603.715" height="9.87" transform="translate(281.497 1336.407)" fill="#c4c4c4" opacity="0.5"/>
    <path id="Path_4297" data-name="Path 4297" d="M197.686,0H793.125c9.768,0,17.686,6.628,17.686,14.805S802.893,29.61,793.125,29.61H197.686C187.918,29.61,180,22.982,180,14.805S187.918,0,197.686,0Z" transform="translate(91.906 1066.627)" fill="#f8f8f8"/>
    <g id="LUPA_ICON" data-name="LUPA ICON" transform="translate(868.857 1073.208)">
      <g id="Ellipse_556" data-name="Ellipse 556" fill="none" stroke="#ddd" stroke-width="3">
        <circle cx="5.758" cy="5.758" r="5.758" stroke="none"/>
        <circle cx="5.758" cy="5.758" r="4.258" fill="none"/>
      </g>
      <line id="Line_16" data-name="Line 16" x1="4.935" y1="4.935" transform="translate(9.459 9.459)" fill="none" stroke="#ddd" stroke-width="3"/>
    </g>
    <rect id="Rectangle_413" data-name="Rectangle 413" width="603.715" height="9.87" transform="translate(281.497 1377.532)" fill="#c4c4c4" opacity="0.5"/>
    <rect id="Rectangle_414" data-name="Rectangle 414" width="603.715" height="9.87" transform="translate(281.497 1402.208)" fill="#c4c4c4" opacity="0.5"/>
    <rect id="Rectangle_415" data-name="Rectangle 415" width="603.715" height="9.87" transform="translate(281.497 1426.883)" fill="#c4c4c4" opacity="0.5"/>
    <path id="Path_5129" data-name="Path 5129" d="M88.547,18V5.4H86.513a2.782,2.782,0,0,1-.45,1.206,2.738,2.738,0,0,1-.837.783A3.357,3.357,0,0,1,84.11,7.8a6.051,6.051,0,0,1-1.287.1V9.828h3.168V18Zm18.63-7.758h2.448a5.357,5.357,0,0,1,.1-1.017,3.155,3.155,0,0,1,.333-.936,1.948,1.948,0,0,1,.621-.684,1.651,1.651,0,0,1,.945-.261,1.875,1.875,0,0,1,1.359.513,1.9,1.9,0,0,1,.531,1.431,2.007,2.007,0,0,1-.261,1.026,3.5,3.5,0,0,1-.648.81,5.865,5.865,0,0,1-.855.657q-.468.3-.882.585-.81.558-1.539,1.1a7.479,7.479,0,0,0-1.269,1.179,5.077,5.077,0,0,0-.855,1.449A5.253,5.253,0,0,0,106.889,18h9.252V15.8h-5.958a5.7,5.7,0,0,1,1.08-1.134q.612-.486,1.26-.909t1.287-.855a6.884,6.884,0,0,0,1.143-.963,4.3,4.3,0,0,0,.81-1.215,3.991,3.991,0,0,0,.306-1.638,3.808,3.808,0,0,0-.351-1.656,3.676,3.676,0,0,0-.945-1.242,4.243,4.243,0,0,0-1.377-.774,5.017,5.017,0,0,0-1.647-.27,4.909,4.909,0,0,0-2.007.387,3.914,3.914,0,0,0-1.449,1.08,4.671,4.671,0,0,0-.864,1.62A6.045,6.045,0,0,0,107.177,10.242Zm28.458.252v1.8q.468,0,.981.027a2.976,2.976,0,0,1,.945.2,1.6,1.6,0,0,1,.711.549,1.831,1.831,0,0,1,.279,1.1,1.845,1.845,0,0,1-.594,1.449,2.109,2.109,0,0,1-1.458.531,2.172,2.172,0,0,1-.963-.2,1.969,1.969,0,0,1-.675-.531,2.367,2.367,0,0,1-.414-.792,3.636,3.636,0,0,1-.162-.963h-2.43a5.05,5.05,0,0,0,.315,1.944,3.95,3.95,0,0,0,.945,1.431,4.059,4.059,0,0,0,1.485.891,6.087,6.087,0,0,0,3.7.036,4.571,4.571,0,0,0,1.494-.792,3.853,3.853,0,0,0,1.035-1.3,3.892,3.892,0,0,0,.387-1.764,2.956,2.956,0,0,0-.594-1.854,2.744,2.744,0,0,0-1.638-1.008v-.036a2.212,2.212,0,0,0,1.323-.954,2.981,2.981,0,0,0,.441-1.62,2.91,2.91,0,0,0-.378-1.494,3.654,3.654,0,0,0-.981-1.1,4.3,4.3,0,0,0-1.359-.675,5.277,5.277,0,0,0-1.512-.225,4.735,4.735,0,0,0-1.764.315,3.907,3.907,0,0,0-1.359.891,4.049,4.049,0,0,0-.882,1.377,5.355,5.355,0,0,0-.351,1.773h2.43a2.474,2.474,0,0,1,.477-1.611,1.741,1.741,0,0,1,1.467-.639,1.932,1.932,0,0,1,1.242.432,1.5,1.5,0,0,1,.54,1.242,1.337,1.337,0,0,1-.261.864,1.675,1.675,0,0,1-.666.5,2.776,2.776,0,0,1-.873.207A5.406,5.406,0,0,1,135.635,10.494ZM162.167,8.6v4.374h-3.312L162.113,8.6Zm0,6.48V18h2.43V15.084h1.674V12.978H164.6V5.4h-2.286l-5.472,7.344v2.34Zm28.4-7.578V5.4h-7.038l-1.242,6.966h2.3a2.605,2.605,0,0,1,.81-.765,2.262,2.262,0,0,1,1.116-.243,2.2,2.2,0,0,1,.918.18,2.028,2.028,0,0,1,.684.5,2.144,2.144,0,0,1,.432.756,2.884,2.884,0,0,1,.144.918,2.754,2.754,0,0,1-.153.909,2.435,2.435,0,0,1-.432.774,2.168,2.168,0,0,1-.684.54,1.968,1.968,0,0,1-.909.207,2.019,2.019,0,0,1-1.422-.513,2.09,2.09,0,0,1-.648-1.377H181.9a3.882,3.882,0,0,0,.4,1.737,3.747,3.747,0,0,0,1.035,1.251,4.382,4.382,0,0,0,1.485.747,6.263,6.263,0,0,0,1.755.243,4.627,4.627,0,0,0,1.8-.315,4.514,4.514,0,0,0,1.485-.945,4.612,4.612,0,0,0,1.017-1.449,4.344,4.344,0,0,0,.378-1.809,5.231,5.231,0,0,0-.261-1.665,4,4,0,0,0-.756-1.359,3.637,3.637,0,0,0-1.215-.918,4.172,4.172,0,0,0-3.006-.117,3.175,3.175,0,0,0-1.116.747l-.036-.036.5-2.862Z" transform="translate(445.426 1461.382)" fill="#ddd"/>
  </g>
</svg>
