<svg width="24" height="24" viewBox="0 0 24 24" fill="none" xmlns="http://www.w3.org/2000/svg">
<path d="M20.4338 3.48523C18.1793 1.23907 15.18 0.00128174 11.9879 0C8.80298 0 5.79895 1.23669 3.52954 3.4823C1.2561 5.73175 0.00292969 8.72113 0 11.8889V11.8925V11.8947C0.000366211 13.812 0.504089 15.7462 1.46027 17.5117L0.0327759 24L6.59583 22.5071C8.25806 23.3448 10.1127 23.7865 11.9833 23.7872H11.9881C15.1725 23.7872 18.1765 22.5504 20.4463 20.3046C22.7217 18.0533 23.9755 15.0677 23.9769 11.898C23.9778 8.75061 22.7197 5.76288 20.4338 3.48523V3.48523ZM11.9879 21.9141H11.9837C10.3041 21.9133 8.63983 21.4916 7.17114 20.6942L6.86078 20.5258L2.49664 21.5184L3.44458 17.2103L3.26184 16.8951C2.35327 15.3283 1.87317 13.5987 1.87317 11.8927C1.87665 6.37079 6.41364 1.87317 11.9875 1.87317C14.6803 1.87427 17.2104 2.91815 19.1118 4.81219C21.0419 6.73553 22.1045 9.25177 22.1036 11.8975C22.1014 17.4207 17.5635 21.9141 11.9879 21.9141V21.9141Z" fill="#24A7B2"/>
<path d="M8.72577 6.64941H8.20026C8.01733 6.64941 7.72034 6.7179 7.46912 6.99127C7.21771 7.26483 6.50928 7.92603 6.50928 9.27075C6.50928 10.6155 7.492 11.9148 7.62897 12.0974C7.76611 12.2797 9.52594 15.1274 12.3132 16.2229C14.6296 17.1333 15.1011 16.9522 15.6038 16.9066C16.1066 16.8612 17.2263 16.2456 17.4548 15.6075C17.6833 14.9694 17.6833 14.4222 17.6148 14.308C17.5461 14.1941 17.3632 14.1258 17.0891 13.9892C16.8148 13.8524 15.4708 13.1801 15.2194 13.0887C14.968 12.9977 14.7853 12.9521 14.6024 13.2258C14.4194 13.499 13.8809 14.1311 13.7209 14.3135C13.561 14.496 13.401 14.5189 13.1267 14.3821C12.8524 14.245 11.9783 13.9513 10.9307 13.0204C10.1154 12.2958 9.54956 11.3719 9.38953 11.0983C9.22967 10.825 9.3725 10.677 9.51001 10.5406C9.63324 10.4183 9.79968 10.2509 9.93683 10.0914C10.0738 9.93176 10.1128 9.81787 10.2043 9.6355C10.2957 9.45312 10.2499 9.29346 10.1815 9.15686C10.1128 9.02008 9.58655 7.66858 9.34265 7.12805H9.34283C9.13739 6.67285 8.92114 6.65747 8.72577 6.64941V6.64941Z" fill="#24A7B2"/>
</svg>
