<svg width="102" height="100" viewBox="0 0 102 100" fill="none" xmlns="http://www.w3.org/2000/svg">
<path d="M64.7215 27.0543C105.356 30.6179 95.8796 39.7619 88.3918 58.7283C80.904 77.6946 56.2484 86.99 37.2097 79.5302C18.1711 72.0703 3.86397 55.1637 11.3518 36.1973C18.8395 17.231 24.0857 23.4908 64.7215 27.0543Z" fill="url(#paint0_linear)"/>
<g clip-path="url(#clip0)">
<path d="M53.9235 64.9128C53.4303 64.9128 52.9408 64.8413 52.466 64.6983L32.061 59.9023C28.5648 58.938 26.1375 55.8782 26 52.283V28.4148C26.0037 26.8693 26.5665 25.3788 27.5858 24.211C27.6573 24.0863 27.7563 23.9782 27.8773 23.8993C29.091 22.6783 30.7007 22.0037 32.4148 22H63.5833C67.1125 22.011 69.989 24.8875 70 28.4148V48.5833C69.9908 52.1125 67.1143 54.9908 63.5852 55H59V59.5833C59.0788 60.8978 58.6278 62.194 57.724 63.2078C56.8202 64.2217 55.579 64.8248 54.2278 64.9055C54.1288 64.9092 54.0262 64.9128 53.9235 64.9128ZM28.7408 25.696C28.156 26.4825 27.837 27.4395 27.8333 28.4185V52.2482C27.9397 55.0128 29.8207 57.3815 32.5138 58.1258L52.939 62.9273C53.291 63.0318 53.6045 63.0795 53.9235 63.0795C53.9895 63.0795 54.0537 63.0777 54.1197 63.074C54.985 63.0227 55.7788 62.6358 56.3545 61.985C56.932 61.336 57.2198 60.5 57.1685 59.6365L57.1667 37.5815C57.0548 34.815 55.1757 32.4133 52.4898 31.6268L28.7408 25.696ZM63.5833 53.1648C66.1042 53.1575 68.1593 51.1005 68.1667 48.5797V28.4148C68.1593 25.8958 66.1023 23.8388 63.5815 23.8315H32.4167C31.7512 23.8333 31.1077 23.9763 30.5173 24.2513L43.523 27.5H61.75C62.256 27.5 62.6667 27.9107 62.6667 28.4167C62.6667 28.9227 62.256 29.3333 61.75 29.3333H50.8637L52.9702 29.8595C56.1547 30.7927 58.4427 33.4382 58.912 36.6667H61.75C62.256 36.6667 62.6667 37.0773 62.6667 37.5833C62.6667 38.0893 62.256 38.5 61.75 38.5H59V53.1667H63.5833V53.1648Z" fill="#24A7B2"/>
<path d="M50.1068 51.346C47.5786 51.346 45.5234 49.289 45.5234 46.7627C45.5234 44.2363 47.5786 42.1793 50.1068 42.1793C52.6331 42.1793 54.6901 44.2345 54.6901 46.7627C54.6901 49.2908 52.6331 51.346 50.1068 51.346ZM50.1068 44.0127C48.5906 44.0127 47.3568 45.2465 47.3568 46.7627C47.3568 48.2788 48.5906 49.5127 50.1068 49.5127C51.6229 49.5127 52.8568 48.2788 52.8568 46.7627C52.8568 45.2465 51.6229 44.0127 50.1068 44.0127Z" fill="#24A7B2"/>
</g>
<defs>
<linearGradient id="paint0_linear" x1="136.156" y1="38.2498" x2="14.7548" y2="61.9542" gradientUnits="userSpaceOnUse">
<stop stop-color="#C5F3EB"/>
<stop offset="0.416" stop-color="#F3FCDF"/>
<stop offset="1" stop-color="#BBEFE6"/>
</linearGradient>
<clipPath id="clip0">
<rect width="44" height="44" fill="white" transform="translate(26.2734 21.4536)"/>
</clipPath>
</defs>
</svg>
