<svg width="100" height="100" viewBox="0 0 100 100" fill="none" xmlns="http://www.w3.org/2000/svg">
<path d="M33.7202 72.0453C-6.5265 67.1375 3.19765 58.3725 11.2794 39.7827C19.3612 21.1929 44.1701 12.7884 62.8308 20.84C81.4915 28.8916 95.1313 46.1687 87.0495 64.7585C78.9678 83.3483 73.9683 76.9531 33.7202 72.0453Z" fill="url(#paint0_linear)"/>
<g clip-path="url(#clip0)">
<path d="M29.078 56.2096C28.5835 56.2096 28.1821 55.8083 28.1821 55.3138C28.1821 54.8193 28.5835 54.418 29.078 54.418H29.9738V47.2513C29.9738 46.2623 30.7783 45.4596 31.7655 45.4596H35.3488C36.336 45.4596 37.1405 46.2623 37.1405 47.2513V54.418H40.7238V38.293C40.7238 37.304 41.5283 36.5013 42.5155 36.5013H46.0988C47.086 36.5013 47.8905 37.304 47.8905 38.293V54.418H51.4738V41.8763C51.4738 40.8873 52.2765 40.0846 53.2655 40.0846H56.8488C57.8378 40.0846 58.6405 40.8873 58.6405 41.8763V54.418H62.2238V29.3346C62.2238 28.3474 63.0265 27.543 64.0155 27.543H67.5988C68.5878 27.543 69.3905 28.3474 69.3905 29.3346V54.418H70.2863C70.7808 54.418 71.1821 54.8193 71.1821 55.3138C71.1821 55.8083 70.7808 56.2096 70.2863 56.2096H29.078ZM67.5988 54.418V29.3346H64.0155V54.418H67.5988ZM56.8488 54.418V41.8763H53.2655V54.418H56.8488ZM46.0988 54.418V38.293H42.5155V54.418H46.0988ZM35.3488 54.418V47.2513H31.7655V54.418H35.3488Z" fill="#24A7B2"/>
<path d="M33.557 37.3971C31.5808 37.3971 29.9736 35.79 29.9736 33.8138C29.9736 31.8376 31.5808 30.2304 33.557 30.2304C34.3095 30.2304 35.0387 30.4687 35.646 30.9077L41.0712 26.3855C40.8437 25.9071 40.7236 25.3858 40.7236 24.8554C40.7236 22.8792 42.3308 21.2721 44.307 21.2721C46.2832 21.2721 47.8903 22.8792 47.8903 24.8554C47.8903 24.9361 47.8867 25.0185 47.8813 25.1009L52.0523 26.4912C52.7117 25.4736 53.8297 24.8554 55.057 24.8554C55.6052 24.8554 56.1427 24.9826 56.6318 25.2245L62.5623 18.3069C62.3401 17.8321 62.2236 17.3143 62.2236 16.7929C62.2236 14.8167 63.8308 13.2096 65.807 13.2096C67.7832 13.2096 69.3903 14.8167 69.3903 16.7929C69.3903 18.7691 67.7832 20.3763 65.807 20.3763C65.0545 20.3763 64.3306 20.1398 63.7233 19.7044L57.9917 26.3909C58.4128 26.9893 58.6403 27.7042 58.6403 28.4388C58.6403 30.415 57.0332 32.0221 55.057 32.0221C53.0808 32.0221 51.4736 30.415 51.4736 28.4388C51.4736 28.3563 51.4772 28.2739 51.4826 28.1897L47.3116 26.7994C46.654 27.8206 45.536 28.4388 44.307 28.4388C43.5545 28.4388 42.827 28.2005 42.2179 27.7615L36.7927 32.2837C37.022 32.7621 37.1403 33.2852 37.1403 33.8138C37.1403 35.79 35.5332 37.3971 33.557 37.3971ZM33.557 32.0221C32.5698 32.0221 31.7653 32.8266 31.7653 33.8138C31.7653 34.801 32.5698 35.6054 33.557 35.6054C34.5442 35.6054 35.3486 34.801 35.3486 33.8138C35.3486 32.8266 34.5442 32.0221 33.557 32.0221ZM55.057 26.6471C54.068 26.6471 53.2653 27.4516 53.2653 28.4388C53.2653 29.426 54.068 30.2304 55.057 30.2304C56.046 30.2304 56.8486 29.426 56.8486 28.4388C56.8486 27.4516 56.046 26.6471 55.057 26.6471ZM44.307 23.0638C43.3198 23.0638 42.5153 23.8682 42.5153 24.8554C42.5153 25.8426 43.3198 26.6471 44.307 26.6471C45.2942 26.6471 46.0986 25.8426 46.0986 24.8554C46.0986 23.8682 45.2942 23.0638 44.307 23.0638ZM65.807 15.0013C64.818 15.0013 64.0153 15.8057 64.0153 16.7929C64.0153 17.7801 64.818 18.5846 65.807 18.5846C66.796 18.5846 67.5986 17.7801 67.5986 16.7929C67.5986 15.8057 66.796 15.0013 65.807 15.0013Z" fill="#24A7B2"/>
</g>
<defs>
<linearGradient id="paint0_linear" x1="-36.8653" y1="58.5192" x2="84.547" y2="39.0855" gradientUnits="userSpaceOnUse">
<stop stop-color="#C5F3EB"/>
<stop offset="0.416" stop-color="#F3FCDF"/>
<stop offset="1" stop-color="#BBEFE6"/>
</linearGradient>
<clipPath id="clip0">
<rect width="43" height="43" fill="white" transform="translate(28.1821 13.2096)"/>
</clipPath>
</defs>
</svg>
