<svg width="104" height="100" viewBox="0 0 104 100" fill="none" xmlns="http://www.w3.org/2000/svg">
<path d="M37.9731 72.4616C-1.58639 66.1906 8.32684 57.8816 16.9692 39.8145C25.6116 21.7475 50.4049 14.3287 68.5408 22.9388C86.6767 31.5489 99.5264 49.0893 90.884 67.1564C82.2416 85.2234 77.534 78.7325 37.9731 72.4616Z" fill="url(#paint0_linear)"/>
<g clip-path="url(#clip0)">
<path d="M36.0199 51.0193C33.3193 51.0193 31.124 48.824 31.124 46.1235V20.6651C31.124 17.9665 33.3193 15.7693 36.0199 15.7693H39.8954C39.9091 15.7693 39.9228 15.7673 39.9365 15.7673C39.9502 15.7673 39.9639 15.7673 39.9776 15.7693H73.2282C75.9268 15.7693 78.124 17.9665 78.124 20.6651V45.1443C78.124 45.6848 77.6854 46.1235 77.1449 46.1235C76.6044 46.1235 76.1657 45.6848 76.1657 45.1443V20.6651C76.1657 19.0456 74.8477 17.7276 73.2282 17.7276H40.9157V49.061H43.8532C44.3937 49.061 44.8324 49.5016 44.8324 50.0401C44.8324 50.5787 44.3937 51.0193 43.8532 51.0193H36.0199ZM36.0199 17.7276C34.4003 17.7276 33.0824 19.0456 33.0824 20.6651V46.1235C33.0824 47.743 34.4003 49.061 36.0199 49.061H38.9574V17.7276H36.0199Z" fill="#24A7B2"/>
<path d="M36.5093 34.8621C35.6985 34.8621 35.0405 34.2041 35.0405 33.3933C35.0386 33.0056 35.1894 32.6374 35.4655 32.3593C35.7201 32.1028 36.0608 31.9481 36.4212 31.9285C36.4231 31.9265 36.4584 31.9246 36.4995 31.9246C37.3161 31.9246 37.9741 32.5806 37.978 33.3855C37.978 34.2001 37.32 34.8621 36.5093 34.8621Z" fill="#24A7B2"/>
<path d="M77.1448 62.7684C76.6043 62.7684 76.1657 62.3297 76.1657 61.7892V55.9142C76.1657 52.1346 73.0911 49.0601 69.3115 49.0601H63.4365C62.896 49.0601 62.4573 48.6214 62.4573 48.0809V35.3517C62.4573 34.2727 61.58 33.3934 60.499 33.3934C59.418 33.3934 58.5407 34.2727 58.5407 35.3517V54.5943C58.5407 55.0056 58.2802 55.3757 57.8944 55.5147C57.7867 55.5539 57.6751 55.5735 57.5615 55.5735C57.2717 55.5735 56.9955 55.4442 56.8095 55.221L52.2152 49.6867C51.8804 49.2853 51.4104 49.0366 50.8875 48.9896C50.8229 48.9837 50.7602 48.9798 50.6975 48.9798C50.2412 48.9798 49.8124 49.1364 49.454 49.4341C49.0506 49.769 48.8038 50.2409 48.7549 50.7618C48.7079 51.2828 48.8665 51.7919 49.2014 52.1953L56.6548 61.1626C56.8212 61.3643 56.9015 61.6169 56.878 61.8793C56.8545 62.1398 56.7312 62.3748 56.5294 62.5412C56.3532 62.6881 56.1299 62.7684 55.9028 62.7684C55.611 62.7684 55.3368 62.6391 55.1488 62.4159L47.6954 53.4487C47.0257 52.6438 46.7104 51.6274 46.8044 50.5856C46.9003 49.5438 47.3958 48.5998 48.1987 47.9301C48.9017 47.3446 49.7908 47.0234 50.7034 47.0234C50.8229 47.0234 50.9423 47.0293 51.0618 47.0391C52.1056 47.135 53.0475 47.6305 53.7173 48.4353L56.5823 51.882V35.3517C56.5823 33.1917 58.3389 31.4351 60.499 31.4351C62.659 31.4351 64.4157 33.1917 64.4157 35.3517V47.1017H69.3115C74.1701 47.1017 78.124 51.0556 78.124 55.9142V61.7892C78.124 62.3297 77.6853 62.7684 77.1448 62.7684Z" fill="#24A7B2"/>
<path d="M73.2282 37.3079C72.6877 37.3079 72.249 36.8693 72.249 36.3288V30.4538C72.249 29.9133 72.6877 29.4746 73.2282 29.4746C73.7687 29.4746 74.2074 29.9133 74.2074 30.4538V36.3288C74.2074 36.8693 73.7687 37.3079 73.2282 37.3079Z" fill="#24A7B2"/>
</g>
<defs>
<linearGradient id="paint0_linear" x1="-31.2317" y1="56.6073" x2="89.3334" y2="41.7528" gradientUnits="userSpaceOnUse">
<stop stop-color="#C5F3EB"/>
<stop offset="0.416" stop-color="#F3FCDF"/>
<stop offset="1" stop-color="#BBEFE6"/>
</linearGradient>
<clipPath id="clip0">
<rect width="47" height="47" fill="white" transform="translate(31.124 15.7683)"/>
</clipPath>
</defs>
</svg>
