<svg xmlns="http://www.w3.org/2000/svg" xmlns:xlink="http://www.w3.org/1999/xlink" width="180.189" height="138.737" viewBox="0 0 180.189 138.737">
  <defs>
    <linearGradient id="linear-gradient" x1="1.457" y1="-0.176" x2="0" y2="0.559" gradientUnits="objectBoundingBox">
      <stop offset="0" stop-color="#c5f3eb"/>
      <stop offset="0.416" stop-color="#f3fcdf"/>
      <stop offset="1" stop-color="#bbefe6"/>
    </linearGradient>
    <clipPath id="clip-path">
      <rect id="Rectangle_503" data-name="Rectangle 503" width="97" height="97" transform="translate(451 330)" fill="#fff" stroke="#707070" stroke-width="1"/>
    </clipPath>
  </defs>
  <g id="Group_1138" data-name="Group 1138" transform="translate(-500 -304.896)">
    <path id="Path_4630" data-name="Path 4630" d="M63.8,6.2c53.908-15.905,46.385.642,46.385,28.829S83.28,87.61,55.092,87.61,0,73.064,0,44.877,9.9,22.1,63.8,6.2Z" transform="matrix(-0.469, -0.883, 0.883, -0.469, 602.834, 443.634)" fill="url(#linear-gradient)"/>
    <g id="icono_enviar" data-name="icono enviar" transform="translate(-50 49)">
      <g id="Group_1087" data-name="Group 1087" transform="translate(163.173 -219.344) rotate(17)">
        <path id="Path_110" data-name="Path 110" d="M82.7,385.59,23.02,404.474l35.92,9.8Z" transform="translate(602.823 -36.959)" fill="#24a7b2"/>
        <path id="Path_111" data-name="Path 111" d="M59.494,415.6,22.28,405.443l12.389,39.179,61.819-19.543L84.1,385.9Z" transform="translate(603 -35.955)" fill="#63c1c5"/>
      </g>
      <g id="Mask_Group_23" data-name="Mask Group 23" transform="translate(99 -39)" clip-path="url(#clip-path)">
        <g id="Group_1088" data-name="Group 1088">
          <g id="stripes" transform="translate(-338.596 -15.525) rotate(45)">
            <path id="Path_4612" data-name="Path 4612" d="M3.958.049c6.159-.111,199.261,0,199.261,0v8.3s-194.947.01-199.261,0S-2.2.16,3.958.049Z" transform="translate(835.903 -305.906) rotate(-45)" fill="#ffdd6a"/>
          </g>
          <g id="stripes-2" data-name="stripes" transform="translate(-318.596 -1.524) rotate(45)">
            <path id="Path_4612-2" data-name="Path 4612" d="M3.958.049c6.159-.111,199.261,0,199.261,0v8.3s-194.947.01-199.261,0S-2.2.16,3.958.049Z" transform="translate(835.903 -305.906) rotate(-45)" fill="#ffdd6a"/>
          </g>
          <g id="stripes-3" data-name="stripes" transform="translate(-286.596 13.476) rotate(45)">
            <path id="Path_4612-3" data-name="Path 4612" d="M3.958.049c6.159-.111,199.261,0,199.261,0v8.3s-194.947.01-199.261,0S-2.2.16,3.958.049Z" transform="translate(835.903 -305.906) rotate(-45)" fill="#ffdd6a"/>
          </g>
        </g>
      </g>
    </g>
  </g>
</svg>
