<svg width="39" height="39" viewBox="0 0 39 39" fill="none" xmlns="http://www.w3.org/2000/svg">
<circle cx="19.25" cy="19.25" r="18.25" stroke="#24A7B2" stroke-width="2"/>
<g clip-path="url(#clip0)">
<path d="M29.75 12.7392C28.977 13.0817 28.1477 13.3139 27.2764 13.4176C28.1661 12.8848 28.8471 12.0398 29.1699 11.0359C28.3353 11.5293 27.4141 11.8875 26.4325 12.0818C25.6465 11.2432 24.5285 10.7209 23.2884 10.7209C20.9093 10.7209 18.9803 12.65 18.9803 15.0278C18.9803 15.365 19.0183 15.6944 19.0918 16.0093C15.512 15.8295 12.3377 14.1144 10.2131 11.5083C9.84176 12.1434 9.63049 12.8835 9.63049 13.6735C9.63049 15.1682 10.3916 16.487 11.5464 17.2586C10.8404 17.235 10.1764 17.0407 9.59508 16.7179V16.7717C9.59508 18.8582 11.0806 20.5996 13.0502 20.9959C12.6894 21.093 12.3088 21.1468 11.9151 21.1468C11.637 21.1468 11.3679 21.1192 11.1042 21.0667C11.6527 22.7792 13.2431 24.0245 15.1275 24.0587C13.6539 25.2135 11.7957 25.8998 9.77749 25.8998C9.42975 25.8998 9.08724 25.8788 8.75 25.8407C10.6567 27.0651 12.9204 27.7789 15.3533 27.7789C23.2779 27.7789 27.6097 21.215 27.6097 15.5225L27.5953 14.9648C28.4417 14.3611 29.1739 13.6026 29.75 12.7392Z" fill="#24A7B2"/>
</g>
<defs>
<clipPath id="clip0">
<rect width="21" height="21" fill="white" transform="translate(8.75 8.75)"/>
</clipPath>
</defs>
</svg>
