<svg width="61" height="61" viewBox="0 0 61 61" fill="none" xmlns="http://www.w3.org/2000/svg">
<g filter="url(#filter0_d)">
<path d="M19.7 41.8L20.3 42.1C22.8 43.6 25.6 44.3 28.4 44.3C37.2 44.3 44.4 37.1 44.4 28.3C44.4 24.1 42.7 20 39.7 17C36.7 14 32.7 12.3 28.4 12.3C19.6 12.3 12.4 19.5 12.5 28.4C12.5 31.4 13.4 34.3 14.9 36.8L15.3 37.4L13.7 43.3L19.7 41.8Z" fill="#00E676"/>
<path d="M41.4 15.4C38 11.9 33.3 10 28.5 10C18.3 10 10.1 18.3 10.2 28.4C10.2 31.6 11.1 34.7 12.6 37.5L10 47L19.7 44.5C22.4 46 25.4 46.7 28.4 46.7C38.5 46.7 46.7 38.4 46.7 28.3C46.7 23.4 44.8 18.8 41.4 15.4ZM28.5 43.6C25.8 43.6 23.1 42.9 20.8 41.5L20.2 41.2L14.4 42.7L15.9 37L15.5 36.4C11.1 29.3 13.2 19.9 20.4 15.5C27.6 11.1 36.9 13.2 41.3 20.4C45.7 27.6 43.6 36.9 36.4 41.3C34.1 42.8 31.3 43.6 28.5 43.6ZM37.3 32.5L36.2 32C36.2 32 34.6 31.3 33.6 30.8C33.5 30.8 33.4 30.7 33.3 30.7C33 30.7 32.8 30.8 32.6 30.9C32.6 30.9 32.5 31 31.1 32.6C31 32.8 30.8 32.9 30.6 32.9H30.5C30.4 32.9 30.2 32.8 30.1 32.7L29.6 32.5C28.5 32 27.5 31.4 26.7 30.6C26.5 30.4 26.2 30.2 26 30C25.3 29.3 24.6 28.5 24.1 27.6L24 27.4C23.9 27.3 23.9 27.2 23.8 27C23.8 26.8 23.8 26.6 23.9 26.5C23.9 26.5 24.3 26 24.6 25.7C24.8 25.5 24.9 25.2 25.1 25C25.3 24.7 25.4 24.3 25.3 24C25.2 23.5 24 20.8 23.7 20.2C23.5 19.9 23.3 19.8 23 19.7H22.7C22.5 19.7 22.2 19.7 21.9 19.7C21.7 19.7 21.5 19.8 21.3 19.8L21.2 19.9C21 20 20.8 20.2 20.6 20.3C20.4 20.5 20.3 20.7 20.1 20.9C19.4 21.8 19 22.9 19 24C19 24.8 19.2 25.6 19.5 26.3L19.6 26.6C20.5 28.5 21.7 30.2 23.3 31.7L23.7 32.1C24 32.4 24.3 32.6 24.5 32.9C26.6 34.7 29 36 31.7 36.7C32 36.8 32.4 36.8 32.7 36.9C33 36.9 33.4 36.9 33.7 36.9C34.2 36.9 34.8 36.7 35.2 36.5C35.5 36.3 35.7 36.3 35.9 36.1L36.1 35.9C36.3 35.7 36.5 35.6 36.7 35.4C36.9 35.2 37.1 35 37.2 34.8C37.4 34.4 37.5 33.9 37.6 33.4C37.6 33.2 37.6 32.9 37.6 32.7C37.6 32.7 37.5 32.6 37.3 32.5Z" fill="white"/>
</g>
<defs>
<filter id="filter0_d" x="0" y="0" width="60.7" height="61" filterUnits="userSpaceOnUse" color-interpolation-filters="sRGB">
<feFlood flood-opacity="0" result="BackgroundImageFix"/>
<feColorMatrix in="SourceAlpha" type="matrix" values="0 0 0 0 0 0 0 0 0 0 0 0 0 0 0 0 0 0 127 0"/>
<feOffset dx="2" dy="2"/>
<feGaussianBlur stdDeviation="6"/>
<feColorMatrix type="matrix" values="0 0 0 0 0 0 0 0 0 0 0 0 0 0 0 0 0 0 0.2 0"/>
<feBlend mode="normal" in2="BackgroundImageFix" result="effect1_dropShadow"/>
<feBlend mode="normal" in="SourceGraphic" in2="effect1_dropShadow" result="shape"/>
</filter>
</defs>
</svg>
