<svg width="40" height="40" viewBox="0 0 40 40" fill="none" xmlns="http://www.w3.org/2000/svg">
<path d="M37 0H3C1.34315 0 0 1.34315 0 3V37C0 38.6569 1.34315 40 3 40H37C38.6569 40 40 38.6569 40 37V3C40 1.34315 38.6569 0 37 0Z" fill="#FFDD6A"/>
<path d="M28.0581 26.1577C28.4564 26.1577 28.7884 26.3347 29.0539 26.6888C29.3195 27.0207 29.4523 27.4302 29.4523 27.917C29.4523 28.5588 29.1978 29.0788 28.6888 29.4772C27.6929 30.296 26.6307 30.9267 25.5021 31.3693C24.3734 31.7898 23.2337 32 22.083 32C19.8257 32 17.9557 31.2918 16.473 29.8755C15.0124 28.4592 14.0277 26.4454 13.5187 23.834H11.361C10.9848 23.834 10.6639 23.7123 10.3983 23.4689C10.1328 23.2033 10 22.8824 10 22.5062C10 22.13 10.1328 21.8202 10.3983 21.5768C10.6639 21.3333 10.9848 21.2116 11.361 21.2116H13.2199C13.1978 20.9461 13.1867 20.5367 13.1867 19.9834C13.1867 19.4302 13.1978 19.0207 13.2199 18.7552H11.361C10.9848 18.7552 10.6639 18.6335 10.3983 18.39C10.1328 18.1245 10 17.8147 10 17.4606C10 17.0844 10.1328 16.7746 10.3983 16.5311C10.6639 16.2656 10.9848 16.1328 11.361 16.1328H13.5187C14.0277 13.5436 15.0235 11.5408 16.5062 10.1245C17.9889 8.70816 19.8479 8 22.083 8C23.2116 8 24.3513 8.2213 25.5021 8.6639C26.6528 9.08437 27.7151 9.70401 28.6888 10.5228C28.9544 10.7441 29.1425 10.9765 29.2531 11.2199C29.3859 11.4412 29.4523 11.7289 29.4523 12.083C29.4523 12.5698 29.3195 12.9903 29.0539 13.3444C28.7884 13.6763 28.4564 13.8423 28.0581 13.8423C27.8368 13.8423 27.6266 13.8091 27.4274 13.7427C27.2503 13.6542 27.018 13.5104 26.7303 13.3112C25.8672 12.6473 25.0816 12.1715 24.3734 11.8838C23.6874 11.5961 22.9793 11.4523 22.249 11.4523C21.0097 11.4523 20.0138 11.8396 19.2614 12.6141C18.5311 13.3665 18.0221 14.5394 17.7344 16.1328H21.9834C22.3817 16.1328 22.7026 16.2656 22.9461 16.5311C23.2116 16.7746 23.3444 17.0844 23.3444 17.4606C23.3444 17.8368 23.2116 18.1466 22.9461 18.39C22.7026 18.6335 22.3817 18.7552 21.9834 18.7552H17.4689C17.4467 19.0207 17.4357 19.4302 17.4357 19.9834C17.4357 20.5367 17.4467 20.9461 17.4689 21.2116H21.9834C22.3817 21.2116 22.7026 21.3333 22.9461 21.5768C23.2116 21.8202 23.3444 22.13 23.3444 22.5062C23.3444 22.8824 23.2116 23.2033 22.9461 23.4689C22.7026 23.7123 22.3817 23.834 21.9834 23.834H17.7344C18.0221 25.4495 18.5311 26.6445 19.2614 27.4191C20.0138 28.1715 21.0097 28.5477 22.249 28.5477C22.935 28.5477 23.61 28.4039 24.2739 28.1162C24.9599 27.8064 25.7787 27.3306 26.7303 26.6888C27.018 26.4896 27.2503 26.3568 27.4274 26.2905C27.6266 26.2019 27.8368 26.1577 28.0581 26.1577Z" fill="white"/>
</svg>
