<svg width="100" height="100" viewBox="0 0 100 100" fill="none" xmlns="http://www.w3.org/2000/svg">
<path d="M52.2803 25.081C86.1667 10.0519 82.6822 21.4879 85.1294 39.8594C87.5765 58.2309 72.0902 76.4599 53.6487 78.8979C35.2071 81.3359 16.3434 74.1829 13.8962 55.8114C11.4491 37.4399 18.3929 40.1108 52.2803 25.081Z" fill="url(#paint0_linear)"/>
<g clip-path="url(#clip0)">
<path d="M62.4583 63.1746C61.9293 63.1746 61.5 62.7453 61.5 62.2163V51.4696C59.2287 52.8093 55.0504 53.5913 50 53.5913C44.9496 53.5913 40.7712 52.8093 38.5 51.4696V62.2163C38.5 62.7434 38.0707 63.1746 37.5417 63.1746C37.0127 63.1746 36.5833 62.7434 36.5833 62.2163V46.2946C30.4864 44.7056 27 42.1354 27 39.2163C27 36.9278 29.0547 34.8904 32.9436 33.3226C33.0586 33.2766 33.1793 33.2536 33.302 33.2536C33.6949 33.2536 34.0437 33.4893 34.1913 33.8535C34.3888 34.3441 34.1511 34.9038 33.6604 35.1012C30.6455 36.3145 28.9167 37.8152 28.9167 39.2163C28.9167 42.3884 37.5762 45.9246 50 45.9246C62.4238 45.9246 71.0833 42.3903 71.0833 39.2163C71.0833 36.0423 62.4258 32.508 50 32.508C47.9549 32.508 45.9597 32.6038 44.0698 32.7936C44.0392 32.7955 44.0047 32.7974 43.9721 32.7974C43.4795 32.7974 43.0713 32.4275 43.0214 31.9349C42.9697 31.4078 43.3549 30.9382 43.8801 30.8846C45.8332 30.6891 47.8917 30.5913 50 30.5913C63.1119 30.5913 73 34.3001 73 39.2163C73 42.1354 69.5136 44.7056 63.4167 46.2946V62.2163C63.4167 62.7434 62.9873 63.1746 62.4583 63.1746ZM38.5 48.7996C38.5 49.8308 42.3429 51.6746 50 51.6746C57.6571 51.6746 61.5 49.8308 61.5 48.7996V46.7431C58.0462 47.4618 54.0863 47.8413 50 47.8413C45.9137 47.8413 41.9538 47.4618 38.5 46.7431V48.7996Z" fill="#24A7B2"/>
<path d="M50 44.008C40.1234 44.008 35.625 41.524 35.625 39.2163C35.625 36.9087 40.1234 34.4247 50 34.4247C59.8766 34.4247 64.375 36.9087 64.375 39.2163C64.375 41.524 59.8766 44.008 50 44.008ZM50 36.3413C41.2907 36.3413 37.5417 38.5225 37.5417 39.2163C37.5417 39.9102 41.2907 42.0913 50 42.0913C58.7093 42.0913 62.4583 39.9102 62.4583 39.2163C62.4583 38.5225 58.7113 36.3413 50 36.3413Z" fill="#24A7B2"/>
<path d="M29.875 22.9247C29.3479 22.9247 28.9167 22.4953 28.9167 21.9663V21.008H27.9583C27.4312 21.008 27 20.5787 27 20.0497C27 19.5207 27.4312 19.0913 27.9583 19.0913H28.9167V18.133C28.9167 17.604 29.3479 17.1747 29.875 17.1747C30.4021 17.1747 30.8333 17.604 30.8333 18.133V19.0913H31.7917C32.3207 19.0913 32.75 19.5207 32.75 20.0497C32.75 20.5787 32.3207 21.008 31.7917 21.008H30.8333V21.9663C30.8333 22.4953 30.404 22.9247 29.875 22.9247Z" fill="#24A7B2"/>
<path d="M66.2915 31.5497C65.7644 31.5497 65.3332 31.1203 65.3332 30.5913V29.633H64.3748C63.8478 29.633 63.4165 29.2037 63.4165 28.6747C63.4165 28.1457 63.8458 27.7163 64.3748 27.7163H65.3332V26.758C65.3332 26.229 65.7625 25.7997 66.2915 25.7997C66.8205 25.7997 67.2498 26.229 67.2498 26.758V27.7163H68.2082C68.7372 27.7163 69.1665 28.1457 69.1665 28.6747C69.1665 29.2037 68.7372 29.633 68.2082 29.633H67.2498V30.5913C67.2498 31.1203 66.8205 31.5497 66.2915 31.5497Z" fill="#24A7B2"/>
<path d="M49.0415 24.8413C48.5144 24.8413 48.0832 24.412 48.0832 23.883V22.9246H47.1248C46.5978 22.9246 46.1665 22.4953 46.1665 21.9663C46.1665 21.4373 46.5978 21.008 47.1248 21.008H48.0832V20.0496C48.0832 19.5206 48.5144 19.0913 49.0415 19.0913C49.5686 19.0913 49.9998 19.5206 49.9998 20.0496V21.008H50.9582C51.4872 21.008 51.9165 21.4373 51.9165 21.9663C51.9165 22.4953 51.4872 22.9246 50.9582 22.9246H49.9998V23.883C49.9998 24.412 49.5705 24.8413 49.0415 24.8413Z" fill="#24A7B2"/>
<path d="M38.4998 34.4246C38.1357 34.4246 37.806 34.2215 37.6431 33.8937L35.8702 30.346L32.3224 28.5731C31.9947 28.4101 31.7915 28.0805 31.7915 27.7163C31.7915 27.3521 31.9947 27.0225 32.3205 26.8596L35.8683 25.0866L37.6412 21.5389C37.8003 21.2246 38.128 21.0291 38.4998 21.0291C38.8717 21.0291 39.1994 21.2246 39.3566 21.537L41.1295 25.0847L44.6773 26.8576C45.005 27.0225 45.2082 27.3502 45.2082 27.7163C45.2082 28.0824 45.005 28.4101 44.6792 28.5731L41.1314 30.346L39.3585 33.8937C39.1937 34.2215 38.8659 34.4246 38.4998 34.4246ZM37.0125 28.7762C37.1965 28.8682 37.3498 29.0196 37.4418 29.2036L38.4998 31.3235L39.5598 29.2036C39.6518 29.0196 39.8051 28.8682 39.9891 28.7762L42.107 27.7163L39.9891 26.6564C39.8051 26.5644 39.6518 26.413 39.5598 26.2271L38.4998 24.1091L37.4418 26.2271C37.3498 26.413 37.1965 26.5644 37.0125 26.6564L34.8927 27.7163L37.0125 28.7762Z" fill="#24A7B2"/>
<path d="M49.9999 28.6747C49.6185 28.6747 49.2735 28.4485 49.1201 28.0978C48.9093 27.6128 49.1316 27.0474 49.6166 26.8366L71.6582 17.2533C71.7809 17.2015 71.9112 17.1747 72.0416 17.1747C72.423 17.1747 72.768 17.4008 72.9194 17.7497C73.021 17.9854 73.0267 18.2461 72.9328 18.4838C72.8389 18.7214 72.6568 18.9093 72.423 19.0108L50.3813 28.5942C50.2625 28.6478 50.1321 28.6747 49.9999 28.6747Z" fill="#24A7B2"/>
</g>
<defs>
<linearGradient id="paint0_linear" x1="114.036" y1="2.58059" x2="28.1766" y2="74.9918" gradientUnits="userSpaceOnUse">
<stop stop-color="#C5F3EB"/>
<stop offset="0.416" stop-color="#F3FCDF"/>
<stop offset="1" stop-color="#BBEFE6"/>
</linearGradient>
<clipPath id="clip0">
<rect width="46" height="46" fill="white" transform="translate(27 17.1747)"/>
</clipPath>
</defs>
</svg>
