<svg width="39" height="39" viewBox="0 0 39 39" fill="none" xmlns="http://www.w3.org/2000/svg">
    <circle cx="19.25" cy="19.25" r="18.25" fill="#24A7B2" stroke="#24A7B2" stroke-width="2"/>
    <path d="M19.9325 16.4785C19.9325 16.4458 19.9489 16.4294 19.9816 16.4294V16.4785H19.9325ZM14.6319 14.9571H11.1963V25.2638H14.6319V14.9571ZM12.9141 13.5337C13.5031 13.5337 13.9775 13.3701 14.3374 13.0429C14.6973 12.683 14.8773 12.2577 14.8773 11.7669C14.8446 11.2434 14.6483 10.818 14.2883 10.4908C13.9611 10.1636 13.5194 10 12.9632 10C12.3742 10 11.8998 10.1636 11.5399 10.4908C11.18 10.818 11 11.2434 11 11.7669C11 12.2577 11.1636 12.683 11.4908 13.0429C11.8507 13.3701 12.3252 13.5337 12.9141 13.5337ZM27 19.3742C27 17.771 26.6237 16.593 25.8712 15.8405C25.1513 15.0879 24.2188 14.7117 23.0736 14.7117C22.1247 14.7117 21.4213 14.908 20.9632 15.3006C20.5378 15.6933 20.2106 16.0695 19.9816 16.4294V14.9571H16.546V25.2638H19.9816V19.5215C19.9816 19.3579 19.9816 19.2106 19.9816 19.0798C19.9816 18.9162 20.0143 18.7853 20.0798 18.6871C20.2106 18.3599 20.407 18.0654 20.6687 17.8037C20.9632 17.5419 21.3558 17.411 21.8466 17.411C22.4683 17.411 22.91 17.6401 23.1718 18.0982C23.4335 18.5235 23.5644 19.0798 23.5644 19.7669V25.2638H27V19.3742Z"
          fill="white"/>
</svg>
