<svg width="40" height="39" viewBox="0 0 40 39" fill="none" xmlns="http://www.w3.org/2000/svg">
<circle cx="20" cy="19.25" r="18.25" stroke="#24A7B2" stroke-width="2"/>
<path d="M17.5169 13.2558C17.5169 13.7284 17.5169 15.8365 17.5169 15.8365H15.625V18.9929H17.5169V28.3723H21.4022V18.9929H24.0096C24.0096 18.9929 24.2545 17.4797 24.3712 15.825C24.0326 15.825 21.4175 15.825 21.4175 15.825C21.4175 15.825 21.4175 13.9885 21.4175 13.6671C21.4175 13.3438 21.8403 12.9115 22.2592 12.9115C22.6763 12.9115 23.5582 12.9115 24.375 12.9115C24.375 12.4811 24.375 10.9966 24.375 9.625C23.2846 9.625 22.045 9.625 21.4979 9.625C17.4213 9.625 17.5169 12.7833 17.5169 13.2558Z" fill="#24A7B2"/>
</svg>
