<svg width="39" height="39" viewBox="0 0 39 39" fill="none" xmlns="http://www.w3.org/2000/svg">
<circle cx="19.75" cy="19.25" r="18.25" stroke="#24A7B2" stroke-width="2"/>
<path d="M29.375 19.8774V26.3473H25.6242V20.3107C25.6242 18.7943 25.0817 17.7594 23.724 17.7594C22.6876 17.7594 22.0708 18.4568 21.7995 19.1315C21.7005 19.3727 21.6751 19.7084 21.6751 20.046V26.3473H17.923C17.923 26.3473 17.9735 16.1233 17.923 15.0641H21.6747V16.6634C21.6671 16.6754 21.6572 16.6883 21.65 16.6999H21.6747V16.6634C22.1731 15.8957 23.0633 14.799 25.0558 14.799C27.5244 14.799 29.375 16.4116 29.375 19.8774ZM13.9981 9.625C12.7146 9.625 11.875 10.4669 11.875 11.5741C11.875 12.6571 12.6903 13.5246 13.9483 13.5246H13.9734C15.2819 13.5246 16.0956 12.6573 16.0956 11.5741C16.0709 10.4669 15.2819 9.625 13.9981 9.625ZM12.0978 26.3473H15.8485V15.0641H12.0978V26.3473Z" fill="#24A7B2"/>
</svg>
