<svg width="766" height="470" viewBox="0 0 766 470" fill="none" xmlns="http://www.w3.org/2000/svg">
<path d="M15.0338 40H750.966C759.266 40 766 46.7024 766 54.969V224.031C766 232.299 759.266 239 750.966 239H15.0338C6.73407 239.001 0 232.299 0 224.031V54.969C0 46.7024 6.73407 40 15.0338 40Z" fill="#E5E5E5" fill-opacity="0.3"/>
<path d="M204.037 94.457V221.942H18V94.457H204.037Z" fill="white"/>
<path d="M750 94V222H223V94H750Z" fill="white"/>
<path d="M14.1855 338H751.815C755.554 337.976 759.15 339.542 761.81 342.352C764.47 345.163 765.977 348.988 766 352.986V454.24C765.977 458.239 764.47 462.064 761.81 464.874C759.15 467.685 755.554 469.25 751.815 469.226H14.1855C10.4457 469.25 6.85024 467.685 4.18996 464.874C1.52967 462.064 0.0225054 458.239 0 454.24V352.986C0.0225054 348.988 1.52967 345.163 4.18996 342.352C6.85024 339.542 10.4457 337.976 14.1855 338V338Z" fill="url(#paint0_linear)"/>
<path d="M110.089 369.153C108.756 369.153 107.602 368.866 106.629 368.293C105.656 367.706 104.902 366.873 104.369 365.793C103.849 364.7 103.589 363.413 103.589 361.933C103.589 360.466 103.849 359.193 104.369 358.113C104.902 357.02 105.656 356.186 106.629 355.613C107.602 355.026 108.756 354.733 110.089 354.733C110.982 354.733 111.822 354.88 112.609 355.173C113.409 355.453 114.102 355.86 114.689 356.393C114.902 356.593 115.009 356.826 115.009 357.093C115.009 357.28 114.956 357.446 114.849 357.593C114.742 357.726 114.616 357.793 114.469 357.793C114.309 357.793 114.116 357.72 113.889 357.573C113.209 357.04 112.589 356.666 112.029 356.453C111.482 356.24 110.849 356.133 110.129 356.133C108.582 356.133 107.389 356.64 106.549 357.653C105.722 358.653 105.309 360.08 105.309 361.933C105.309 363.8 105.722 365.24 106.549 366.253C107.389 367.253 108.582 367.753 110.129 367.753C110.836 367.753 111.469 367.646 112.029 367.433C112.589 367.22 113.209 366.846 113.889 366.313C114.116 366.166 114.309 366.093 114.469 366.093C114.616 366.093 114.742 366.16 114.849 366.293C114.956 366.426 115.009 366.593 115.009 366.793C115.009 367.06 114.902 367.293 114.689 367.493C114.102 368.026 113.409 368.44 112.609 368.733C111.822 369.013 110.982 369.153 110.089 369.153ZM121.189 359.013C123.629 359.013 124.849 360.293 124.849 362.853V368.293C124.849 368.533 124.775 368.726 124.629 368.873C124.495 369.02 124.309 369.093 124.069 369.093C123.829 369.093 123.635 369.02 123.489 368.873C123.342 368.726 123.269 368.533 123.269 368.293V367.333C123.015 367.906 122.629 368.353 122.109 368.673C121.589 368.98 120.989 369.133 120.309 369.133C119.682 369.133 119.102 369.006 118.569 368.753C118.049 368.5 117.635 368.146 117.329 367.693C117.022 367.24 116.869 366.74 116.869 366.193C116.869 365.46 117.055 364.893 117.429 364.493C117.802 364.08 118.415 363.786 119.269 363.613C120.122 363.426 121.309 363.333 122.829 363.333H123.269V362.673C123.269 361.873 123.102 361.286 122.769 360.913C122.449 360.54 121.922 360.353 121.189 360.353C120.282 360.353 119.362 360.6 118.429 361.093C118.069 361.32 117.815 361.433 117.669 361.433C117.509 361.433 117.375 361.373 117.269 361.253C117.162 361.133 117.109 360.98 117.109 360.793C117.109 360.606 117.162 360.446 117.269 360.313C117.389 360.166 117.575 360.02 117.829 359.873C118.295 359.606 118.822 359.4 119.409 359.253C120.009 359.093 120.602 359.013 121.189 359.013ZM120.529 367.853C121.329 367.853 121.982 367.586 122.489 367.053C123.009 366.506 123.269 365.806 123.269 364.953V364.373H122.909C121.735 364.373 120.842 364.426 120.229 364.533C119.615 364.626 119.175 364.793 118.909 365.033C118.655 365.26 118.529 365.6 118.529 366.053C118.529 366.573 118.715 367.006 119.089 367.353C119.475 367.686 119.955 367.853 120.529 367.853ZM128.634 369.093C128.394 369.093 128.194 369.026 128.034 368.893C127.888 368.746 127.814 368.546 127.814 368.293V355.593C127.814 355.34 127.888 355.146 128.034 355.013C128.194 354.866 128.394 354.793 128.634 354.793C128.861 354.793 129.048 354.866 129.194 355.013C129.354 355.146 129.434 355.34 129.434 355.593V368.293C129.434 368.546 129.354 368.746 129.194 368.893C129.048 369.026 128.861 369.093 128.634 369.093ZM139.623 367.713C139.849 367.713 140.023 367.773 140.143 367.893C140.263 368 140.323 368.153 140.323 368.353C140.323 368.553 140.263 368.713 140.143 368.833C140.023 368.94 139.849 368.993 139.623 368.993H132.623C132.396 368.993 132.209 368.926 132.063 368.793C131.916 368.646 131.843 368.473 131.843 368.273C131.843 368.06 131.923 367.853 132.083 367.653L138.003 360.533H132.523C132.296 360.533 132.116 360.48 131.983 360.373C131.863 360.253 131.803 360.1 131.803 359.913C131.803 359.713 131.863 359.553 131.983 359.433C132.116 359.313 132.296 359.253 132.523 359.253H139.303C139.543 359.253 139.736 359.326 139.883 359.473C140.029 359.606 140.103 359.773 140.103 359.973C140.103 360.186 140.023 360.393 139.863 360.593L133.923 367.713H139.623ZM146.404 359.013C148.844 359.013 150.064 360.293 150.064 362.853V368.293C150.064 368.533 149.99 368.726 149.844 368.873C149.71 369.02 149.524 369.093 149.284 369.093C149.044 369.093 148.85 369.02 148.704 368.873C148.557 368.726 148.484 368.533 148.484 368.293V367.333C148.23 367.906 147.844 368.353 147.324 368.673C146.804 368.98 146.204 369.133 145.524 369.133C144.897 369.133 144.317 369.006 143.784 368.753C143.264 368.5 142.85 368.146 142.544 367.693C142.237 367.24 142.084 366.74 142.084 366.193C142.084 365.46 142.27 364.893 142.644 364.493C143.017 364.08 143.63 363.786 144.484 363.613C145.337 363.426 146.524 363.333 148.044 363.333H148.484V362.673C148.484 361.873 148.317 361.286 147.984 360.913C147.664 360.54 147.137 360.353 146.404 360.353C145.497 360.353 144.577 360.6 143.644 361.093C143.284 361.32 143.03 361.433 142.884 361.433C142.724 361.433 142.59 361.373 142.484 361.253C142.377 361.133 142.324 360.98 142.324 360.793C142.324 360.606 142.377 360.446 142.484 360.313C142.604 360.166 142.79 360.02 143.044 359.873C143.51 359.606 144.037 359.4 144.624 359.253C145.224 359.093 145.817 359.013 146.404 359.013ZM145.744 367.853C146.544 367.853 147.197 367.586 147.704 367.053C148.224 366.506 148.484 365.806 148.484 364.953V364.373H148.124C146.95 364.373 146.057 364.426 145.444 364.533C144.83 364.626 144.39 364.793 144.124 365.033C143.87 365.26 143.744 365.6 143.744 366.053C143.744 366.573 143.93 367.006 144.304 367.353C144.69 367.686 145.17 367.853 145.744 367.853ZM160.849 354.793C161.102 354.793 161.302 354.866 161.449 355.013C161.596 355.16 161.669 355.346 161.669 355.573V368.293C161.669 368.533 161.596 368.726 161.449 368.873C161.302 369.02 161.102 369.093 160.849 369.093C160.596 369.093 160.396 369.02 160.249 368.873C160.116 368.726 160.049 368.533 160.049 368.293V367.213C159.756 367.826 159.322 368.3 158.749 368.633C158.189 368.966 157.529 369.133 156.769 369.133C155.916 369.133 155.162 368.92 154.509 368.493C153.856 368.066 153.349 367.473 152.989 366.713C152.629 365.94 152.449 365.046 152.449 364.033C152.449 363.033 152.629 362.153 152.989 361.393C153.349 360.633 153.856 360.046 154.509 359.633C155.162 359.22 155.916 359.013 156.769 359.013C157.529 359.013 158.189 359.18 158.749 359.513C159.322 359.846 159.756 360.32 160.049 360.933V355.573C160.049 355.333 160.116 355.146 160.249 355.013C160.396 354.866 160.596 354.793 160.849 354.793ZM157.089 367.793C158.036 367.793 158.762 367.473 159.269 366.833C159.789 366.18 160.049 365.26 160.049 364.073C160.049 362.886 159.789 361.973 159.269 361.333C158.762 360.693 158.036 360.373 157.089 360.373C156.142 360.373 155.402 360.693 154.869 361.333C154.349 361.973 154.089 362.873 154.089 364.033C154.089 365.22 154.349 366.146 154.869 366.813C155.402 367.466 156.142 367.793 157.089 367.793ZM168.71 369.133C167.79 369.133 166.976 368.926 166.27 368.513C165.576 368.1 165.036 367.513 164.65 366.753C164.276 365.98 164.09 365.086 164.09 364.073C164.09 363.06 164.276 362.173 164.65 361.413C165.036 360.64 165.576 360.046 166.27 359.633C166.976 359.22 167.79 359.013 168.71 359.013C169.63 359.013 170.443 359.22 171.15 359.633C171.856 360.046 172.396 360.64 172.77 361.413C173.156 362.173 173.35 363.06 173.35 364.073C173.35 365.086 173.156 365.98 172.77 366.753C172.396 367.513 171.856 368.1 171.15 368.513C170.443 368.926 169.63 369.133 168.71 369.133ZM168.71 367.793C169.67 367.793 170.403 367.48 170.91 366.853C171.43 366.213 171.69 365.286 171.69 364.073C171.69 362.886 171.43 361.973 170.91 361.333C170.39 360.68 169.656 360.353 168.71 360.353C167.763 360.353 167.03 360.68 166.51 361.333C165.99 361.973 165.73 362.886 165.73 364.073C165.73 365.273 165.983 366.193 166.49 366.833C167.01 367.473 167.75 367.793 168.71 367.793ZM179.043 369.133C178.43 369.133 177.843 369.06 177.283 368.913C176.737 368.766 176.25 368.56 175.823 368.293C175.583 368.133 175.41 367.986 175.303 367.853C175.21 367.706 175.163 367.533 175.163 367.333C175.163 367.16 175.21 367.02 175.303 366.913C175.41 366.793 175.543 366.733 175.703 366.733C175.863 366.733 176.097 366.833 176.403 367.033C176.803 367.273 177.197 367.466 177.583 367.613C177.983 367.746 178.477 367.813 179.063 367.813C179.783 367.813 180.343 367.686 180.743 367.433C181.143 367.18 181.343 366.813 181.343 366.333C181.343 366.04 181.27 365.806 181.123 365.633C180.977 365.446 180.723 365.286 180.363 365.153C180.003 365.006 179.477 364.86 178.783 364.713C177.61 364.46 176.77 364.12 176.263 363.693C175.757 363.266 175.503 362.686 175.503 361.953C175.503 361.38 175.663 360.873 175.983 360.433C176.303 359.993 176.743 359.646 177.303 359.393C177.877 359.14 178.523 359.013 179.243 359.013C179.763 359.013 180.263 359.086 180.743 359.233C181.237 359.366 181.67 359.56 182.043 359.813C182.497 360.133 182.723 360.466 182.723 360.813C182.723 360.986 182.67 361.133 182.563 361.253C182.457 361.373 182.33 361.433 182.183 361.433C182.023 361.433 181.783 361.32 181.463 361.093C181.09 360.853 180.737 360.666 180.403 360.533C180.07 360.4 179.657 360.333 179.163 360.333C178.537 360.333 178.03 360.473 177.643 360.753C177.27 361.033 177.083 361.406 177.083 361.873C177.083 362.166 177.15 362.406 177.283 362.593C177.43 362.766 177.663 362.926 177.983 363.073C178.317 363.206 178.79 363.34 179.403 363.473C180.31 363.673 181.01 363.893 181.503 364.133C182.01 364.373 182.37 364.666 182.583 365.013C182.797 365.36 182.903 365.8 182.903 366.333C182.903 367.173 182.55 367.853 181.843 368.373C181.137 368.88 180.203 369.133 179.043 369.133ZM114.709 387.013C116.869 387.013 117.949 388.3 117.949 390.873V396.293C117.949 396.546 117.876 396.746 117.729 396.893C117.582 397.026 117.389 397.093 117.149 397.093C116.909 397.093 116.709 397.026 116.549 396.893C116.402 396.746 116.329 396.546 116.329 396.293V390.913C116.329 390.02 116.169 389.373 115.849 388.973C115.529 388.573 115.029 388.373 114.349 388.373C113.536 388.373 112.896 388.646 112.429 389.193C111.962 389.74 111.729 390.48 111.729 391.413V396.293C111.729 396.546 111.649 396.746 111.489 396.893C111.342 397.026 111.149 397.093 110.909 397.093C110.669 397.093 110.476 397.026 110.329 396.893C110.182 396.746 110.109 396.546 110.109 396.293V390.913C110.109 390.02 109.949 389.373 109.629 388.973C109.309 388.573 108.802 388.373 108.109 388.373C107.309 388.373 106.669 388.646 106.189 389.193C105.722 389.74 105.489 390.48 105.489 391.413V396.293C105.489 396.546 105.416 396.746 105.269 396.893C105.122 397.026 104.929 397.093 104.689 397.093C104.449 397.093 104.249 397.026 104.089 396.893C103.942 396.746 103.869 396.546 103.869 396.293V387.853C103.869 387.613 103.942 387.42 104.089 387.273C104.249 387.126 104.449 387.053 104.689 387.053C104.916 387.053 105.102 387.126 105.249 387.273C105.396 387.406 105.469 387.593 105.469 387.833V388.793C105.762 388.22 106.169 387.78 106.689 387.473C107.209 387.166 107.809 387.013 108.489 387.013C110.009 387.013 111.002 387.653 111.469 388.933C111.749 388.346 112.176 387.88 112.749 387.533C113.322 387.186 113.976 387.013 114.709 387.013ZM124.88 387.013C127.32 387.013 128.54 388.293 128.54 390.853V396.293C128.54 396.533 128.467 396.726 128.32 396.873C128.187 397.02 128 397.093 127.76 397.093C127.52 397.093 127.327 397.02 127.18 396.873C127.033 396.726 126.96 396.533 126.96 396.293V395.333C126.707 395.906 126.32 396.353 125.8 396.673C125.28 396.98 124.68 397.133 124 397.133C123.373 397.133 122.793 397.006 122.26 396.753C121.74 396.5 121.327 396.146 121.02 395.693C120.713 395.24 120.56 394.74 120.56 394.193C120.56 393.46 120.747 392.893 121.12 392.493C121.493 392.08 122.107 391.786 122.96 391.613C123.813 391.426 125 391.333 126.52 391.333H126.96V390.673C126.96 389.873 126.793 389.286 126.46 388.913C126.14 388.54 125.613 388.353 124.88 388.353C123.973 388.353 123.053 388.6 122.12 389.093C121.76 389.32 121.507 389.433 121.36 389.433C121.2 389.433 121.067 389.373 120.96 389.253C120.853 389.133 120.8 388.98 120.8 388.793C120.8 388.606 120.853 388.446 120.96 388.313C121.08 388.166 121.267 388.02 121.52 387.873C121.987 387.606 122.513 387.4 123.1 387.253C123.7 387.093 124.293 387.013 124.88 387.013ZM124.22 395.853C125.02 395.853 125.673 395.586 126.18 395.053C126.7 394.506 126.96 393.806 126.96 392.953V392.373H126.6C125.427 392.373 124.533 392.426 123.92 392.533C123.307 392.626 122.867 392.793 122.6 393.033C122.347 393.26 122.22 393.6 122.22 394.053C122.22 394.573 122.407 395.006 122.78 395.353C123.167 395.686 123.647 395.853 124.22 395.853ZM136.406 387.013C138.739 387.013 139.906 388.3 139.906 390.873V396.293C139.906 396.546 139.832 396.746 139.686 396.893C139.552 397.026 139.359 397.093 139.106 397.093C138.852 397.093 138.652 397.026 138.506 396.893C138.359 396.746 138.286 396.546 138.286 396.293V390.973C138.286 390.066 138.106 389.406 137.746 388.993C137.399 388.58 136.839 388.373 136.066 388.373C135.172 388.373 134.459 388.646 133.926 389.193C133.392 389.74 133.126 390.48 133.126 391.413V396.293C133.126 396.546 133.052 396.746 132.906 396.893C132.772 397.026 132.579 397.093 132.326 397.093C132.072 397.093 131.872 397.026 131.726 396.893C131.579 396.746 131.506 396.546 131.506 396.293V387.853C131.506 387.613 131.579 387.42 131.726 387.273C131.872 387.126 132.072 387.053 132.326 387.053C132.566 387.053 132.752 387.126 132.886 387.273C133.032 387.42 133.106 387.606 133.106 387.833V388.853C133.426 388.253 133.872 387.8 134.446 387.493C135.019 387.173 135.672 387.013 136.406 387.013ZM146.913 397.133C145.993 397.133 145.179 396.926 144.473 396.513C143.779 396.1 143.239 395.513 142.853 394.753C142.479 393.98 142.293 393.086 142.293 392.073C142.293 391.06 142.479 390.173 142.853 389.413C143.239 388.64 143.779 388.046 144.473 387.633C145.179 387.22 145.993 387.013 146.913 387.013C147.833 387.013 148.646 387.22 149.353 387.633C150.059 388.046 150.599 388.64 150.973 389.413C151.359 390.173 151.553 391.06 151.553 392.073C151.553 393.086 151.359 393.98 150.973 394.753C150.599 395.513 150.059 396.1 149.353 396.513C148.646 396.926 147.833 397.133 146.913 397.133ZM146.913 395.793C147.873 395.793 148.606 395.48 149.113 394.853C149.633 394.213 149.893 393.286 149.893 392.073C149.893 390.886 149.633 389.973 149.113 389.333C148.593 388.68 147.859 388.353 146.913 388.353C145.966 388.353 145.233 388.68 144.713 389.333C144.193 389.973 143.933 390.886 143.933 392.073C143.933 393.273 144.186 394.193 144.693 394.833C145.213 395.473 145.953 395.793 146.913 395.793ZM154.787 397.093C154.547 397.093 154.347 397.026 154.187 396.893C154.04 396.746 153.967 396.546 153.967 396.293V383.593C153.967 383.34 154.04 383.146 154.187 383.013C154.347 382.866 154.547 382.793 154.787 382.793C155.013 382.793 155.2 382.866 155.347 383.013C155.507 383.146 155.587 383.34 155.587 383.593V396.293C155.587 396.546 155.507 396.746 155.347 396.893C155.2 397.026 155.013 397.093 154.787 397.093ZM159.435 397.093C159.195 397.093 158.995 397.026 158.835 396.893C158.688 396.746 158.615 396.546 158.615 396.293V387.853C158.615 387.6 158.688 387.406 158.835 387.273C158.995 387.126 159.195 387.053 159.435 387.053C159.675 387.053 159.868 387.126 160.015 387.273C160.162 387.406 160.235 387.6 160.235 387.853V396.293C160.235 396.56 160.162 396.76 160.015 396.893C159.868 397.026 159.675 397.093 159.435 397.093ZM159.435 384.953C159.115 384.953 158.855 384.86 158.655 384.673C158.455 384.486 158.355 384.24 158.355 383.933C158.355 383.64 158.455 383.4 158.655 383.213C158.855 383.026 159.115 382.933 159.435 382.933C159.755 382.933 160.015 383.026 160.215 383.213C160.415 383.4 160.515 383.64 160.515 383.933C160.515 384.24 160.415 384.486 160.215 384.673C160.015 384.86 159.755 384.953 159.435 384.953Z" fill="#404040"/>
<path d="M26.2536 370.034C26.4216 370.034 26.5523 370.076 26.6456 370.16C26.7389 370.244 26.7856 370.361 26.7856 370.51C26.7856 370.837 26.6083 371 26.2536 371H20.7656C20.6069 371 20.4763 370.953 20.3736 370.86C20.2709 370.757 20.2196 370.636 20.2196 370.496C20.2196 370.319 20.2849 370.165 20.4156 370.034L23.7896 366.324C24.2563 365.801 24.5923 365.335 24.7976 364.924C25.0123 364.504 25.1196 364.084 25.1196 363.664C25.1196 363.123 24.9609 362.707 24.6436 362.418C24.3356 362.129 23.8969 361.984 23.3276 361.984C22.8796 361.984 22.4503 362.068 22.0396 362.236C21.6289 362.395 21.2183 362.642 20.8076 362.978C20.6676 363.09 20.5369 363.146 20.4156 363.146C20.3129 363.146 20.2243 363.099 20.1496 363.006C20.0749 362.903 20.0376 362.782 20.0376 362.642C20.0376 362.446 20.1123 362.287 20.2616 362.166C20.6443 361.811 21.1109 361.531 21.6616 361.326C22.2123 361.121 22.7769 361.018 23.3556 361.018C24.2423 361.018 24.9469 361.251 25.4696 361.718C26.0016 362.185 26.2676 362.815 26.2676 363.608C26.2676 364.177 26.1369 364.723 25.8756 365.246C25.6236 365.769 25.2036 366.352 24.6156 366.996L21.8156 370.034H26.2536ZM34.6481 370.034C34.8161 370.034 34.9468 370.076 35.0401 370.16C35.1335 370.244 35.1801 370.361 35.1801 370.51C35.1801 370.837 35.0028 371 34.6481 371H29.1601C29.0015 371 28.8708 370.953 28.7681 370.86C28.6655 370.757 28.6141 370.636 28.6141 370.496C28.6141 370.319 28.6795 370.165 28.8101 370.034L32.1841 366.324C32.6508 365.801 32.9868 365.335 33.1921 364.924C33.4068 364.504 33.5141 364.084 33.5141 363.664C33.5141 363.123 33.3555 362.707 33.0381 362.418C32.7301 362.129 32.2915 361.984 31.7221 361.984C31.2741 361.984 30.8448 362.068 30.4341 362.236C30.0235 362.395 29.6128 362.642 29.2021 362.978C29.0621 363.09 28.9315 363.146 28.8101 363.146C28.7075 363.146 28.6188 363.099 28.5441 363.006C28.4695 362.903 28.4321 362.782 28.4321 362.642C28.4321 362.446 28.5068 362.287 28.6561 362.166C29.0388 361.811 29.5055 361.531 30.0561 361.326C30.6068 361.121 31.1715 361.018 31.7501 361.018C32.6368 361.018 33.3415 361.251 33.8641 361.718C34.3961 362.185 34.6621 362.815 34.6621 363.608C34.6621 364.177 34.5315 364.723 34.2701 365.246C34.0181 365.769 33.5981 366.352 33.0101 366.996L30.2101 370.034H34.6481ZM36.7147 371.504C36.6773 371.625 36.6167 371.719 36.5327 371.784C36.4487 371.849 36.3553 371.882 36.2527 371.882C36.122 371.882 36.0053 371.835 35.9027 371.742C35.8 371.649 35.7487 371.532 35.7487 371.392C35.7487 371.336 35.7627 371.271 35.7907 371.196L39.0947 360.864C39.132 360.743 39.1927 360.649 39.2767 360.584C39.3607 360.519 39.454 360.486 39.5567 360.486C39.6873 360.486 39.804 360.533 39.9067 360.626C40.0093 360.719 40.0607 360.841 40.0607 360.99C40.0607 361.018 40.0513 361.079 40.0327 361.172L36.7147 371.504ZM46.7835 370.034C46.9515 370.034 47.0822 370.076 47.1755 370.16C47.2688 370.244 47.3155 370.361 47.3155 370.51C47.3155 370.669 47.2688 370.79 47.1755 370.874C47.0915 370.958 46.9608 371 46.7835 371H42.1495C41.9722 371 41.8368 370.958 41.7435 370.874C41.6595 370.79 41.6175 370.669 41.6175 370.51C41.6175 370.361 41.6642 370.244 41.7575 370.16C41.8508 370.076 41.9815 370.034 42.1495 370.034H43.8855V362.53L42.3595 363.524C42.2848 363.571 42.2102 363.594 42.1355 363.594C42.0048 363.594 41.8882 363.533 41.7855 363.412C41.6922 363.291 41.6455 363.16 41.6455 363.02C41.6455 362.824 41.7202 362.684 41.8695 362.6L43.9975 361.214C44.1562 361.111 44.3195 361.06 44.4875 361.06C44.6462 361.06 44.7768 361.111 44.8795 361.214C44.9822 361.317 45.0335 361.461 45.0335 361.648V370.034H46.7835ZM55.402 370.034C55.57 370.034 55.7007 370.076 55.794 370.16C55.8874 370.244 55.934 370.361 55.934 370.51C55.934 370.837 55.7567 371 55.402 371H49.914C49.7554 371 49.6247 370.953 49.522 370.86C49.4194 370.757 49.368 370.636 49.368 370.496C49.368 370.319 49.4334 370.165 49.564 370.034L52.938 366.324C53.4047 365.801 53.7407 365.335 53.946 364.924C54.1607 364.504 54.268 364.084 54.268 363.664C54.268 363.123 54.1094 362.707 53.792 362.418C53.484 362.129 53.0454 361.984 52.476 361.984C52.028 361.984 51.5987 362.068 51.188 362.236C50.7774 362.395 50.3667 362.642 49.956 362.978C49.816 363.09 49.6854 363.146 49.564 363.146C49.4614 363.146 49.3727 363.099 49.298 363.006C49.2234 362.903 49.186 362.782 49.186 362.642C49.186 362.446 49.2607 362.287 49.41 362.166C49.7927 361.811 50.2594 361.531 50.81 361.326C51.3607 361.121 51.9254 361.018 52.504 361.018C53.3907 361.018 54.0954 361.251 54.618 361.718C55.15 362.185 55.416 362.815 55.416 363.608C55.416 364.177 55.2854 364.723 55.024 365.246C54.772 365.769 54.352 366.352 53.764 366.996L50.964 370.034H55.402ZM57.4686 371.504C57.4312 371.625 57.3706 371.719 57.2866 371.784C57.2026 371.849 57.1092 371.882 57.0066 371.882C56.8759 371.882 56.7592 371.835 56.6566 371.742C56.5539 371.649 56.5026 371.532 56.5026 371.392C56.5026 371.336 56.5166 371.271 56.5446 371.196L59.8486 360.864C59.8859 360.743 59.9466 360.649 60.0306 360.584C60.1146 360.519 60.2079 360.486 60.3106 360.486C60.4412 360.486 60.5579 360.533 60.6606 360.626C60.7632 360.719 60.8146 360.841 60.8146 360.99C60.8146 361.018 60.8052 361.079 60.7866 361.172L57.4686 371.504ZM67.7614 370.034C67.9294 370.034 68.0601 370.076 68.1534 370.16C68.2467 370.244 68.2934 370.361 68.2934 370.51C68.2934 370.837 68.1161 371 67.7614 371H62.2734C62.1147 371 61.9841 370.953 61.8814 370.86C61.7787 370.757 61.7274 370.636 61.7274 370.496C61.7274 370.319 61.7927 370.165 61.9234 370.034L65.2974 366.324C65.7641 365.801 66.1001 365.335 66.3054 364.924C66.5201 364.504 66.6274 364.084 66.6274 363.664C66.6274 363.123 66.4687 362.707 66.1514 362.418C65.8434 362.129 65.4047 361.984 64.8354 361.984C64.3874 361.984 63.9581 362.068 63.5474 362.236C63.1367 362.395 62.7261 362.642 62.3154 362.978C62.1754 363.09 62.0447 363.146 61.9234 363.146C61.8207 363.146 61.7321 363.099 61.6574 363.006C61.5827 362.903 61.5454 362.782 61.5454 362.642C61.5454 362.446 61.6201 362.287 61.7694 362.166C62.1521 361.811 62.6187 361.531 63.1694 361.326C63.7201 361.121 64.2847 361.018 64.8634 361.018C65.7501 361.018 66.4547 361.251 66.9774 361.718C67.5094 362.185 67.7754 362.815 67.7754 363.608C67.7754 364.177 67.6447 364.723 67.3834 365.246C67.1314 365.769 66.7114 366.352 66.1234 366.996L63.3234 370.034H67.7614ZM73.2439 371.112C72.1146 371.112 71.2559 370.683 70.6679 369.824C70.0799 368.965 69.7859 367.715 69.7859 366.072C69.7859 364.42 70.0799 363.165 70.6679 362.306C71.2559 361.447 72.1146 361.018 73.2439 361.018C74.3733 361.018 75.2319 361.447 75.8199 362.306C76.4079 363.155 76.7019 364.406 76.7019 366.058C76.7019 367.71 76.4079 368.965 75.8199 369.824C75.2319 370.683 74.3733 371.112 73.2439 371.112ZM73.2439 370.146C74.0279 370.146 74.6066 369.815 74.9799 369.152C75.3533 368.489 75.5399 367.458 75.5399 366.058C75.5399 364.649 75.3533 363.617 74.9799 362.964C74.6159 362.311 74.0373 361.984 73.2439 361.984C72.4599 361.984 71.8813 362.315 71.5079 362.978C71.1346 363.631 70.9479 364.658 70.9479 366.058C70.9479 367.458 71.1346 368.489 71.5079 369.152C71.8813 369.815 72.4599 370.146 73.2439 370.146ZM84.3265 370.034C84.4945 370.034 84.6251 370.076 84.7185 370.16C84.8118 370.244 84.8585 370.361 84.8585 370.51C84.8585 370.669 84.8118 370.79 84.7185 370.874C84.6345 370.958 84.5038 371 84.3265 371H79.6925C79.5151 371 79.3798 370.958 79.2865 370.874C79.2025 370.79 79.1605 370.669 79.1605 370.51C79.1605 370.361 79.2071 370.244 79.3005 370.16C79.3938 370.076 79.5245 370.034 79.6925 370.034H81.4285V362.53L79.9025 363.524C79.8278 363.571 79.7531 363.594 79.6785 363.594C79.5478 363.594 79.4311 363.533 79.3285 363.412C79.2351 363.291 79.1885 363.16 79.1885 363.02C79.1885 362.824 79.2631 362.684 79.4125 362.6L81.5405 361.214C81.6991 361.111 81.8625 361.06 82.0305 361.06C82.1891 361.06 82.3198 361.111 82.4225 361.214C82.5251 361.317 82.5765 361.461 82.5765 361.648V370.034H84.3265ZM25.0496 384.932C25.6283 385.109 26.0763 385.413 26.3936 385.842C26.7203 386.271 26.8836 386.785 26.8836 387.382C26.8836 388.231 26.5756 388.899 25.9596 389.384C25.3436 389.86 24.4709 390.098 23.3416 390.098C22.2123 390.098 21.3396 389.86 20.7236 389.384C20.1076 388.899 19.7996 388.231 19.7996 387.382C19.7996 386.775 19.9629 386.257 20.2896 385.828C20.6163 385.399 21.0689 385.1 21.6476 384.932C21.1529 384.745 20.7609 384.451 20.4716 384.05C20.1823 383.649 20.0376 383.177 20.0376 382.636C20.0376 381.833 20.3269 381.199 20.9056 380.732C21.4936 380.256 22.3056 380.018 23.3416 380.018C24.3776 380.018 25.1849 380.256 25.7636 380.732C26.3516 381.199 26.6456 381.833 26.6456 382.636C26.6456 383.177 26.5009 383.653 26.2116 384.064C25.9223 384.465 25.5349 384.755 25.0496 384.932ZM21.1716 382.72C21.1716 383.299 21.3536 383.742 21.7176 384.05C22.0909 384.358 22.6323 384.512 23.3416 384.512C24.0509 384.512 24.5876 384.358 24.9516 384.05C25.3249 383.742 25.5116 383.299 25.5116 382.72C25.5116 382.169 25.3249 381.74 24.9516 381.432C24.5876 381.124 24.0509 380.97 23.3416 380.97C22.6323 380.97 22.0909 381.124 21.7176 381.432C21.3536 381.74 21.1716 382.169 21.1716 382.72ZM23.3416 389.146C24.9469 389.146 25.7496 388.535 25.7496 387.312C25.7496 386.089 24.9469 385.478 23.3416 385.478C21.7363 385.478 20.9336 386.089 20.9336 387.312C20.9336 388.535 21.7363 389.146 23.3416 389.146Z" fill="#24A7B2"/>
<path d="M735.363 353H647.498C641.3 353 636.275 358.373 636.275 365C636.275 371.627 641.3 377 647.498 377H735.363C741.561 377 746.586 371.627 746.586 365C746.586 358.373 741.561 353 735.363 353Z" fill="white"/>
<path d="M673.223 367.767C673.255 367.831 673.271 367.899 673.271 367.971C673.271 368.091 673.223 368.191 673.127 368.271C673.039 368.351 672.931 368.391 672.803 368.391C672.603 368.391 672.463 368.295 672.383 368.103L671.531 366.159H667.007L666.143 368.103C666.063 368.295 665.923 368.391 665.723 368.391C665.595 368.391 665.483 368.351 665.387 368.271C665.291 368.183 665.243 368.079 665.243 367.959C665.243 367.895 665.259 367.831 665.291 367.767L668.723 360.135C668.771 360.023 668.843 359.939 668.939 359.883C669.035 359.827 669.139 359.799 669.251 359.799C669.371 359.799 669.479 359.831 669.575 359.895C669.671 359.951 669.743 360.031 669.791 360.135L673.223 367.767ZM667.367 365.343H671.171L669.263 361.035L667.367 365.343ZM676.926 368.415C676.382 368.415 675.898 368.291 675.474 368.043C675.058 367.795 674.734 367.443 674.502 366.987C674.278 366.531 674.166 366.003 674.166 365.403C674.166 364.803 674.282 364.271 674.514 363.807C674.754 363.343 675.086 362.983 675.51 362.727C675.934 362.471 676.422 362.343 676.974 362.343C677.278 362.343 677.578 362.387 677.874 362.475C678.178 362.555 678.442 362.675 678.666 362.835C678.81 362.931 678.91 363.027 678.966 363.123C679.03 363.211 679.062 363.311 679.062 363.423C679.062 363.535 679.03 363.627 678.966 363.699C678.91 363.771 678.834 363.807 678.738 363.807C678.682 363.807 678.622 363.791 678.558 363.759C678.494 363.727 678.438 363.695 678.39 363.663C678.35 363.631 678.322 363.611 678.306 363.603C678.098 363.467 677.898 363.359 677.706 363.279C677.522 363.199 677.294 363.159 677.022 363.159C676.438 363.159 675.982 363.359 675.654 363.759C675.334 364.151 675.174 364.699 675.174 365.403C675.174 366.107 675.334 366.651 675.654 367.035C675.982 367.419 676.438 367.611 677.022 367.611C677.294 367.611 677.526 367.571 677.718 367.491C677.918 367.411 678.118 367.303 678.318 367.167C678.406 367.111 678.49 367.063 678.57 367.023C678.65 366.983 678.718 366.963 678.774 366.963C678.862 366.963 678.934 366.999 678.99 367.071C679.054 367.143 679.086 367.235 679.086 367.347C679.086 367.451 679.058 367.547 679.002 367.635C678.946 367.715 678.842 367.807 678.69 367.911C678.466 368.063 678.194 368.187 677.874 368.283C677.562 368.371 677.246 368.415 676.926 368.415ZM682.967 367.623C683.247 367.647 683.387 367.775 683.387 368.007C683.387 368.143 683.335 368.247 683.231 368.319C683.135 368.383 682.987 368.407 682.787 368.391L682.463 368.367C681.823 368.319 681.351 368.127 681.047 367.791C680.743 367.455 680.591 366.947 680.591 366.267V363.255H679.787C679.651 363.255 679.543 363.223 679.463 363.159C679.391 363.087 679.355 362.995 679.355 362.883C679.355 362.763 679.391 362.667 679.463 362.595C679.543 362.523 679.651 362.487 679.787 362.487H680.591V361.131C680.591 360.979 680.635 360.863 680.723 360.783C680.811 360.695 680.931 360.651 681.083 360.651C681.227 360.651 681.343 360.695 681.431 360.783C681.519 360.863 681.563 360.979 681.563 361.131V362.487H682.895C683.023 362.487 683.123 362.523 683.195 362.595C683.275 362.667 683.315 362.763 683.315 362.883C683.315 362.995 683.275 363.087 683.195 363.159C683.123 363.223 683.023 363.255 682.895 363.255H681.563V366.315C681.563 366.755 681.651 367.075 681.827 367.275C682.011 367.467 682.283 367.575 682.643 367.599L682.967 367.623ZM684.838 368.391C684.694 368.391 684.574 368.351 684.478 368.271C684.39 368.183 684.346 368.063 684.346 367.911V362.847C684.346 362.695 684.39 362.579 684.478 362.499C684.574 362.411 684.694 362.367 684.838 362.367C684.982 362.367 685.098 362.411 685.186 362.499C685.274 362.579 685.318 362.695 685.318 362.847V367.911C685.318 368.071 685.274 368.191 685.186 368.271C685.098 368.351 684.982 368.391 684.838 368.391ZM684.838 361.107C684.646 361.107 684.49 361.051 684.37 360.939C684.25 360.827 684.19 360.679 684.19 360.495C684.19 360.319 684.25 360.175 684.37 360.063C684.49 359.951 684.646 359.895 684.838 359.895C685.03 359.895 685.186 359.951 685.306 360.063C685.426 360.175 685.486 360.319 685.486 360.495C685.486 360.679 685.426 360.827 685.306 360.939C685.186 361.051 685.03 361.107 684.838 361.107ZM691.347 362.667C691.435 362.475 691.575 362.379 691.767 362.379C691.887 362.379 691.995 362.419 692.091 362.499C692.187 362.579 692.235 362.679 692.235 362.799C692.235 362.871 692.219 362.935 692.187 362.991L689.847 368.031C689.799 368.135 689.727 368.219 689.631 368.283C689.535 368.339 689.431 368.367 689.319 368.367C689.215 368.367 689.115 368.339 689.019 368.283C688.923 368.219 688.847 368.135 688.791 368.031L686.463 362.991C686.431 362.935 686.415 362.875 686.415 362.811C686.415 362.691 686.467 362.587 686.571 362.499C686.683 362.411 686.803 362.367 686.931 362.367C687.011 362.367 687.087 362.391 687.159 362.439C687.239 362.487 687.299 362.555 687.339 362.643L689.343 367.143L691.347 362.667ZM668.183 379.343C669.647 379.343 670.379 380.111 670.379 381.647V384.911C670.379 385.055 670.335 385.171 670.247 385.259C670.167 385.347 670.055 385.391 669.911 385.391C669.767 385.391 669.651 385.347 669.563 385.259C669.475 385.171 669.431 385.055 669.431 384.911V384.335C669.279 384.679 669.047 384.947 668.735 385.139C668.423 385.323 668.063 385.415 667.655 385.415C667.279 385.415 666.931 385.339 666.611 385.187C666.299 385.035 666.051 384.823 665.867 384.551C665.683 384.279 665.591 383.979 665.591 383.651C665.591 383.211 665.703 382.871 665.927 382.631C666.151 382.383 666.519 382.207 667.031 382.103C667.543 381.991 668.255 381.935 669.167 381.935H669.431V381.539C669.431 381.059 669.331 380.707 669.131 380.483C668.939 380.259 668.623 380.147 668.183 380.147C667.639 380.147 667.087 380.295 666.527 380.591C666.311 380.727 666.159 380.795 666.071 380.795C665.975 380.795 665.895 380.759 665.831 380.687C665.767 380.615 665.735 380.523 665.735 380.411C665.735 380.299 665.767 380.203 665.831 380.123C665.903 380.035 666.015 379.947 666.167 379.859C666.447 379.699 666.763 379.575 667.115 379.487C667.475 379.391 667.831 379.343 668.183 379.343ZM667.787 384.647C668.267 384.647 668.659 384.487 668.963 384.167C669.275 383.839 669.431 383.419 669.431 382.907V382.559H669.215C668.511 382.559 667.975 382.591 667.607 382.655C667.239 382.711 666.975 382.811 666.815 382.955C666.663 383.091 666.587 383.295 666.587 383.567C666.587 383.879 666.699 384.139 666.923 384.347C667.155 384.547 667.443 384.647 667.787 384.647Z" fill="#414141"/>
<path d="M658.06 359.5L650.195 370.534" stroke="#5DE20A" stroke-width="2" stroke-linecap="round"/>
<path d="M645.326 365.5L650.196 371.017" stroke="#5DE20A" stroke-width="2" stroke-linecap="round"/>
<path d="M736.086 377H724.913V353H740.128C740.425 353.081 740.716 353.185 741 353.31C742.772 354.183 744.197 355.7 745.022 357.591C746.067 359.842 746.6 362.326 746.577 364.839C746.6 367.353 746.067 369.837 745.022 372.089C744.197 373.98 742.772 375.496 741 376.37C740.258 376.684 739.476 376.872 738.68 376.928C737.949 376.994 737.217 376.999 736.485 376.999L736.086 377Z" fill="#FFDD6A"/>
<path d="M729.377 362.999L734.731 369.065" stroke="white" stroke-width="3" stroke-linecap="round"/>
<path d="M740.084 362.999L734.731 369.065" stroke="white" stroke-width="3" stroke-linecap="round"/>
<path d="M749.211 389.457V447.226H16.7668V389.457H749.211Z" fill="white"/>
<path d="M44.1241 430.306C51.4347 430.306 57.3612 423.969 57.3612 416.153C57.3612 408.337 51.4347 402 44.1241 402C36.8134 402 30.887 408.337 30.887 416.153C30.887 423.969 36.8134 430.306 44.1241 430.306Z" fill="#FFDD6A"/>
<path d="M50.1556 416.172V422.387H38.3766V409.956H42.5995C42.6412 409.344 42.7777 408.744 43.0035 408.18H36.6931V424.162H51.8382V417.947L50.1556 416.172ZM48.8939 420.611H39.6346L41.9485 417.477L43.5974 419.577L45.9113 416.434L48.8939 420.611ZM51.2499 412.522C51.6316 411.891 51.8358 411.157 51.8382 410.405C51.8535 409.5 51.5861 408.615 51.0783 407.891C50.5705 407.167 49.8513 406.644 49.0345 406.406C48.2177 406.168 47.3499 406.228 46.5685 406.576C45.7871 406.924 45.1366 407.542 44.7201 408.33C44.3035 409.118 44.1445 410.032 44.2684 410.927C44.3923 411.823 44.792 412.648 45.4041 413.274C46.0162 413.899 46.8059 414.288 47.6482 414.38C48.4905 414.471 49.3373 414.26 50.0546 413.779L52.68 416.549L53.8743 415.288L51.2499 412.522ZM48.0531 412.622C47.6435 412.617 47.2445 412.482 46.9065 412.234C46.5684 411.987 46.3064 411.638 46.1533 411.232C46.0003 410.826 45.963 410.38 46.0463 409.951C46.1296 409.522 46.3297 409.129 46.6213 408.822C46.913 408.514 47.2833 408.306 47.6855 408.223C48.0877 408.14 48.5039 408.186 48.8818 408.355C49.2596 408.524 49.5821 408.809 49.8088 409.174C50.0355 409.539 50.1562 409.967 50.1556 410.405C50.1507 410.997 49.9265 411.562 49.5322 411.978C49.1378 412.393 48.6056 412.624 48.0522 412.62L48.0531 412.622Z" fill="white"/>
<path d="M69.8256 420.112C68.8923 420.112 68.085 419.911 67.4036 419.51C66.7223 419.099 66.195 418.516 65.8216 417.76C65.4576 416.995 65.2756 416.094 65.2756 415.058C65.2756 414.031 65.4576 413.14 65.8216 412.384C66.195 411.619 66.7223 411.035 67.4036 410.634C68.085 410.223 68.8923 410.018 69.8256 410.018C70.451 410.018 71.039 410.121 71.5896 410.326C72.1496 410.522 72.635 410.807 73.0456 411.18C73.195 411.32 73.2696 411.483 73.2696 411.67C73.2696 411.801 73.2323 411.917 73.1576 412.02C73.083 412.113 72.9943 412.16 72.8916 412.16C72.7796 412.16 72.6443 412.109 72.4856 412.006C72.0096 411.633 71.5756 411.371 71.1836 411.222C70.801 411.073 70.3576 410.998 69.8536 410.998C68.771 410.998 67.9356 411.353 67.3476 412.062C66.769 412.762 66.4796 413.761 66.4796 415.058C66.4796 416.365 66.769 417.373 67.3476 418.082C67.9356 418.782 68.771 419.132 69.8536 419.132C70.3483 419.132 70.7916 419.057 71.1836 418.908C71.5756 418.759 72.0096 418.497 72.4856 418.124C72.6443 418.021 72.7796 417.97 72.8916 417.97C72.9943 417.97 73.083 418.017 73.1576 418.11C73.2323 418.203 73.2696 418.32 73.2696 418.46C73.2696 418.647 73.195 418.81 73.0456 418.95C72.635 419.323 72.1496 419.613 71.5896 419.818C71.039 420.014 70.451 420.112 69.8256 420.112ZM78.3202 413.042C78.7122 413.014 78.9082 413.173 78.9082 413.518C78.9082 413.667 78.8662 413.789 78.7822 413.882C78.6982 413.966 78.5536 414.017 78.3482 414.036L77.9282 414.078C77.3029 414.134 76.8362 414.358 76.5282 414.75C76.2296 415.133 76.0802 415.585 76.0802 416.108V419.51C76.0802 419.697 76.0289 419.837 75.9262 419.93C75.8236 420.023 75.6882 420.07 75.5202 420.07C75.3522 420.07 75.2122 420.023 75.1002 419.93C74.9976 419.827 74.9462 419.687 74.9462 419.51V413.602C74.9462 413.425 75.0022 413.289 75.1142 413.196C75.2262 413.093 75.3616 413.042 75.5202 413.042C75.6696 413.042 75.7956 413.093 75.8982 413.196C76.0009 413.289 76.0522 413.42 76.0522 413.588V414.372C76.2482 413.961 76.5236 413.649 76.8782 413.434C77.2422 413.219 77.6576 413.093 78.1242 413.056L78.3202 413.042ZM85.0231 418.418C85.1257 418.418 85.2144 418.46 85.2891 418.544C85.3637 418.628 85.4011 418.735 85.4011 418.866C85.4011 419.099 85.2377 419.314 84.9111 419.51C84.5751 419.706 84.2204 419.855 83.8471 419.958C83.4737 420.051 83.1097 420.098 82.7551 420.098C81.7004 420.098 80.8651 419.785 80.2491 419.16C79.6424 418.535 79.3391 417.671 79.3391 416.57C79.3391 415.87 79.4744 415.254 79.7451 414.722C80.0157 414.181 80.3937 413.761 80.8791 413.462C81.3737 413.163 81.9337 413.014 82.5591 413.014C83.4457 413.014 84.1504 413.303 84.6731 413.882C85.1957 414.461 85.4571 415.245 85.4571 416.234C85.4571 416.421 85.4197 416.556 85.3451 416.64C85.2704 416.724 85.1491 416.766 84.9811 416.766H80.4731C80.5571 418.371 81.3177 419.174 82.7551 419.174C83.1191 419.174 83.4317 419.127 83.6931 419.034C83.9544 418.931 84.2344 418.796 84.5331 418.628C84.7757 418.488 84.9391 418.418 85.0231 418.418ZM82.5731 413.896C81.9757 413.896 81.4951 414.083 81.1311 414.456C80.7764 414.829 80.5664 415.357 80.5011 416.038H84.4631C84.4444 415.347 84.2717 414.82 83.9451 414.456C83.6184 414.083 83.1611 413.896 82.5731 413.896ZM89.9139 413.014C91.6219 413.014 92.4759 413.91 92.4759 415.702V419.51C92.4759 419.678 92.4245 419.813 92.3219 419.916C92.2285 420.019 92.0979 420.07 91.9299 420.07C91.7619 420.07 91.6265 420.019 91.5239 419.916C91.4212 419.813 91.3699 419.678 91.3699 419.51V418.838C91.1925 419.239 90.9219 419.552 90.5579 419.776C90.1939 419.991 89.7739 420.098 89.2979 420.098C88.8592 420.098 88.4532 420.009 88.0799 419.832C87.7159 419.655 87.4265 419.407 87.2119 419.09C86.9972 418.773 86.8899 418.423 86.8899 418.04C86.8899 417.527 87.0205 417.13 87.2819 416.85C87.5432 416.561 87.9725 416.355 88.5699 416.234C89.1672 416.103 89.9979 416.038 91.0619 416.038H91.3699V415.576C91.3699 415.016 91.2532 414.605 91.0199 414.344C90.7959 414.083 90.4272 413.952 89.9139 413.952C89.2792 413.952 88.6352 414.125 87.9819 414.47C87.7299 414.629 87.5525 414.708 87.4499 414.708C87.3379 414.708 87.2445 414.666 87.1699 414.582C87.0952 414.498 87.0579 414.391 87.0579 414.26C87.0579 414.129 87.0952 414.017 87.1699 413.924C87.2539 413.821 87.3845 413.719 87.5619 413.616C87.8885 413.429 88.2572 413.285 88.6679 413.182C89.0879 413.07 89.5032 413.014 89.9139 413.014ZM89.4519 419.202C90.0119 419.202 90.4692 419.015 90.8239 418.642C91.1879 418.259 91.3699 417.769 91.3699 417.172V416.766H91.1179C90.2965 416.766 89.6712 416.803 89.2419 416.878C88.8125 416.943 88.5045 417.06 88.3179 417.228C88.1405 417.387 88.0519 417.625 88.0519 417.942C88.0519 418.306 88.1825 418.609 88.4439 418.852C88.7145 419.085 89.0505 419.202 89.4519 419.202ZM97.7017 419.174C98.0284 419.202 98.1917 419.351 98.1917 419.622C98.1917 419.781 98.131 419.902 98.0097 419.986C97.8977 420.061 97.725 420.089 97.4917 420.07L97.1137 420.042C96.367 419.986 95.8164 419.762 95.4617 419.37C95.107 418.978 94.9297 418.385 94.9297 417.592V414.078H93.9917C93.833 414.078 93.707 414.041 93.6137 413.966C93.5297 413.882 93.4877 413.775 93.4877 413.644C93.4877 413.504 93.5297 413.392 93.6137 413.308C93.707 413.224 93.833 413.182 93.9917 413.182H94.9297V411.6C94.9297 411.423 94.981 411.287 95.0837 411.194C95.1864 411.091 95.3264 411.04 95.5037 411.04C95.6717 411.04 95.807 411.091 95.9097 411.194C96.0124 411.287 96.0637 411.423 96.0637 411.6V413.182H97.6177C97.767 413.182 97.8837 413.224 97.9677 413.308C98.061 413.392 98.1077 413.504 98.1077 413.644C98.1077 413.775 98.061 413.882 97.9677 413.966C97.8837 414.041 97.767 414.078 97.6177 414.078H96.0637V417.648C96.0637 418.161 96.1664 418.535 96.3717 418.768C96.5864 418.992 96.9037 419.118 97.3237 419.146L97.7017 419.174ZM99.8835 420.07C99.7155 420.07 99.5755 420.023 99.4635 419.93C99.3609 419.827 99.3095 419.687 99.3095 419.51V413.602C99.3095 413.425 99.3609 413.289 99.4635 413.196C99.5755 413.093 99.7155 413.042 99.8835 413.042C100.052 413.042 100.187 413.093 100.29 413.196C100.392 413.289 100.444 413.425 100.444 413.602V419.51C100.444 419.697 100.392 419.837 100.29 419.93C100.187 420.023 100.052 420.07 99.8835 420.07ZM99.8835 411.572C99.6595 411.572 99.4775 411.507 99.3375 411.376C99.1975 411.245 99.1275 411.073 99.1275 410.858C99.1275 410.653 99.1975 410.485 99.3375 410.354C99.4775 410.223 99.6595 410.158 99.8835 410.158C100.108 410.158 100.29 410.223 100.43 410.354C100.57 410.485 100.64 410.653 100.64 410.858C100.64 411.073 100.57 411.245 100.43 411.376C100.29 411.507 100.108 411.572 99.8835 411.572ZM107.477 413.392C107.58 413.168 107.743 413.056 107.967 413.056C108.107 413.056 108.233 413.103 108.345 413.196C108.457 413.289 108.513 413.406 108.513 413.546C108.513 413.63 108.495 413.705 108.457 413.77L105.727 419.65C105.671 419.771 105.587 419.869 105.475 419.944C105.363 420.009 105.242 420.042 105.111 420.042C104.99 420.042 104.873 420.009 104.761 419.944C104.649 419.869 104.561 419.771 104.495 419.65L101.779 413.77C101.742 413.705 101.723 413.635 101.723 413.56C101.723 413.42 101.784 413.299 101.905 413.196C102.036 413.093 102.176 413.042 102.325 413.042C102.419 413.042 102.507 413.07 102.591 413.126C102.685 413.182 102.755 413.261 102.801 413.364L105.139 418.614L107.477 413.392ZM110.329 420.07C110.161 420.07 110.021 420.023 109.909 419.93C109.806 419.827 109.755 419.687 109.755 419.51V413.602C109.755 413.425 109.806 413.289 109.909 413.196C110.021 413.093 110.161 413.042 110.329 413.042C110.497 413.042 110.632 413.093 110.735 413.196C110.838 413.289 110.889 413.425 110.889 413.602V419.51C110.889 419.697 110.838 419.837 110.735 419.93C110.632 420.023 110.497 420.07 110.329 420.07ZM110.329 411.572C110.105 411.572 109.923 411.507 109.783 411.376C109.643 411.245 109.573 411.073 109.573 410.858C109.573 410.653 109.643 410.485 109.783 410.354C109.923 410.223 110.105 410.158 110.329 410.158C110.553 410.158 110.735 410.223 110.875 410.354C111.015 410.485 111.085 410.653 111.085 410.858C111.085 411.073 111.015 411.245 110.875 411.376C110.735 411.507 110.553 411.572 110.329 411.572ZM118.483 410.06C118.66 410.06 118.8 410.111 118.903 410.214C119.005 410.317 119.057 410.447 119.057 410.606V419.51C119.057 419.678 119.005 419.813 118.903 419.916C118.8 420.019 118.66 420.07 118.483 420.07C118.305 420.07 118.165 420.019 118.063 419.916C117.969 419.813 117.923 419.678 117.923 419.51V418.754C117.717 419.183 117.414 419.515 117.013 419.748C116.621 419.981 116.159 420.098 115.627 420.098C115.029 420.098 114.502 419.949 114.045 419.65C113.587 419.351 113.233 418.936 112.981 418.404C112.729 417.863 112.603 417.237 112.603 416.528C112.603 415.828 112.729 415.212 112.981 414.68C113.233 414.148 113.587 413.737 114.045 413.448C114.502 413.159 115.029 413.014 115.627 413.014C116.159 413.014 116.621 413.131 117.013 413.364C117.414 413.597 117.717 413.929 117.923 414.358V410.606C117.923 410.438 117.969 410.307 118.063 410.214C118.165 410.111 118.305 410.06 118.483 410.06ZM115.851 419.16C116.513 419.16 117.022 418.936 117.377 418.488C117.741 418.031 117.923 417.387 117.923 416.556C117.923 415.725 117.741 415.086 117.377 414.638C117.022 414.19 116.513 413.966 115.851 413.966C115.188 413.966 114.67 414.19 114.297 414.638C113.933 415.086 113.751 415.716 113.751 416.528C113.751 417.359 113.933 418.007 114.297 418.474C114.67 418.931 115.188 419.16 115.851 419.16ZM123.943 413.014C125.651 413.014 126.505 413.91 126.505 415.702V419.51C126.505 419.678 126.454 419.813 126.351 419.916C126.258 420.019 126.127 420.07 125.959 420.07C125.791 420.07 125.656 420.019 125.553 419.916C125.451 419.813 125.399 419.678 125.399 419.51V418.838C125.222 419.239 124.951 419.552 124.587 419.776C124.223 419.991 123.803 420.098 123.327 420.098C122.889 420.098 122.483 420.009 122.109 419.832C121.745 419.655 121.456 419.407 121.241 419.09C121.027 418.773 120.919 418.423 120.919 418.04C120.919 417.527 121.05 417.13 121.311 416.85C121.573 416.561 122.002 416.355 122.599 416.234C123.197 416.103 124.027 416.038 125.091 416.038H125.399V415.576C125.399 415.016 125.283 414.605 125.049 414.344C124.825 414.083 124.457 413.952 123.943 413.952C123.309 413.952 122.665 414.125 122.011 414.47C121.759 414.629 121.582 414.708 121.479 414.708C121.367 414.708 121.274 414.666 121.199 414.582C121.125 414.498 121.087 414.391 121.087 414.26C121.087 414.129 121.125 414.017 121.199 413.924C121.283 413.821 121.414 413.719 121.591 413.616C121.918 413.429 122.287 413.285 122.697 413.182C123.117 413.07 123.533 413.014 123.943 413.014ZM123.481 419.202C124.041 419.202 124.499 419.015 124.853 418.642C125.217 418.259 125.399 417.769 125.399 417.172V416.766H125.147C124.326 416.766 123.701 416.803 123.271 416.878C122.842 416.943 122.534 417.06 122.347 417.228C122.17 417.387 122.081 417.625 122.081 417.942C122.081 418.306 122.212 418.609 122.473 418.852C122.744 419.085 123.08 419.202 123.481 419.202ZM134.055 410.06C134.232 410.06 134.372 410.111 134.475 410.214C134.578 410.317 134.629 410.447 134.629 410.606V419.51C134.629 419.678 134.578 419.813 134.475 419.916C134.372 420.019 134.232 420.07 134.055 420.07C133.878 420.07 133.738 420.019 133.635 419.916C133.542 419.813 133.495 419.678 133.495 419.51V418.754C133.29 419.183 132.986 419.515 132.585 419.748C132.193 419.981 131.731 420.098 131.199 420.098C130.602 420.098 130.074 419.949 129.617 419.65C129.16 419.351 128.805 418.936 128.553 418.404C128.301 417.863 128.175 417.237 128.175 416.528C128.175 415.828 128.301 415.212 128.553 414.68C128.805 414.148 129.16 413.737 129.617 413.448C130.074 413.159 130.602 413.014 131.199 413.014C131.731 413.014 132.193 413.131 132.585 413.364C132.986 413.597 133.29 413.929 133.495 414.358V410.606C133.495 410.438 133.542 410.307 133.635 410.214C133.738 410.111 133.878 410.06 134.055 410.06ZM131.423 419.16C132.086 419.16 132.594 418.936 132.949 418.488C133.313 418.031 133.495 417.387 133.495 416.556C133.495 415.725 133.313 415.086 132.949 414.638C132.594 414.19 132.086 413.966 131.423 413.966C130.76 413.966 130.242 414.19 129.869 414.638C129.505 415.086 129.323 415.716 129.323 416.528C129.323 417.359 129.505 418.007 129.869 418.474C130.242 418.931 130.76 419.16 131.423 419.16ZM142.007 418.418C142.11 418.418 142.199 418.46 142.273 418.544C142.348 418.628 142.385 418.735 142.385 418.866C142.385 419.099 142.222 419.314 141.895 419.51C141.559 419.706 141.205 419.855 140.831 419.958C140.458 420.051 140.094 420.098 139.739 420.098C138.685 420.098 137.849 419.785 137.233 419.16C136.627 418.535 136.323 417.671 136.323 416.57C136.323 415.87 136.459 415.254 136.729 414.722C137 414.181 137.378 413.761 137.863 413.462C138.358 413.163 138.918 413.014 139.543 413.014C140.43 413.014 141.135 413.303 141.657 413.882C142.18 414.461 142.441 415.245 142.441 416.234C142.441 416.421 142.404 416.556 142.329 416.64C142.255 416.724 142.133 416.766 141.965 416.766H137.457C137.541 418.371 138.302 419.174 139.739 419.174C140.103 419.174 140.416 419.127 140.677 419.034C140.939 418.931 141.219 418.796 141.517 418.628C141.76 418.488 141.923 418.418 142.007 418.418ZM139.557 413.896C138.96 413.896 138.479 414.083 138.115 414.456C137.761 414.829 137.551 415.357 137.485 416.038H141.447C141.429 415.347 141.256 414.82 140.929 414.456C140.603 414.083 140.145 413.896 139.557 413.896ZM67.7676 439.098C67.3383 439.098 66.9276 439.047 66.5356 438.944C66.153 438.841 65.8123 438.697 65.5136 438.51C65.3456 438.398 65.2243 438.295 65.1496 438.202C65.0843 438.099 65.0516 437.978 65.0516 437.838C65.0516 437.717 65.0843 437.619 65.1496 437.544C65.2243 437.46 65.3176 437.418 65.4296 437.418C65.5416 437.418 65.705 437.488 65.9196 437.628C66.1996 437.796 66.475 437.931 66.7456 438.034C67.0256 438.127 67.371 438.174 67.7816 438.174C68.2856 438.174 68.6776 438.085 68.9576 437.908C69.2376 437.731 69.3776 437.474 69.3776 437.138C69.3776 436.933 69.3263 436.769 69.2236 436.648C69.121 436.517 68.9436 436.405 68.6916 436.312C68.4396 436.209 68.071 436.107 67.5856 436.004C66.7643 435.827 66.1763 435.589 65.8216 435.29C65.467 434.991 65.2896 434.585 65.2896 434.072C65.2896 433.671 65.4016 433.316 65.6256 433.008C65.8496 432.7 66.1576 432.457 66.5496 432.28C66.951 432.103 67.4036 432.014 67.9076 432.014C68.2716 432.014 68.6216 432.065 68.9576 432.168C69.303 432.261 69.6063 432.397 69.8676 432.574C70.185 432.798 70.3436 433.031 70.3436 433.274C70.3436 433.395 70.3063 433.498 70.2316 433.582C70.157 433.666 70.0683 433.708 69.9656 433.708C69.8536 433.708 69.6856 433.629 69.4616 433.47C69.2003 433.302 68.953 433.171 68.7196 433.078C68.4863 432.985 68.197 432.938 67.8516 432.938C67.413 432.938 67.0583 433.036 66.7876 433.232C66.5263 433.428 66.3956 433.689 66.3956 434.016C66.3956 434.221 66.4423 434.389 66.5356 434.52C66.6383 434.641 66.8016 434.753 67.0256 434.856C67.259 434.949 67.5903 435.043 68.0196 435.136C68.6543 435.276 69.1443 435.43 69.4896 435.598C69.8443 435.766 70.0963 435.971 70.2456 436.214C70.395 436.457 70.4696 436.765 70.4696 437.138C70.4696 437.726 70.2223 438.202 69.7276 438.566C69.233 438.921 68.5796 439.098 67.7676 439.098Z" fill="#414141"/>
<path d="M64.863 428.489L153.553 428.5" stroke="#FFDD6A" stroke-width="2"/>
<path d="M191.5 430.306C198.81 430.306 204.737 423.969 204.737 416.153C204.737 408.337 198.81 402 191.5 402C184.189 402 178.263 408.337 178.263 416.153C178.263 423.969 184.189 430.306 191.5 430.306Z" fill="#FFDD6A"/>
<path d="M197.532 416.172V422.387H185.753V409.956H189.975C190.017 409.344 190.154 408.744 190.379 408.18H184.069V424.162H199.214V417.947L197.532 416.172ZM196.27 420.611H187.011L189.324 417.477L190.973 419.577L193.287 416.434L196.27 420.611ZM198.626 412.522C199.008 411.891 199.212 411.157 199.214 410.405C199.229 409.5 198.962 408.615 198.454 407.891C197.946 407.167 197.227 406.644 196.41 406.406C195.594 406.168 194.726 406.228 193.944 406.576C193.163 406.924 192.513 407.542 192.096 408.33C191.679 409.118 191.521 410.032 191.644 410.927C191.768 411.823 192.168 412.648 192.78 413.274C193.392 413.899 194.182 414.288 195.024 414.38C195.866 414.471 196.713 414.26 197.431 413.779L200.056 416.549L201.25 415.288L198.626 412.522ZM195.429 412.622C195.019 412.617 194.621 412.482 194.282 412.234C193.944 411.987 193.682 411.638 193.529 411.232C193.376 410.826 193.339 410.38 193.422 409.951C193.506 409.522 193.706 409.129 193.997 408.822C194.289 408.514 194.659 408.306 195.061 408.223C195.464 408.14 195.88 408.186 196.258 408.355C196.636 408.524 196.958 408.809 197.185 409.174C197.411 409.539 197.532 409.967 197.532 410.405C197.527 410.997 197.302 411.562 196.908 411.978C196.514 412.393 195.982 412.624 195.428 412.62L195.429 412.622Z" fill="white"/>
<path d="M214.486 420C214.308 420 214.164 419.949 214.052 419.846C213.949 419.743 213.898 419.608 213.898 419.44V410.69C213.898 410.522 213.949 410.387 214.052 410.284C214.164 410.181 214.308 410.13 214.486 410.13H219.722C219.89 410.13 220.02 410.172 220.114 410.256C220.207 410.34 220.254 410.457 220.254 410.606C220.254 410.755 220.207 410.872 220.114 410.956C220.02 411.04 219.89 411.082 219.722 411.082H215.032V414.512H219.442C219.61 414.512 219.74 414.554 219.834 414.638C219.927 414.722 219.974 414.839 219.974 414.988C219.974 415.137 219.927 415.254 219.834 415.338C219.74 415.422 219.61 415.464 219.442 415.464H215.032V419.048H219.722C219.89 419.048 220.02 419.09 220.114 419.174C220.207 419.249 220.254 419.365 220.254 419.524C220.254 419.673 220.207 419.79 220.114 419.874C220.02 419.958 219.89 420 219.722 420H214.486ZM224.174 420.098C223.745 420.098 223.334 420.047 222.942 419.944C222.559 419.841 222.219 419.697 221.92 419.51C221.752 419.398 221.631 419.295 221.556 419.202C221.491 419.099 221.458 418.978 221.458 418.838C221.458 418.717 221.491 418.619 221.556 418.544C221.631 418.46 221.724 418.418 221.836 418.418C221.948 418.418 222.111 418.488 222.326 418.628C222.606 418.796 222.881 418.931 223.152 419.034C223.432 419.127 223.777 419.174 224.188 419.174C224.692 419.174 225.084 419.085 225.364 418.908C225.644 418.731 225.784 418.474 225.784 418.138C225.784 417.933 225.733 417.769 225.63 417.648C225.527 417.517 225.35 417.405 225.098 417.312C224.846 417.209 224.477 417.107 223.992 417.004C223.171 416.827 222.583 416.589 222.228 416.29C221.873 415.991 221.696 415.585 221.696 415.072C221.696 414.671 221.808 414.316 222.032 414.008C222.256 413.7 222.564 413.457 222.956 413.28C223.357 413.103 223.81 413.014 224.314 413.014C224.678 413.014 225.028 413.065 225.364 413.168C225.709 413.261 226.013 413.397 226.274 413.574C226.591 413.798 226.75 414.031 226.75 414.274C226.75 414.395 226.713 414.498 226.638 414.582C226.563 414.666 226.475 414.708 226.372 414.708C226.26 414.708 226.092 414.629 225.868 414.47C225.607 414.302 225.359 414.171 225.126 414.078C224.893 413.985 224.603 413.938 224.258 413.938C223.819 413.938 223.465 414.036 223.194 414.232C222.933 414.428 222.802 414.689 222.802 415.016C222.802 415.221 222.849 415.389 222.942 415.52C223.045 415.641 223.208 415.753 223.432 415.856C223.665 415.949 223.997 416.043 224.426 416.136C225.061 416.276 225.551 416.43 225.896 416.598C226.251 416.766 226.503 416.971 226.652 417.214C226.801 417.457 226.876 417.765 226.876 418.138C226.876 418.726 226.629 419.202 226.134 419.566C225.639 419.921 224.986 420.098 224.174 420.098ZM231.686 419.174C232.013 419.202 232.176 419.351 232.176 419.622C232.176 419.781 232.116 419.902 231.994 419.986C231.882 420.061 231.71 420.089 231.476 420.07L231.098 420.042C230.352 419.986 229.801 419.762 229.446 419.37C229.092 418.978 228.914 418.385 228.914 417.592V414.078H227.976C227.818 414.078 227.692 414.041 227.598 413.966C227.514 413.882 227.472 413.775 227.472 413.644C227.472 413.504 227.514 413.392 227.598 413.308C227.692 413.224 227.818 413.182 227.976 413.182H228.914V411.6C228.914 411.423 228.966 411.287 229.068 411.194C229.171 411.091 229.311 411.04 229.488 411.04C229.656 411.04 229.792 411.091 229.894 411.194C229.997 411.287 230.048 411.423 230.048 411.6V413.182H231.602C231.752 413.182 231.868 413.224 231.952 413.308C232.046 413.392 232.092 413.504 232.092 413.644C232.092 413.775 232.046 413.882 231.952 413.966C231.868 414.041 231.752 414.078 231.602 414.078H230.048V417.648C230.048 418.161 230.151 418.535 230.356 418.768C230.571 418.992 230.888 419.118 231.308 419.146L231.686 419.174ZM236.08 413.014C237.788 413.014 238.642 413.91 238.642 415.702V419.51C238.642 419.678 238.591 419.813 238.488 419.916C238.395 420.019 238.264 420.07 238.096 420.07C237.928 420.07 237.793 420.019 237.69 419.916C237.587 419.813 237.536 419.678 237.536 419.51V418.838C237.359 419.239 237.088 419.552 236.724 419.776C236.36 419.991 235.94 420.098 235.464 420.098C235.025 420.098 234.619 420.009 234.246 419.832C233.882 419.655 233.593 419.407 233.378 419.09C233.163 418.773 233.056 418.423 233.056 418.04C233.056 417.527 233.187 417.13 233.448 416.85C233.709 416.561 234.139 416.355 234.736 416.234C235.333 416.103 236.164 416.038 237.228 416.038H237.536V415.576C237.536 415.016 237.419 414.605 237.186 414.344C236.962 414.083 236.593 413.952 236.08 413.952C235.445 413.952 234.801 414.125 234.148 414.47C233.896 414.629 233.719 414.708 233.616 414.708C233.504 414.708 233.411 414.666 233.336 414.582C233.261 414.498 233.224 414.391 233.224 414.26C233.224 414.129 233.261 414.017 233.336 413.924C233.42 413.821 233.551 413.719 233.728 413.616C234.055 413.429 234.423 413.285 234.834 413.182C235.254 413.07 235.669 413.014 236.08 413.014ZM235.618 419.202C236.178 419.202 236.635 419.015 236.99 418.642C237.354 418.259 237.536 417.769 237.536 417.172V416.766H237.284C236.463 416.766 235.837 416.803 235.408 416.878C234.979 416.943 234.671 417.06 234.484 417.228C234.307 417.387 234.218 417.625 234.218 417.942C234.218 418.306 234.349 418.609 234.61 418.852C234.881 419.085 235.217 419.202 235.618 419.202ZM246.192 410.06C246.369 410.06 246.509 410.111 246.612 410.214C246.715 410.317 246.766 410.447 246.766 410.606V419.51C246.766 419.678 246.715 419.813 246.612 419.916C246.509 420.019 246.369 420.07 246.192 420.07C246.015 420.07 245.875 420.019 245.772 419.916C245.679 419.813 245.632 419.678 245.632 419.51V418.754C245.427 419.183 245.123 419.515 244.722 419.748C244.33 419.981 243.868 420.098 243.336 420.098C242.739 420.098 242.211 419.949 241.754 419.65C241.297 419.351 240.942 418.936 240.69 418.404C240.438 417.863 240.312 417.237 240.312 416.528C240.312 415.828 240.438 415.212 240.69 414.68C240.942 414.148 241.297 413.737 241.754 413.448C242.211 413.159 242.739 413.014 243.336 413.014C243.868 413.014 244.33 413.131 244.722 413.364C245.123 413.597 245.427 413.929 245.632 414.358V410.606C245.632 410.438 245.679 410.307 245.772 410.214C245.875 410.111 246.015 410.06 246.192 410.06ZM243.56 419.16C244.223 419.16 244.731 418.936 245.086 418.488C245.45 418.031 245.632 417.387 245.632 416.556C245.632 415.725 245.45 415.086 245.086 414.638C244.731 414.19 244.223 413.966 243.56 413.966C242.897 413.966 242.379 414.19 242.006 414.638C241.642 415.086 241.46 415.716 241.46 416.528C241.46 417.359 241.642 418.007 242.006 418.474C242.379 418.931 242.897 419.16 243.56 419.16ZM249.44 420.07C249.272 420.07 249.132 420.023 249.02 419.93C248.918 419.827 248.866 419.687 248.866 419.51V413.602C248.866 413.425 248.918 413.289 249.02 413.196C249.132 413.093 249.272 413.042 249.44 413.042C249.608 413.042 249.744 413.093 249.846 413.196C249.949 413.289 250 413.425 250 413.602V419.51C250 419.697 249.949 419.837 249.846 419.93C249.744 420.023 249.608 420.07 249.44 420.07ZM249.692 412.272C249.618 412.328 249.543 412.356 249.468 412.356C249.375 412.356 249.296 412.328 249.23 412.272C249.165 412.207 249.132 412.132 249.132 412.048C249.132 411.973 249.16 411.903 249.216 411.838L250.84 409.71C251.008 409.495 251.2 409.388 251.414 409.388C251.564 409.388 251.69 409.439 251.792 409.542C251.895 409.635 251.946 409.757 251.946 409.906C251.946 410.102 251.853 410.279 251.666 410.438L249.692 412.272ZM254.416 420.098C253.987 420.098 253.576 420.047 253.184 419.944C252.802 419.841 252.461 419.697 252.162 419.51C251.994 419.398 251.873 419.295 251.798 419.202C251.733 419.099 251.7 418.978 251.7 418.838C251.7 418.717 251.733 418.619 251.798 418.544C251.873 418.46 251.966 418.418 252.078 418.418C252.19 418.418 252.354 418.488 252.568 418.628C252.848 418.796 253.124 418.931 253.394 419.034C253.674 419.127 254.02 419.174 254.43 419.174C254.934 419.174 255.326 419.085 255.606 418.908C255.886 418.731 256.026 418.474 256.026 418.138C256.026 417.933 255.975 417.769 255.872 417.648C255.77 417.517 255.592 417.405 255.34 417.312C255.088 417.209 254.72 417.107 254.234 417.004C253.413 416.827 252.825 416.589 252.47 416.29C252.116 415.991 251.938 415.585 251.938 415.072C251.938 414.671 252.05 414.316 252.274 414.008C252.498 413.7 252.806 413.457 253.198 413.28C253.6 413.103 254.052 413.014 254.556 413.014C254.92 413.014 255.27 413.065 255.606 413.168C255.952 413.261 256.255 413.397 256.516 413.574C256.834 413.798 256.992 414.031 256.992 414.274C256.992 414.395 256.955 414.498 256.88 414.582C256.806 414.666 256.717 414.708 256.614 414.708C256.502 414.708 256.334 414.629 256.11 414.47C255.849 414.302 255.602 414.171 255.368 414.078C255.135 413.985 254.846 413.938 254.5 413.938C254.062 413.938 253.707 414.036 253.436 414.232C253.175 414.428 253.044 414.689 253.044 415.016C253.044 415.221 253.091 415.389 253.184 415.52C253.287 415.641 253.45 415.753 253.674 415.856C253.908 415.949 254.239 416.043 254.668 416.136C255.303 416.276 255.793 416.43 256.138 416.598C256.493 416.766 256.745 416.971 256.894 417.214C257.044 417.457 257.118 417.765 257.118 418.138C257.118 418.726 256.871 419.202 256.376 419.566C255.882 419.921 255.228 420.098 254.416 420.098ZM261.929 419.174C262.255 419.202 262.419 419.351 262.419 419.622C262.419 419.781 262.358 419.902 262.237 419.986C262.125 420.061 261.952 420.089 261.719 420.07L261.341 420.042C260.594 419.986 260.043 419.762 259.689 419.37C259.334 418.978 259.157 418.385 259.157 417.592V414.078H258.219C258.06 414.078 257.934 414.041 257.841 413.966C257.757 413.882 257.715 413.775 257.715 413.644C257.715 413.504 257.757 413.392 257.841 413.308C257.934 413.224 258.06 413.182 258.219 413.182H259.157V411.6C259.157 411.423 259.208 411.287 259.311 411.194C259.413 411.091 259.553 411.04 259.731 411.04C259.899 411.04 260.034 411.091 260.137 411.194C260.239 411.287 260.291 411.423 260.291 411.6V413.182H261.845C261.994 413.182 262.111 413.224 262.195 413.308C262.288 413.392 262.335 413.504 262.335 413.644C262.335 413.775 262.288 413.882 262.195 413.966C262.111 414.041 261.994 414.078 261.845 414.078H260.291V417.648C260.291 418.161 260.393 418.535 260.599 418.768C260.813 418.992 261.131 419.118 261.551 419.146L261.929 419.174ZM264.11 420.07C263.942 420.07 263.802 420.023 263.69 419.93C263.588 419.827 263.536 419.687 263.536 419.51V413.602C263.536 413.425 263.588 413.289 263.69 413.196C263.802 413.093 263.942 413.042 264.11 413.042C264.278 413.042 264.414 413.093 264.516 413.196C264.619 413.289 264.67 413.425 264.67 413.602V419.51C264.67 419.697 264.619 419.837 264.516 419.93C264.414 420.023 264.278 420.07 264.11 420.07ZM264.11 411.572C263.886 411.572 263.704 411.507 263.564 411.376C263.424 411.245 263.354 411.073 263.354 410.858C263.354 410.653 263.424 410.485 263.564 410.354C263.704 410.223 263.886 410.158 264.11 410.158C264.334 410.158 264.516 410.223 264.656 410.354C264.796 410.485 264.866 410.653 264.866 410.858C264.866 411.073 264.796 411.245 264.656 411.376C264.516 411.507 264.334 411.572 264.11 411.572ZM269.604 420.098C268.97 420.098 268.405 419.953 267.91 419.664C267.425 419.375 267.047 418.964 266.776 418.432C266.515 417.9 266.384 417.284 266.384 416.584C266.384 415.884 266.52 415.263 266.79 414.722C267.07 414.181 267.458 413.761 267.952 413.462C268.447 413.163 269.016 413.014 269.66 413.014C270.015 413.014 270.365 413.065 270.71 413.168C271.065 413.261 271.373 413.401 271.634 413.588C271.802 413.7 271.919 413.812 271.984 413.924C272.059 414.027 272.096 414.143 272.096 414.274C272.096 414.405 272.059 414.512 271.984 414.596C271.919 414.68 271.83 414.722 271.718 414.722C271.653 414.722 271.583 414.703 271.508 414.666C271.434 414.629 271.368 414.591 271.312 414.554C271.266 414.517 271.233 414.493 271.214 414.484C270.972 414.325 270.738 414.199 270.514 414.106C270.3 414.013 270.034 413.966 269.716 413.966C269.035 413.966 268.503 414.199 268.12 414.666C267.747 415.123 267.56 415.763 267.56 416.584C267.56 417.405 267.747 418.04 268.12 418.488C268.503 418.936 269.035 419.16 269.716 419.16C270.034 419.16 270.304 419.113 270.528 419.02C270.762 418.927 270.995 418.801 271.228 418.642C271.331 418.577 271.429 418.521 271.522 418.474C271.616 418.427 271.695 418.404 271.76 418.404C271.863 418.404 271.947 418.446 272.012 418.53C272.087 418.614 272.124 418.721 272.124 418.852C272.124 418.973 272.092 419.085 272.026 419.188C271.961 419.281 271.84 419.389 271.662 419.51C271.401 419.687 271.084 419.832 270.71 419.944C270.346 420.047 269.978 420.098 269.604 420.098ZM276.275 413.014C277.983 413.014 278.837 413.91 278.837 415.702V419.51C278.837 419.678 278.786 419.813 278.683 419.916C278.59 420.019 278.459 420.07 278.291 420.07C278.123 420.07 277.988 420.019 277.885 419.916C277.783 419.813 277.731 419.678 277.731 419.51V418.838C277.554 419.239 277.283 419.552 276.919 419.776C276.555 419.991 276.135 420.098 275.659 420.098C275.221 420.098 274.815 420.009 274.441 419.832C274.077 419.655 273.788 419.407 273.573 419.09C273.359 418.773 273.251 418.423 273.251 418.04C273.251 417.527 273.382 417.13 273.643 416.85C273.905 416.561 274.334 416.355 274.931 416.234C275.529 416.103 276.359 416.038 277.423 416.038H277.731V415.576C277.731 415.016 277.615 414.605 277.381 414.344C277.157 414.083 276.789 413.952 276.275 413.952C275.641 413.952 274.997 414.125 274.343 414.47C274.091 414.629 273.914 414.708 273.811 414.708C273.699 414.708 273.606 414.666 273.531 414.582C273.457 414.498 273.419 414.391 273.419 414.26C273.419 414.129 273.457 414.017 273.531 413.924C273.615 413.821 273.746 413.719 273.923 413.616C274.25 413.429 274.619 413.285 275.029 413.182C275.449 413.07 275.865 413.014 276.275 413.014ZM275.813 419.202C276.373 419.202 276.831 419.015 277.185 418.642C277.549 418.259 277.731 417.769 277.731 417.172V416.766H277.479C276.658 416.766 276.033 416.803 275.603 416.878C275.174 416.943 274.866 417.06 274.679 417.228C274.502 417.387 274.413 417.625 274.413 417.942C274.413 418.306 274.544 418.609 274.805 418.852C275.076 419.085 275.412 419.202 275.813 419.202ZM216.026 439.098C215.596 439.098 215.186 439.047 214.794 438.944C214.411 438.841 214.07 438.697 213.772 438.51C213.604 438.398 213.482 438.295 213.408 438.202C213.342 438.099 213.31 437.978 213.31 437.838C213.31 437.717 213.342 437.619 213.408 437.544C213.482 437.46 213.576 437.418 213.688 437.418C213.8 437.418 213.963 437.488 214.178 437.628C214.458 437.796 214.733 437.931 215.004 438.034C215.284 438.127 215.629 438.174 216.04 438.174C216.544 438.174 216.936 438.085 217.216 437.908C217.496 437.731 217.636 437.474 217.636 437.138C217.636 436.933 217.584 436.769 217.482 436.648C217.379 436.517 217.202 436.405 216.95 436.312C216.698 436.209 216.329 436.107 215.844 436.004C215.022 435.827 214.434 435.589 214.08 435.29C213.725 434.991 213.548 434.585 213.548 434.072C213.548 433.671 213.66 433.316 213.884 433.008C214.108 432.7 214.416 432.457 214.808 432.28C215.209 432.103 215.662 432.014 216.166 432.014C216.53 432.014 216.88 432.065 217.216 432.168C217.561 432.261 217.864 432.397 218.126 432.574C218.443 432.798 218.602 433.031 218.602 433.274C218.602 433.395 218.564 433.498 218.49 433.582C218.415 433.666 218.326 433.708 218.224 433.708C218.112 433.708 217.944 433.629 217.72 433.47C217.458 433.302 217.211 433.171 216.978 433.078C216.744 432.985 216.455 432.938 216.11 432.938C215.671 432.938 215.316 433.036 215.046 433.232C214.784 433.428 214.654 433.689 214.654 434.016C214.654 434.221 214.7 434.389 214.794 434.52C214.896 434.641 215.06 434.753 215.284 434.856C215.517 434.949 215.848 435.043 216.278 435.136C216.912 435.276 217.402 435.43 217.748 435.598C218.102 435.766 218.354 435.971 218.504 436.214C218.653 436.457 218.728 436.765 218.728 437.138C218.728 437.726 218.48 438.202 217.986 438.566C217.491 438.921 216.838 439.098 216.026 439.098Z" fill="#414141"/>
<path d="M213.121 428H289.456" stroke="#FFDD6A" stroke-width="2"/>
<g opacity="0.4">
<path opacity="0.4" d="M587.443 404H722.758C730.069 404 735.995 410.716 735.995 419C735.995 427.284 730.068 434 722.758 434H587.443C580.132 434 574.206 427.284 574.206 419C574.206 410.716 580.132 404 587.443 404Z" fill="#FFDD6A"/>
<path opacity="0.4" d="M600.695 420.388C600.751 420.476 600.779 420.568 600.779 420.664C600.779 420.784 600.731 420.884 600.635 420.964C600.547 421.036 600.443 421.072 600.323 421.072C600.139 421.072 599.995 420.992 599.891 420.832L598.283 418.288C598.075 417.96 597.859 417.736 597.635 417.616C597.411 417.488 597.107 417.424 596.723 417.424H595.211V420.556C595.211 420.708 595.167 420.832 595.079 420.928C594.991 421.016 594.875 421.06 594.731 421.06C594.579 421.06 594.459 421.016 594.371 420.928C594.283 420.832 594.239 420.708 594.239 420.556V413.02C594.239 412.876 594.283 412.76 594.371 412.672C594.467 412.584 594.591 412.54 594.743 412.54H597.719C598.639 412.54 599.339 412.744 599.819 413.152C600.307 413.56 600.551 414.16 600.551 414.952C600.551 415.624 600.355 416.164 599.963 416.572C599.579 416.98 599.027 417.228 598.307 417.316C598.507 417.38 598.687 417.484 598.847 417.628C599.007 417.772 599.167 417.972 599.327 418.228L600.695 420.388ZM597.635 416.608C598.291 416.608 598.779 416.472 599.099 416.2C599.427 415.928 599.591 415.516 599.591 414.964C599.591 414.42 599.431 414.016 599.111 413.752C598.791 413.488 598.299 413.356 597.635 413.356H595.211V416.608H597.635ZM606.845 419.644C606.933 419.644 607.009 419.68 607.073 419.752C607.137 419.824 607.169 419.916 607.169 420.028C607.169 420.228 607.029 420.412 606.749 420.58C606.461 420.748 606.157 420.876 605.837 420.964C605.517 421.044 605.205 421.084 604.901 421.084C603.997 421.084 603.281 420.816 602.753 420.28C602.233 419.744 601.973 419.004 601.973 418.06C601.973 417.46 602.089 416.932 602.321 416.476C602.553 416.012 602.877 415.652 603.293 415.396C603.717 415.14 604.197 415.012 604.733 415.012C605.493 415.012 606.097 415.26 606.545 415.756C606.993 416.252 607.217 416.924 607.217 417.772C607.217 417.932 607.185 418.048 607.121 418.12C607.057 418.192 606.953 418.228 606.809 418.228H602.945C603.017 419.604 603.669 420.292 604.901 420.292C605.213 420.292 605.481 420.252 605.705 420.172C605.929 420.084 606.169 419.968 606.425 419.824C606.633 419.704 606.773 419.644 606.845 419.644ZM604.745 415.768C604.233 415.768 603.821 415.928 603.509 416.248C603.205 416.568 603.025 417.02 602.969 417.604H606.365C606.349 417.012 606.201 416.56 605.921 416.248C605.641 415.928 605.249 415.768 604.745 415.768ZM609.141 421.06C608.997 421.06 608.877 421.02 608.781 420.94C608.693 420.852 608.649 420.732 608.649 420.58V412.96C608.649 412.808 608.693 412.692 608.781 412.612C608.877 412.524 608.997 412.48 609.141 412.48C609.277 412.48 609.389 412.524 609.477 412.612C609.573 412.692 609.621 412.808 609.621 412.96V420.58C609.621 420.732 609.573 420.852 609.477 420.94C609.389 421.02 609.277 421.06 609.141 421.06ZM613.826 415.012C615.29 415.012 616.022 415.78 616.022 417.316V420.58C616.022 420.724 615.978 420.84 615.89 420.928C615.81 421.016 615.698 421.06 615.554 421.06C615.41 421.06 615.294 421.016 615.206 420.928C615.118 420.84 615.074 420.724 615.074 420.58V420.004C614.922 420.348 614.69 420.616 614.378 420.808C614.066 420.992 613.706 421.084 613.298 421.084C612.922 421.084 612.574 421.008 612.254 420.856C611.942 420.704 611.694 420.492 611.51 420.22C611.326 419.948 611.234 419.648 611.234 419.32C611.234 418.88 611.346 418.54 611.57 418.3C611.794 418.052 612.162 417.876 612.674 417.772C613.186 417.66 613.898 417.604 614.81 417.604H615.074V417.208C615.074 416.728 614.974 416.376 614.774 416.152C614.582 415.928 614.266 415.816 613.826 415.816C613.282 415.816 612.73 415.964 612.17 416.26C611.954 416.396 611.802 416.464 611.714 416.464C611.618 416.464 611.538 416.428 611.474 416.356C611.41 416.284 611.378 416.192 611.378 416.08C611.378 415.968 611.41 415.872 611.474 415.792C611.546 415.704 611.658 415.616 611.81 415.528C612.09 415.368 612.406 415.244 612.758 415.156C613.118 415.06 613.474 415.012 613.826 415.012ZM613.43 420.316C613.91 420.316 614.302 420.156 614.606 419.836C614.918 419.508 615.074 419.088 615.074 418.576V418.228H614.858C614.154 418.228 613.618 418.26 613.25 418.324C612.882 418.38 612.618 418.48 612.458 418.624C612.306 418.76 612.23 418.964 612.23 419.236C612.23 419.548 612.342 419.808 612.566 420.016C612.798 420.216 613.086 420.316 613.43 420.316ZM620.742 415.012C622.142 415.012 622.842 415.784 622.842 417.328V420.58C622.842 420.732 622.798 420.852 622.71 420.94C622.63 421.02 622.514 421.06 622.362 421.06C622.21 421.06 622.09 421.02 622.002 420.94C621.914 420.852 621.87 420.732 621.87 420.58V417.388C621.87 416.844 621.762 416.448 621.546 416.2C621.338 415.952 621.002 415.828 620.538 415.828C620.002 415.828 619.574 415.992 619.254 416.32C618.934 416.648 618.774 417.092 618.774 417.652V420.58C618.774 420.732 618.73 420.852 618.642 420.94C618.562 421.02 618.446 421.06 618.294 421.06C618.142 421.06 618.022 421.02 617.934 420.94C617.846 420.852 617.802 420.732 617.802 420.58V415.516C617.802 415.372 617.846 415.256 617.934 415.168C618.022 415.08 618.142 415.036 618.294 415.036C618.438 415.036 618.55 415.08 618.63 415.168C618.718 415.256 618.762 415.368 618.762 415.504V416.116C618.954 415.756 619.222 415.484 619.566 415.3C619.91 415.108 620.302 415.012 620.742 415.012ZM628.918 420.232C629.054 420.232 629.158 420.268 629.23 420.34C629.302 420.404 629.338 420.496 629.338 420.616C629.338 420.736 629.302 420.832 629.23 420.904C629.158 420.968 629.054 421 628.918 421H624.718C624.582 421 624.47 420.96 624.382 420.88C624.294 420.792 624.25 420.688 624.25 420.568C624.25 420.44 624.298 420.316 624.394 420.196L627.946 415.924H624.658C624.522 415.924 624.414 415.892 624.334 415.828C624.262 415.756 624.226 415.664 624.226 415.552C624.226 415.432 624.262 415.336 624.334 415.264C624.414 415.192 624.522 415.156 624.658 415.156H628.726C628.87 415.156 628.986 415.2 629.074 415.288C629.162 415.368 629.206 415.468 629.206 415.588C629.206 415.716 629.158 415.84 629.062 415.96L625.498 420.232H628.918ZM632.986 415.012C634.45 415.012 635.182 415.78 635.182 417.316V420.58C635.182 420.724 635.138 420.84 635.05 420.928C634.97 421.016 634.858 421.06 634.714 421.06C634.57 421.06 634.454 421.016 634.366 420.928C634.278 420.84 634.234 420.724 634.234 420.58V420.004C634.082 420.348 633.85 420.616 633.538 420.808C633.226 420.992 632.866 421.084 632.458 421.084C632.082 421.084 631.734 421.008 631.414 420.856C631.102 420.704 630.854 420.492 630.67 420.22C630.486 419.948 630.394 419.648 630.394 419.32C630.394 418.88 630.506 418.54 630.73 418.3C630.954 418.052 631.322 417.876 631.834 417.772C632.346 417.66 633.058 417.604 633.97 417.604H634.234V417.208C634.234 416.728 634.134 416.376 633.934 416.152C633.742 415.928 633.426 415.816 632.986 415.816C632.442 415.816 631.89 415.964 631.33 416.26C631.114 416.396 630.962 416.464 630.874 416.464C630.778 416.464 630.698 416.428 630.634 416.356C630.57 416.284 630.538 416.192 630.538 416.08C630.538 415.968 630.57 415.872 630.634 415.792C630.706 415.704 630.818 415.616 630.97 415.528C631.25 415.368 631.566 415.244 631.918 415.156C632.278 415.06 632.634 415.012 632.986 415.012ZM632.59 420.316C633.07 420.316 633.462 420.156 633.766 419.836C634.078 419.508 634.234 419.088 634.234 418.576V418.228H634.018C633.314 418.228 632.778 418.26 632.41 418.324C632.042 418.38 631.778 418.48 631.618 418.624C631.466 418.76 631.39 418.964 631.39 419.236C631.39 419.548 631.502 419.808 631.726 420.016C631.958 420.216 632.246 420.316 632.59 420.316ZM639.854 415.036C640.19 415.012 640.358 415.148 640.358 415.444C640.358 415.572 640.322 415.676 640.25 415.756C640.178 415.828 640.054 415.872 639.878 415.888L639.518 415.924C638.982 415.972 638.582 416.164 638.318 416.5C638.062 416.828 637.934 417.216 637.934 417.664V420.58C637.934 420.74 637.89 420.86 637.802 420.94C637.714 421.02 637.598 421.06 637.454 421.06C637.31 421.06 637.19 421.02 637.094 420.94C637.006 420.852 636.962 420.732 636.962 420.58V415.516C636.962 415.364 637.01 415.248 637.106 415.168C637.202 415.08 637.318 415.036 637.454 415.036C637.582 415.036 637.69 415.08 637.778 415.168C637.866 415.248 637.91 415.36 637.91 415.504V416.176C638.078 415.824 638.314 415.556 638.618 415.372C638.93 415.188 639.286 415.08 639.686 415.048L639.854 415.036ZM596.507 438.084C595.963 438.084 595.479 437.96 595.055 437.712C594.639 437.464 594.315 437.112 594.083 436.656C593.859 436.2 593.747 435.672 593.747 435.072C593.747 434.472 593.863 433.94 594.095 433.476C594.335 433.012 594.667 432.652 595.091 432.396C595.515 432.14 596.003 432.012 596.555 432.012C596.859 432.012 597.159 432.056 597.455 432.144C597.759 432.224 598.023 432.344 598.247 432.504C598.391 432.6 598.491 432.696 598.547 432.792C598.611 432.88 598.643 432.98 598.643 433.092C598.643 433.204 598.611 433.296 598.547 433.368C598.491 433.44 598.415 433.476 598.319 433.476C598.263 433.476 598.203 433.46 598.139 433.428C598.075 433.396 598.019 433.364 597.971 433.332C597.931 433.3 597.903 433.28 597.887 433.272C597.679 433.136 597.479 433.028 597.287 432.948C597.103 432.868 596.875 432.828 596.603 432.828C596.019 432.828 595.563 433.028 595.235 433.428C594.915 433.82 594.755 434.368 594.755 435.072C594.755 435.776 594.915 436.32 595.235 436.704C595.563 437.088 596.019 437.28 596.603 437.28C596.875 437.28 597.107 437.24 597.299 437.16C597.499 437.08 597.699 436.972 597.899 436.836C597.987 436.78 598.071 436.732 598.151 436.692C598.231 436.652 598.299 436.632 598.355 436.632C598.443 436.632 598.515 436.668 598.571 436.74C598.635 436.812 598.667 436.904 598.667 437.016C598.667 437.12 598.639 437.216 598.583 437.304C598.527 437.384 598.423 437.476 598.271 437.58C598.047 437.732 597.775 437.856 597.455 437.952C597.143 438.04 596.827 438.084 596.507 438.084ZM602.225 432.012C603.689 432.012 604.421 432.78 604.421 434.316V437.58C604.421 437.724 604.377 437.84 604.289 437.928C604.209 438.016 604.097 438.06 603.953 438.06C603.809 438.06 603.693 438.016 603.605 437.928C603.517 437.84 603.473 437.724 603.473 437.58V437.004C603.321 437.348 603.089 437.616 602.777 437.808C602.465 437.992 602.105 438.084 601.697 438.084C601.321 438.084 600.973 438.008 600.653 437.856C600.341 437.704 600.093 437.492 599.909 437.22C599.725 436.948 599.633 436.648 599.633 436.32C599.633 435.88 599.745 435.54 599.969 435.3C600.193 435.052 600.561 434.876 601.073 434.772C601.585 434.66 602.297 434.604 603.209 434.604H603.473V434.208C603.473 433.728 603.373 433.376 603.173 433.152C602.981 432.928 602.665 432.816 602.225 432.816C601.681 432.816 601.129 432.964 600.569 433.26C600.353 433.396 600.201 433.464 600.113 433.464C600.017 433.464 599.937 433.428 599.873 433.356C599.809 433.284 599.777 433.192 599.777 433.08C599.777 432.968 599.809 432.872 599.873 432.792C599.945 432.704 600.057 432.616 600.209 432.528C600.489 432.368 600.805 432.244 601.157 432.156C601.517 432.06 601.873 432.012 602.225 432.012ZM601.829 437.316C602.309 437.316 602.701 437.156 603.005 436.836C603.317 436.508 603.473 436.088 603.473 435.576V435.228H603.257C602.553 435.228 602.017 435.26 601.649 435.324C601.281 435.38 601.017 435.48 600.857 435.624C600.705 435.76 600.629 435.964 600.629 436.236C600.629 436.548 600.741 436.808 600.965 437.016C601.197 437.216 601.485 437.316 601.829 437.316ZM612.704 432.012C614 432.012 614.648 432.784 614.648 434.328V437.58C614.648 437.732 614.604 437.852 614.516 437.94C614.428 438.02 614.312 438.06 614.168 438.06C614.024 438.06 613.904 438.02 613.808 437.94C613.72 437.852 613.676 437.732 613.676 437.58V434.352C613.676 433.816 613.58 433.428 613.388 433.188C613.196 432.948 612.896 432.828 612.488 432.828C612 432.828 611.616 432.992 611.336 433.32C611.056 433.648 610.916 434.092 610.916 434.652V437.58C610.916 437.732 610.868 437.852 610.772 437.94C610.684 438.02 610.568 438.06 610.424 438.06C610.28 438.06 610.164 438.02 610.076 437.94C609.988 437.852 609.944 437.732 609.944 437.58V434.352C609.944 433.816 609.848 433.428 609.656 433.188C609.464 432.948 609.16 432.828 608.744 432.828C608.264 432.828 607.88 432.992 607.592 433.32C607.312 433.648 607.172 434.092 607.172 434.652V437.58C607.172 437.732 607.128 437.852 607.04 437.94C606.952 438.02 606.836 438.06 606.692 438.06C606.548 438.06 606.428 438.02 606.332 437.94C606.244 437.852 606.2 437.732 606.2 437.58V432.516C606.2 432.372 606.244 432.256 606.332 432.168C606.428 432.08 606.548 432.036 606.692 432.036C606.828 432.036 606.94 432.08 607.028 432.168C607.116 432.248 607.16 432.36 607.16 432.504V433.08C607.336 432.736 607.58 432.472 607.892 432.288C608.204 432.104 608.564 432.012 608.972 432.012C609.884 432.012 610.48 432.396 610.76 433.164C610.928 432.812 611.184 432.532 611.528 432.324C611.872 432.116 612.264 432.012 612.704 432.012ZM619.359 432.012C619.871 432.012 620.323 432.14 620.715 432.396C621.107 432.652 621.411 433.012 621.627 433.476C621.843 433.932 621.951 434.464 621.951 435.072C621.951 435.68 621.843 436.212 621.627 436.668C621.411 437.116 621.107 437.464 620.715 437.712C620.331 437.96 619.879 438.084 619.359 438.084C618.903 438.084 618.503 437.984 618.159 437.784C617.823 437.584 617.567 437.3 617.391 436.932V439.752C617.391 439.896 617.347 440.008 617.259 440.088C617.179 440.176 617.063 440.22 616.911 440.22C616.759 440.22 616.639 440.176 616.551 440.088C616.463 440 616.419 439.888 616.419 439.752V432.516C616.419 432.372 616.463 432.256 616.551 432.168C616.639 432.08 616.759 432.036 616.911 432.036C617.063 432.036 617.179 432.08 617.259 432.168C617.347 432.256 617.391 432.372 617.391 432.516V433.164C617.567 432.796 617.823 432.512 618.159 432.312C618.503 432.112 618.903 432.012 619.359 432.012ZM619.167 437.28C619.735 437.28 620.175 437.088 620.487 436.704C620.799 436.32 620.955 435.776 620.955 435.072C620.955 434.368 620.799 433.82 620.487 433.428C620.175 433.028 619.735 432.828 619.167 432.828C618.599 432.828 618.159 433.02 617.847 433.404C617.543 433.788 617.391 434.336 617.391 435.048C617.391 435.76 617.543 436.312 617.847 436.704C618.159 437.088 618.599 437.28 619.167 437.28ZM625.791 432.012C627.255 432.012 627.987 432.78 627.987 434.316V437.58C627.987 437.724 627.943 437.84 627.855 437.928C627.775 438.016 627.663 438.06 627.519 438.06C627.375 438.06 627.259 438.016 627.171 437.928C627.083 437.84 627.039 437.724 627.039 437.58V437.004C626.887 437.348 626.655 437.616 626.343 437.808C626.031 437.992 625.671 438.084 625.263 438.084C624.887 438.084 624.539 438.008 624.219 437.856C623.907 437.704 623.659 437.492 623.475 437.22C623.291 436.948 623.199 436.648 623.199 436.32C623.199 435.88 623.311 435.54 623.535 435.3C623.759 435.052 624.127 434.876 624.639 434.772C625.151 434.66 625.863 434.604 626.775 434.604H627.039V434.208C627.039 433.728 626.939 433.376 626.739 433.152C626.547 432.928 626.231 432.816 625.791 432.816C625.247 432.816 624.695 432.964 624.135 433.26C623.919 433.396 623.767 433.464 623.679 433.464C623.583 433.464 623.503 433.428 623.439 433.356C623.375 433.284 623.343 433.192 623.343 433.08C623.343 432.968 623.375 432.872 623.439 432.792C623.511 432.704 623.623 432.616 623.775 432.528C624.055 432.368 624.371 432.244 624.723 432.156C625.083 432.06 625.439 432.012 625.791 432.012ZM625.395 437.316C625.875 437.316 626.267 437.156 626.571 436.836C626.883 436.508 627.039 436.088 627.039 435.576V435.228H626.823C626.119 435.228 625.583 435.26 625.215 435.324C624.847 435.38 624.583 435.48 624.423 435.624C624.271 435.76 624.195 435.964 624.195 436.236C624.195 436.548 624.307 436.808 624.531 437.016C624.763 437.216 625.051 437.316 625.395 437.316ZM632.706 432.012C634.106 432.012 634.806 432.784 634.806 434.328V437.58C634.806 437.732 634.762 437.852 634.674 437.94C634.594 438.02 634.478 438.06 634.326 438.06C634.174 438.06 634.054 438.02 633.966 437.94C633.878 437.852 633.834 437.732 633.834 437.58V434.388C633.834 433.844 633.726 433.448 633.51 433.2C633.302 432.952 632.966 432.828 632.502 432.828C631.966 432.828 631.538 432.992 631.218 433.32C630.898 433.648 630.738 434.092 630.738 434.652V437.58C630.738 437.732 630.694 437.852 630.606 437.94C630.526 438.02 630.41 438.06 630.258 438.06C630.106 438.06 629.986 438.02 629.898 437.94C629.81 437.852 629.766 437.732 629.766 437.58V432.516C629.766 432.372 629.81 432.256 629.898 432.168C629.986 432.08 630.106 432.036 630.258 432.036C630.402 432.036 630.514 432.08 630.594 432.168C630.682 432.256 630.726 432.368 630.726 432.504V433.116C630.918 432.756 631.186 432.484 631.53 432.3C631.874 432.108 632.266 432.012 632.706 432.012ZM633.138 430.92C632.986 430.92 632.838 430.884 632.694 430.812C632.55 430.74 632.378 430.636 632.178 430.5C632.002 430.388 631.862 430.308 631.758 430.26C631.654 430.204 631.558 430.176 631.47 430.176C631.334 430.176 631.226 430.212 631.146 430.284C631.074 430.356 631.002 430.456 630.93 430.584C630.874 430.672 630.826 430.74 630.786 430.788C630.746 430.828 630.698 430.848 630.642 430.848C630.57 430.848 630.51 430.82 630.462 430.764C630.414 430.708 630.39 430.636 630.39 430.548C630.39 430.404 630.434 430.244 630.522 430.068C630.61 429.892 630.734 429.74 630.894 429.612C631.054 429.484 631.234 429.42 631.434 429.42C631.586 429.42 631.734 429.456 631.878 429.528C632.022 429.6 632.194 429.704 632.394 429.84C632.57 429.952 632.71 430.036 632.814 430.092C632.918 430.14 633.014 430.164 633.102 430.164C633.23 430.164 633.33 430.128 633.402 430.056C633.482 429.984 633.562 429.884 633.642 429.756C633.698 429.66 633.746 429.592 633.786 429.552C633.826 429.504 633.874 429.48 633.93 429.48C634.002 429.48 634.062 429.512 634.11 429.576C634.158 429.632 634.182 429.704 634.182 429.792C634.182 429.928 634.138 430.088 634.05 430.272C633.962 430.448 633.838 430.6 633.678 430.728C633.518 430.856 633.338 430.92 633.138 430.92ZM638.975 432.012C640.439 432.012 641.171 432.78 641.171 434.316V437.58C641.171 437.724 641.127 437.84 641.039 437.928C640.959 438.016 640.847 438.06 640.703 438.06C640.559 438.06 640.443 438.016 640.355 437.928C640.267 437.84 640.223 437.724 640.223 437.58V437.004C640.071 437.348 639.839 437.616 639.527 437.808C639.215 437.992 638.855 438.084 638.447 438.084C638.071 438.084 637.723 438.008 637.403 437.856C637.091 437.704 636.843 437.492 636.659 437.22C636.475 436.948 636.383 436.648 636.383 436.32C636.383 435.88 636.495 435.54 636.719 435.3C636.943 435.052 637.311 434.876 637.823 434.772C638.335 434.66 639.047 434.604 639.959 434.604H640.223V434.208C640.223 433.728 640.123 433.376 639.923 433.152C639.731 432.928 639.415 432.816 638.975 432.816C638.431 432.816 637.879 432.964 637.319 433.26C637.103 433.396 636.951 433.464 636.863 433.464C636.767 433.464 636.687 433.428 636.623 433.356C636.559 433.284 636.527 433.192 636.527 433.08C636.527 432.968 636.559 432.872 636.623 432.792C636.695 432.704 636.807 432.616 636.959 432.528C637.239 432.368 637.555 432.244 637.907 432.156C638.267 432.06 638.623 432.012 638.975 432.012ZM638.579 437.316C639.059 437.316 639.451 437.156 639.755 436.836C640.067 436.508 640.223 436.088 640.223 435.576V435.228H640.007C639.303 435.228 638.767 435.26 638.399 435.324C638.031 435.38 637.767 435.48 637.607 435.624C637.455 435.76 637.379 435.964 637.379 436.236C637.379 436.548 637.491 436.808 637.715 437.016C637.947 437.216 638.235 437.316 638.579 437.316Z" fill="#404040"/>
<g opacity="0.4">
<path opacity="0.4" d="M715.698 413V416L719.227 412L715.698 408V411C713.77 411.061 711.943 411.938 710.619 413.438C709.296 414.938 708.583 416.939 708.638 419C708.635 420.5 709.013 421.972 709.732 423.26L711.021 421.8C710.611 420.932 710.4 419.972 710.404 419C710.364 417.455 710.899 415.955 711.891 414.831C712.884 413.706 714.252 413.048 715.698 413V413ZM721.663 414.74L720.375 416.2C720.78 417.07 720.991 418.028 720.992 419C721.032 420.546 720.497 422.045 719.504 423.17C718.512 424.294 717.143 424.952 715.698 425V422L712.168 426L715.698 430V427C717.626 426.94 719.454 426.063 720.778 424.563C722.102 423.063 722.816 421.062 722.761 419C722.763 417.5 722.384 416.028 721.664 414.74H721.663Z" fill="black"/>
</g>
</g>
<path d="M14.1855 338H751.815C755.554 337.976 759.15 339.542 761.81 342.352C764.47 345.163 765.977 348.988 766 352.986V454.24C765.977 458.239 764.47 462.064 761.81 464.874C759.15 467.685 755.554 469.25 751.815 469.226H14.1855C10.4457 469.25 6.85024 467.685 4.18996 464.874C1.52967 462.064 0.0225054 458.239 0 454.24V352.986C0.0225054 348.988 1.52967 345.163 4.18996 342.352C6.85024 339.542 10.4457 337.976 14.1855 338V338Z" fill="#F7F7F7"/>
<path d="M749.211 389.457V447.226H16.7668V389.457H749.211Z" fill="white"/>
<path d="M652.686 348H733.138C737.635 348.064 741.918 349.681 745.047 352.494C748.175 355.306 749.893 359.085 749.821 363C749.893 366.915 748.175 370.694 745.047 373.506C741.918 376.319 737.635 377.936 733.138 378H652.686C648.188 377.936 643.905 376.319 640.776 373.506C637.648 370.694 635.931 366.915 636.002 363C635.931 359.085 637.648 355.306 640.776 352.494C643.905 349.681 648.188 348.064 652.686 348V348Z" fill="white"/>
<path d="M720.068 429C725.867 429 730.568 424.299 730.568 418.5C730.568 412.701 725.867 408 720.068 408C714.269 408 709.568 412.701 709.568 418.5C709.568 424.299 714.269 429 720.068 429Z" fill="#F7F7F7"/>
<rect x="8" width="158" height="30" fill="#F7F7F7"/>
<rect x="32" y="108" width="158" height="18" fill="#F7F7F7"/>
<rect x="260" y="107" width="70" height="18" fill="#F7F7F7"/>
<rect x="260" y="146" width="70" height="18" fill="#F7F7F7"/>
<rect x="389" y="146" width="70" height="18" fill="#F7F7F7"/>
<rect x="34" y="408" width="70" height="18" fill="#F7F7F7"/>
<rect x="163" y="408" width="70" height="18" fill="#F7F7F7"/>
<rect x="516" y="146" width="70" height="18" fill="#F7F7F7"/>
<rect x="643" y="146" width="70" height="18" fill="#F7F7F7"/>
<rect x="260" y="186" width="70" height="18" fill="#F7F7F7"/>
<rect x="389" y="186" width="70" height="18" fill="#F7F7F7"/>
<rect x="516" y="186" width="70" height="18" fill="#F7F7F7"/>
<rect x="643" y="186" width="70" height="18" fill="#F7F7F7"/>
<rect x="389" y="107" width="70" height="18" fill="#F7F7F7"/>
<rect x="516" y="107" width="70" height="18" fill="#F7F7F7"/>
<rect x="643" y="107" width="70" height="18" fill="#F7F7F7"/>
<rect x="64" y="153" width="90" height="33" fill="#F7F7F7"/>
<rect x="8" y="290" width="158" height="30" fill="#F7F7F7"/>
<defs>
<linearGradient id="paint0_linear" x1="584.458" y1="395.871" x2="528.302" y2="169.552" gradientUnits="userSpaceOnUse">
<stop stop-color="#F3FDE0"/>
<stop offset="1" stop-color="#DCF5F6"/>
</linearGradient>
</defs>
</svg>
