<svg width="258" height="44" viewBox="0 0 258 44" fill="none" xmlns="http://www.w3.org/2000/svg">
<g clip-path="url(#clip0)">
<path d="M18.5152 13.066C20.1087 14.7051 20.9312 17.1637 20.9312 20.4932V32.2743C20.9507 32.6503 20.8923 33.0262 20.7596 33.3787C20.627 33.7312 20.4229 34.0527 20.1601 34.3232C19.8785 34.5855 19.5467 34.7887 19.1847 34.9207C18.8226 35.0527 18.4376 35.1108 18.0525 35.0915C17.6757 35.1062 17.2998 35.0459 16.9467 34.9139C16.5936 34.782 16.2705 34.5812 15.9963 34.3232C15.7259 34.0559 15.5134 33.7362 15.3719 33.3837C15.2304 33.0313 15.163 32.6537 15.1739 32.2743V31.1986C14.6538 32.4215 13.7526 33.4452 12.6036 34.1183C11.362 34.856 9.93641 35.2289 8.49127 35.194C6.99391 35.2244 5.51171 34.8904 4.17328 34.2208C2.94196 33.6184 1.8948 32.6988 1.14041 31.5572C0.383599 30.4577 -0.0115934 29.1511 0.00950349 27.818C-0.0722492 26.3339 0.404302 24.8728 1.34602 23.7202C2.2199 22.747 3.65923 21.9786 5.66401 21.5689C7.66879 21.1079 10.4446 20.903 13.9402 20.903H15.1739V19.7761C15.1739 18.1882 14.814 17.0613 14.1458 16.3442C13.4775 15.6271 12.3466 15.2685 10.8559 15.2685C9.88274 15.2826 8.91538 15.4203 7.97722 15.6783C6.80932 16.0108 5.6597 16.404 4.53311 16.8564C3.96576 17.1871 3.33553 17.3964 2.68254 17.4711C2.41227 17.4786 2.14358 17.4275 1.89506 17.3214C1.64654 17.2153 1.42413 17.0566 1.24321 16.8564C0.860087 16.3972 0.658942 15.8141 0.677763 15.2173C0.672549 14.7096 0.815415 14.2114 1.089 13.7831C1.44816 13.2961 1.9258 12.9083 2.47692 12.6562C3.75755 11.9934 5.12422 11.5107 6.53789 11.2219C8.05516 10.8747 9.60754 10.7028 11.1643 10.7097C14.4542 10.6073 16.9216 11.4268 18.5152 13.066ZM13.6317 29.2522C14.1501 28.6957 14.5531 28.0428 14.8177 27.3308C15.0824 26.6189 15.2034 25.8619 15.1739 25.1032V24.0787H14.3C12.6152 24.0465 10.9306 24.1493 9.26233 24.3861C8.08003 24.591 7.20615 24.8983 6.6921 25.4105C6.42592 25.6679 6.21908 25.9799 6.08594 26.3248C5.9528 26.6697 5.89653 27.0394 5.92103 27.4082C5.90267 27.8802 5.99002 28.3503 6.17675 28.7844C6.36347 29.2186 6.64488 29.6058 7.00053 29.9181C7.73234 30.5737 8.68997 30.9224 9.67357 30.8913C10.4108 30.9029 11.1426 30.7633 11.8235 30.4814C12.5044 30.1994 13.1199 29.781 13.6317 29.2522Z" fill="#414141"/>
<path d="M49.0496 1.33588C49.3369 1.59286 49.564 1.90954 49.715 2.26357C49.866 2.6176 49.9372 3.00034 49.9235 3.38477V32.2229C49.9461 32.6037 49.8842 32.9848 49.742 33.3389C49.5998 33.6931 49.381 34.0116 49.101 34.2718C48.5072 34.7948 47.7341 35.07 46.9421 35.0402C46.5488 35.0639 46.1547 35.0081 45.7837 34.8761C45.4126 34.744 45.0723 34.5385 44.7831 34.2718C44.507 34.0087 44.2907 33.6897 44.1489 33.3362C44.007 32.9828 43.9428 32.6032 43.9606 32.2229V30.9936C43.2641 32.3023 42.1897 33.3729 40.8763 34.0669C39.4694 34.8167 37.8967 35.204 36.3013 35.1938C34.3727 35.2277 32.4771 34.6931 30.8524 33.6572C29.2176 32.5841 27.9175 31.0757 27.0999 29.3033C26.1839 27.2578 25.7277 25.0376 25.7633 22.798C25.7218 20.5909 26.1785 18.4028 27.0999 16.3952C27.8991 14.6539 29.1838 13.1781 30.801 12.1438C32.4405 11.1468 34.3294 10.6319 36.2499 10.6583C37.841 10.6312 39.4137 11.001 40.8249 11.734C42.1176 12.3911 43.1763 13.4282 43.8578 14.7049V3.2311C43.8403 2.86605 43.9051 2.50173 44.0474 2.16491C44.1897 1.82808 44.406 1.5273 44.6802 1.28465C44.9694 1.01801 45.3098 0.812472 45.6809 0.680425C46.0519 0.548377 46.446 0.492554 46.8392 0.51632C47.6487 0.528284 48.4292 0.817704 49.0496 1.33588ZM42.3156 28.5349C43.3437 27.2031 43.9092 25.3591 43.9092 22.9005C43.9092 20.4418 43.3951 18.5978 42.3156 17.266C41.7826 16.62 41.105 16.1074 40.3373 15.7694C39.5696 15.4314 38.7331 15.2773 37.8948 15.3196C37.0416 15.2772 36.19 15.4307 35.4057 15.7682C34.6214 16.1057 33.9254 16.6181 33.3712 17.266C32.2917 18.5466 31.7777 20.3906 31.7777 22.798C31.7777 25.2567 32.2917 27.1519 33.3712 28.4837C33.9043 29.1495 34.5865 29.6816 35.3631 30.0374C36.1397 30.3932 36.9892 30.5628 37.8434 30.5326C39.7968 30.4814 41.2875 29.8667 42.3156 28.5349Z" fill="#414141"/>
<path d="M78.4017 11.478C78.6777 11.7411 78.894 12.0601 79.0359 12.4136C79.1777 12.767 79.242 13.1466 79.2242 13.5269V32.5816C79.2242 36.2696 78.1961 39.0868 76.1399 40.982C74.0837 42.8773 70.9994 43.8505 66.9899 43.8505C63.4943 43.8505 60.5129 43.1846 58.1997 41.8528C57.0174 41.1357 56.4005 40.3161 56.4005 39.2917C56.3571 38.6844 56.5401 38.0825 56.9146 37.6014C57.0748 37.4033 57.2788 37.2447 57.5106 37.1381C57.7424 37.0315 57.9958 36.9797 58.2511 36.9867C58.6204 36.9892 58.9862 37.0586 59.3306 37.1916C59.7675 37.3401 60.1965 37.5111 60.6157 37.7038C61.798 38.1648 62.8261 38.5746 63.7514 38.8307C64.7898 39.1127 65.8622 39.2506 66.9384 39.2405C71.1536 39.2405 73.2612 37.1916 73.2612 33.0426V29.9692C72.5647 31.278 71.4903 32.3485 70.1769 33.0426C68.7474 33.7757 67.1581 34.1452 65.5505 34.1182C63.6139 34.1446 61.7085 33.6301 60.0502 32.6328C58.4349 31.6264 57.1349 30.189 56.2977 28.4838C55.3575 26.5736 54.8988 24.4638 54.9612 22.3371C54.924 20.2128 55.3814 18.1089 56.2977 16.1904C57.119 14.4745 58.4226 13.0332 60.0502 12.0414C61.7085 11.0442 63.6139 10.5296 65.5505 10.556C67.1587 10.523 68.7495 10.8928 70.1769 11.6317C71.4903 12.3257 72.5647 13.3963 73.2612 14.705V13.4757C73.2434 13.0954 73.3076 12.7158 73.4495 12.3623C73.5914 12.0089 73.8076 11.6899 74.0837 11.4268C74.6776 10.9038 75.4507 10.6286 76.2427 10.6584C77.0366 10.6703 77.801 10.9605 78.4017 11.478ZM71.5649 27.5618C72.6444 26.3325 73.2098 24.5909 73.2098 22.3883C73.2098 20.1858 72.6444 18.4442 71.5649 17.1637C70.9754 16.5637 70.2716 16.087 69.4949 15.7615C68.7181 15.4361 67.8839 15.2685 67.0413 15.2685C66.1986 15.2685 65.3644 15.4361 64.5877 15.7615C63.8109 16.087 63.1071 16.5637 62.5177 17.1637C61.4382 18.393 60.8727 20.1346 60.8727 22.3883C60.8727 24.5909 61.4382 26.2812 62.5177 27.5618C63.0858 28.1892 63.7857 28.6843 64.5675 29.0118C65.3493 29.3394 66.1939 29.4914 67.0413 29.457C68.9946 29.457 70.4854 28.8424 71.5649 27.5618Z" fill="#414141"/>
<path d="M89.8646 33.7086C88.0508 32.738 86.5795 31.2361 85.6494 29.4059C84.6279 27.3909 84.1161 25.1577 84.1587 22.9007C84.1161 20.6436 84.6279 18.4104 85.6494 16.3954C86.5963 14.5902 88.0646 13.1093 89.8646 12.144C91.8315 11.1261 94.0229 10.6154 96.2388 10.6585C98.454 10.6215 100.644 11.1319 102.613 12.144C104.413 13.1093 105.881 14.5902 106.828 16.3954C107.855 18.4083 108.367 20.643 108.319 22.9007C108.361 25.1577 107.85 27.3909 106.828 29.4059C105.884 31.2258 104.416 32.7238 102.613 33.7086C100.646 34.7264 98.4547 35.2371 96.2388 35.194C94.0236 35.231 91.8336 34.7207 89.8646 33.7086ZM100.711 28.5863C101.739 27.3058 102.253 25.4106 102.253 22.9007C102.253 20.442 101.739 18.5468 100.711 17.215C99.6829 15.9344 98.1922 15.2685 96.2388 15.2685C94.2854 15.2685 92.7947 15.9344 91.7666 17.215C90.7385 18.4955 90.173 20.3908 90.173 22.9007C90.173 25.4106 90.6871 27.3058 91.7152 28.5863C92.7433 29.8669 94.234 30.5328 96.1874 30.5328C98.1408 30.4816 99.6829 29.8669 100.711 28.5863Z" fill="#414141"/>
<path d="M117.572 33.7086C115.786 32.7409 114.335 31.2592 113.408 29.4571C112.409 27.4724 111.915 25.2738 111.969 23.0543C111.924 20.791 112.454 18.5531 113.511 16.5491C114.488 14.7228 115.968 13.2123 117.777 12.1952C119.717 11.1487 121.895 10.6194 124.1 10.6585C125.386 10.6557 126.666 10.8281 127.904 11.1707C129.086 11.4724 130.214 11.9563 131.245 12.605C131.705 12.8596 132.09 13.2303 132.361 13.6799C132.631 14.1294 132.779 14.6419 132.788 15.1661C132.831 15.7734 132.648 16.3753 132.274 16.8564C132.116 17.0612 131.914 17.2276 131.682 17.343C131.451 17.4584 131.196 17.5197 130.937 17.5223C130.548 17.5053 130.165 17.4186 129.806 17.2662C129.402 17.0994 129.008 16.9113 128.624 16.7027C127.976 16.3055 127.286 15.9792 126.568 15.7295C125.86 15.4739 125.11 15.3523 124.357 15.371C122.352 15.371 120.81 16.0369 119.731 17.3174C118.651 18.598 118.086 20.4932 118.086 22.9519C118.086 25.3593 118.651 27.2033 119.731 28.5351C120.81 29.8157 122.352 30.4815 124.357 30.4815C125.094 30.5048 125.827 30.383 126.516 30.123C127.133 29.8669 127.853 29.5595 128.624 29.1498C129.02 28.9005 129.432 28.678 129.858 28.4839C130.199 28.3421 130.567 28.2724 130.937 28.279C131.191 28.2708 131.442 28.3277 131.667 28.4444C131.892 28.561 132.083 28.7333 132.222 28.9449C132.582 29.4333 132.764 30.0298 132.736 30.6352C132.758 31.1379 132.633 31.6362 132.376 32.0694C132.086 32.5266 131.677 32.898 131.194 33.1451C130.112 33.8282 128.934 34.3462 127.699 34.6818C126.376 35.0481 125.01 35.2376 123.638 35.2452C121.522 35.2225 119.442 34.6956 117.572 33.7086Z" fill="#414141"/>
<path d="M137.774 34.3231C137.489 34.0452 137.267 33.709 137.125 33.3375C136.983 32.9661 136.924 32.5683 136.951 32.1718V3.38485C136.919 2.99547 136.976 2.60378 137.118 2.23977C137.261 1.87576 137.485 1.54908 137.774 1.28474C138.397 0.819254 139.154 0.567627 139.933 0.567627C140.711 0.567627 141.469 0.819254 142.092 1.28474C142.388 1.5456 142.621 1.87032 142.772 2.23422C142.924 2.59813 142.99 2.99164 142.966 3.38485V32.1718C142.984 32.572 142.916 32.9715 142.765 33.3428C142.614 33.7142 142.385 34.0486 142.092 34.3231C141.483 34.82 140.72 35.0915 139.933 35.0915C139.146 35.0915 138.383 34.82 137.774 34.3231Z" fill="#414141"/>
<path d="M149.597 5.53622C149.272 5.23823 149.015 4.8729 148.847 4.46587C148.678 4.05884 148.601 3.61995 148.62 3.17999C148.596 2.74699 148.671 2.31415 148.84 1.91462C149.01 1.51509 149.268 1.15946 149.597 0.874989C150.336 0.278252 151.268 -0.0311246 152.219 0.00421009C153.155 -0.0403992 154.074 0.270815 154.789 0.874989C155.117 1.15946 155.376 1.51509 155.545 1.91462C155.715 2.31415 155.79 2.74699 155.765 3.17999C155.785 3.61995 155.708 4.05884 155.539 4.46587C155.37 4.8729 155.114 5.23823 154.789 5.53622C154.061 6.15448 153.121 6.46674 152.167 6.407C151.701 6.45317 151.231 6.39934 150.787 6.24914C150.344 6.09894 149.938 5.85584 149.597 5.53622ZM150.06 34.3232C149.774 34.0453 149.553 33.709 149.411 33.3376C149.269 32.9661 149.21 32.5684 149.237 32.1718V13.5781C149.204 13.1887 149.261 12.7971 149.404 12.433C149.547 12.069 149.771 11.7423 150.06 11.478C150.682 11.0125 151.44 10.7609 152.219 10.7609C152.997 10.7609 153.755 11.0125 154.378 11.478C154.674 11.7389 154.906 12.0636 155.058 12.4275C155.209 12.7914 155.276 13.1849 155.251 13.5781V32.223C155.27 32.6232 155.202 33.0227 155.051 33.3941C154.9 33.7654 154.67 34.0999 154.378 34.3744C153.784 34.8974 153.011 35.1725 152.219 35.1427C151.425 35.1308 150.66 34.8406 150.06 34.3232Z" fill="#414141"/>
<path d="M165.79 33.7086C164.004 32.7409 162.553 31.2592 161.626 29.4571C160.627 27.4724 160.133 25.2738 160.187 23.0543C160.142 20.791 160.672 18.5531 161.729 16.5491C162.706 14.7228 164.186 13.2123 165.995 12.1952C167.935 11.1487 170.113 10.6194 172.318 10.6585C173.604 10.6557 174.883 10.8281 176.122 11.1707C177.304 11.4724 178.431 11.9563 179.463 12.605C179.923 12.8596 180.308 13.2303 180.578 13.6799C180.849 14.1294 180.996 14.6419 181.005 15.1661C181.049 15.7734 180.866 16.3753 180.491 16.8564C180.334 17.0612 180.132 17.2276 179.9 17.343C179.669 17.4584 179.414 17.5197 179.155 17.5223C178.765 17.5053 178.382 17.4186 178.024 17.2662C177.62 17.0994 177.225 16.9113 176.842 16.7027C176.193 16.3055 175.504 15.9792 174.785 15.7295C174.077 15.4739 173.328 15.3523 172.575 15.371C170.57 15.371 169.028 16.0369 167.949 17.3174C166.869 18.598 166.304 20.4932 166.304 22.9519C166.304 25.3593 166.869 27.2033 167.949 28.5351C169.028 29.8157 170.57 30.4815 172.575 30.4815C173.311 30.5048 174.045 30.383 174.734 30.123C175.351 29.8669 176.071 29.5595 176.842 29.1498C177.237 28.9005 177.65 28.678 178.075 28.4839C178.417 28.3421 178.785 28.2724 179.155 28.279C179.408 28.2708 179.66 28.3277 179.885 28.4444C180.11 28.561 180.301 28.7333 180.44 28.9449C180.8 29.4333 180.981 30.0298 180.954 30.6352C180.976 31.1379 180.851 31.6362 180.594 32.0694C180.303 32.5266 179.895 32.898 179.412 33.1451C178.33 33.8282 177.152 34.3462 175.916 34.6818C174.594 35.0481 173.228 35.2376 171.855 35.2452C169.739 35.2225 167.66 34.6956 165.79 33.7086Z" fill="#414141"/>
<path d="M207.17 32.1718C207.167 32.9189 206.872 33.6353 206.348 34.1695C206.121 34.4394 205.838 34.657 205.518 34.8074C205.199 34.9577 204.85 35.0372 204.497 35.0402C203.742 35.0167 203.024 34.705 202.492 34.1695L191.183 23.925V32.1718C191.207 32.565 191.141 32.9585 190.99 33.3224C190.838 33.6863 190.606 34.011 190.31 34.2719C189.687 34.7374 188.929 34.989 188.151 34.989C187.372 34.989 186.614 34.7374 185.992 34.2719C185.703 34.0074 185.479 33.6807 185.336 33.3168C185.194 32.9528 185.136 32.5611 185.169 32.1718V3.38485C185.136 2.99549 185.194 2.60386 185.336 2.23988C185.479 1.8759 185.703 1.5492 185.992 1.28474C186.614 0.819254 187.372 0.567627 188.151 0.567627C188.929 0.567627 189.687 0.819254 190.31 1.28474C190.606 1.5456 190.838 1.87032 190.99 2.23422C191.141 2.59813 191.207 2.99164 191.183 3.38485V21.5175L201.516 11.6316C201.773 11.3584 202.083 11.1402 202.428 10.9905C202.773 10.8408 203.144 10.7627 203.52 10.7609C203.885 10.7582 204.246 10.8295 204.582 10.9704C204.918 11.1113 205.221 11.3189 205.474 11.5804C205.74 11.8293 205.951 12.1312 206.093 12.4665C206.235 12.8018 206.304 13.1631 206.296 13.5269C206.287 13.9126 206.2 14.2925 206.041 14.6443C205.882 14.9961 205.654 15.3128 205.371 15.5758L197.763 22.6444L206.194 30.1741C206.49 30.4182 206.731 30.7228 206.899 31.0674C207.068 31.412 207.16 31.7886 207.17 32.1718Z" fill="#414141"/>
<path d="M236.436 43.2318C247.92 43.2318 257.229 33.9554 257.229 22.5124C257.229 11.0694 247.92 1.79297 236.436 1.79297C224.952 1.79297 215.643 11.0694 215.643 22.5124C215.643 33.9554 224.952 43.2318 236.436 43.2318Z" stroke="#414141" stroke-width="1.5"/>
<path d="M236.461 37.2643C244.624 37.2643 251.24 30.6711 251.24 22.5379C251.24 14.4048 244.624 7.81152 236.461 7.81152C228.299 7.81152 221.683 14.4048 221.683 22.5379C221.683 30.6711 228.299 37.2643 236.461 37.2643Z" stroke="#414141" stroke-width="1.5"/>
<path d="M236.333 14.5984C234.239 14.5984 232.271 15.411 230.79 16.8863C229.31 18.3617 228.494 20.3233 228.494 22.4098C228.494 24.4963 229.31 26.4579 230.79 27.9333C232.271 29.4087 234.239 30.2212 236.333 30.2212C238.427 30.2212 240.396 29.4087 241.876 27.9333C243.357 26.4579 244.173 24.4963 244.173 22.4098C244.173 20.3233 243.357 18.3617 241.876 16.8863C240.396 15.411 238.427 14.5984 236.333 14.5984ZM236.333 13.3179C241.373 13.3179 245.458 17.3885 245.458 22.4098C245.458 27.4312 241.373 31.5018 236.333 31.5018C231.294 31.5018 227.209 27.4312 227.209 22.4098C227.209 17.3885 231.294 13.3179 236.333 13.3179Z" fill="#414141"/>
</g>
<defs>
<clipPath id="clip0">
<rect width="258" height="44" fill="white"/>
</clipPath>
</defs>
</svg>
