<svg width="347" height="59" viewBox="0 0 347 59" fill="none" xmlns="http://www.w3.org/2000/svg">
<g clip-path="url(#clip0)">
<path d="M24.902 17.5202C27.0453 19.7181 28.1515 23.015 28.1515 27.4794V43.2769C28.1777 43.781 28.0991 44.2851 27.9207 44.7578C27.7423 45.2304 27.4678 45.6615 27.1144 46.0242C26.7356 46.376 26.2894 46.6485 25.8025 46.8255C25.3155 47.0025 24.7977 47.0804 24.2798 47.0545C23.773 47.0742 23.2674 46.9933 22.7925 46.8164C22.3176 46.6394 21.883 46.3701 21.5143 46.0242C21.1506 45.6658 20.8647 45.2371 20.6744 44.7645C20.4842 44.2919 20.3935 43.7856 20.4081 43.2769V41.8345C19.7086 43.4742 18.4966 44.8469 16.9512 45.7495C15.2813 46.7387 13.3639 47.2387 11.4203 47.1919C9.40637 47.2327 7.41287 46.7848 5.61273 45.8869C3.95666 45.0792 2.54826 43.846 1.53363 42.3153C0.515757 40.841 -0.0157611 39.0889 0.0126134 37.3013C-0.0973408 35.3113 0.543602 33.3521 1.81018 31.8066C2.98551 30.5016 4.92136 29.4713 7.61771 28.9218C10.3141 28.3037 14.0475 28.0289 18.7488 28.0289H20.4081V26.5179C20.4081 24.3886 19.9241 22.8776 19.0253 21.916C18.1266 20.9544 16.6055 20.4736 14.6006 20.4736C13.2917 20.4925 11.9907 20.6771 10.7289 21.0231C9.1581 21.4689 7.61191 21.9962 6.09669 22.6028C5.33363 23.0462 4.48599 23.3269 3.60775 23.4271C3.24424 23.4372 2.88286 23.3687 2.54861 23.2264C2.21437 23.0841 1.91523 22.8713 1.67191 22.6028C1.15661 21.9871 0.886083 21.2053 0.911397 20.4049C0.904384 19.7242 1.09653 19.0561 1.4645 18.4818C1.94755 17.8289 2.58995 17.3088 3.3312 16.9707C5.05359 16.082 6.8917 15.4347 8.79304 15.0476C10.8337 14.5819 12.9216 14.3514 15.0154 14.3607C19.4402 14.2233 22.7588 15.3223 24.902 17.5202ZM18.334 39.2245C19.0311 38.4783 19.5732 37.6028 19.9291 36.6481C20.285 35.6934 20.4478 34.6783 20.4081 33.661V32.2874H19.2328C16.9668 32.2442 14.701 32.382 12.4573 32.6995C10.8672 32.9742 9.69182 33.3863 9.00045 34.0731C8.64244 34.4182 8.36426 34.8366 8.18518 35.2991C8.00611 35.7617 7.93043 36.2574 7.96339 36.7518C7.9387 37.3847 8.05618 38.0151 8.30732 38.5973C8.55845 39.1794 8.93693 39.6987 9.41528 40.1174C10.3995 40.9965 11.6875 41.464 13.0104 41.4224C14.002 41.4379 14.9862 41.2508 15.902 40.8727C16.8177 40.4946 17.6455 39.9336 18.334 39.2245Z" fill="#414141"/>
<path d="M65.9696 1.79128C66.356 2.13587 66.6615 2.56052 66.8646 3.03524C67.0677 3.50995 67.1634 4.02317 67.145 4.53866V43.208C67.1754 43.7186 67.092 44.2296 66.9008 44.7045C66.7096 45.1794 66.4153 45.6065 66.0388 45.9554C65.2401 46.6567 64.2002 47.0256 63.135 46.9857C62.6061 47.0175 62.0761 46.9427 61.5771 46.7656C61.078 46.5885 60.6202 46.3129 60.2313 45.9554C59.86 45.6026 59.5691 45.1748 59.3783 44.7009C59.1875 44.2269 59.1011 43.7179 59.1251 43.208V41.5596C58.1883 43.3145 56.7433 44.75 54.9768 45.6806C53.0846 46.686 50.9694 47.2054 48.8236 47.1917C46.2298 47.2371 43.6802 46.5202 41.4951 45.1312C39.2963 43.6923 37.5477 41.6696 36.448 39.293C35.2161 36.5503 34.6026 33.5731 34.6505 30.5701C34.5946 27.6106 35.2089 24.6764 36.448 21.9845C37.523 19.6495 39.2509 17.6707 41.4259 16.2837C43.631 14.9469 46.1715 14.2564 48.7545 14.2919C50.8945 14.2555 53.0097 14.7514 54.9077 15.7342C56.6463 16.6153 58.0703 18.006 58.9868 19.7179V4.33261C58.9633 3.84311 59.0504 3.35459 59.2418 2.90294C59.4333 2.45128 59.7241 2.04796 60.093 1.7226C60.4819 1.36506 60.9397 1.08945 61.4388 0.912382C61.9378 0.735318 62.4678 0.660464 62.9967 0.692333C64.0854 0.708375 65.1352 1.09646 65.9696 1.79128ZM56.9127 38.2627C58.2954 36.4769 59.0559 34.0043 59.0559 30.7074C59.0559 27.4106 58.3646 24.9379 56.9127 23.1521C56.1957 22.2859 55.2845 21.5986 54.2519 21.1453C53.2194 20.6921 52.0943 20.4855 50.9669 20.5421C49.8193 20.4854 48.6739 20.6912 47.6191 21.1437C46.5642 21.5962 45.6281 22.2834 44.8828 23.1521C43.4309 24.8693 42.7395 27.3419 42.7395 30.5701C42.7395 33.8669 43.4309 36.4082 44.8828 38.194C45.5998 39.0868 46.5173 39.8004 47.5618 40.2775C48.6063 40.7546 49.7488 40.982 50.8977 40.9414C53.5249 40.8727 55.5299 40.0485 56.9127 38.2627Z" fill="#414141"/>
<path d="M105.447 15.3909C105.818 15.7437 106.109 16.1715 106.3 16.6454C106.491 17.1194 106.577 17.6284 106.553 18.1383V43.6889C106.553 48.6342 105.171 52.4118 102.405 54.9531C99.6397 57.4945 95.4914 58.7995 90.0987 58.7995C85.3974 58.7995 81.3874 57.9066 78.2763 56.1208C76.6861 55.1592 75.8565 54.0603 75.8565 52.6866C75.7981 51.8722 76.0443 51.0651 76.5478 50.42C76.7633 50.1543 77.0377 49.9418 77.3495 49.7988C77.6613 49.6558 78.0021 49.5863 78.3454 49.5958C78.8421 49.5991 79.3341 49.6922 79.7973 49.8705C80.385 50.0697 80.9619 50.2989 81.5257 50.5573C83.1159 51.1755 84.4986 51.725 85.7431 52.0684C87.1397 52.4465 88.5821 52.6314 90.0296 52.6179C95.6989 52.6179 98.5335 49.8705 98.5335 44.3071V40.186C97.5967 41.9409 96.1517 43.3764 94.3852 44.3071C92.4625 45.2901 90.325 45.7856 88.1629 45.7494C85.5582 45.7848 82.9955 45.0948 80.7652 43.7576C78.5926 42.4081 76.8442 40.4807 75.7182 38.1941C74.4537 35.6327 73.8367 32.8037 73.9206 29.952C73.8706 27.1035 74.4859 24.2823 75.7182 21.7099C76.8228 19.409 78.5761 17.4763 80.7652 16.1464C82.9955 14.8092 85.5582 14.1192 88.1629 14.1546C90.3259 14.1103 92.4654 14.6063 94.3852 15.597C96.1517 16.5276 97.5967 17.9631 98.5335 19.718V18.0696C98.5095 17.5597 98.5959 17.0507 98.7867 16.5767C98.9775 16.1028 99.2684 15.675 99.6397 15.3222C100.438 14.6209 101.478 14.252 102.543 14.2919C103.611 14.3079 104.639 14.697 105.447 15.3909ZM96.2519 36.9578C97.7038 35.3094 98.4643 32.9741 98.4643 30.0207C98.4643 27.0673 97.7038 24.732 96.2519 23.0149C95.4591 22.2103 94.5126 21.5711 93.4679 21.1348C92.4231 20.6984 91.3012 20.4736 90.1679 20.4736C89.0345 20.4736 87.9126 20.6984 86.8679 21.1348C85.8232 21.5711 84.8766 22.2103 84.0838 23.0149C82.6319 24.6633 81.8714 26.9986 81.8714 30.0207C81.8714 32.9741 82.6319 35.2407 84.0838 36.9578C84.848 37.7991 85.7892 38.463 86.8407 38.9022C87.8922 39.3414 89.0282 39.5452 90.1679 39.4991C92.7951 39.4991 94.8001 38.6749 96.2519 36.9578Z" fill="#414141"/>
<path d="M120.864 45.2001C118.425 43.8986 116.446 41.8848 115.195 39.4306C113.821 36.7287 113.133 33.7342 113.19 30.7077C113.133 27.6811 113.821 24.6866 115.195 21.9847C116.468 19.5641 118.443 17.5784 120.864 16.2839C123.509 14.919 126.457 14.2342 129.437 14.2921C132.416 14.2424 135.362 14.9268 138.01 16.2839C140.431 17.5784 142.406 19.5641 143.679 21.9847C145.061 24.6838 145.75 27.6803 145.684 30.7077C145.742 33.7342 145.053 36.7287 143.679 39.4306C142.409 41.8709 140.435 43.8797 138.01 45.2001C135.365 46.565 132.417 47.2498 129.437 47.1919C126.458 47.2416 123.512 46.5572 120.864 45.2001ZM135.452 38.3316C136.835 36.6145 137.526 34.0732 137.526 30.7077C137.526 27.4108 136.835 24.8695 135.452 23.0837C134.069 21.3666 132.064 20.4737 129.437 20.4737C126.81 20.4737 124.805 21.3666 123.422 23.0837C122.039 24.8008 121.279 27.3421 121.279 30.7077C121.279 34.0732 121.97 36.6145 123.353 38.3316C124.736 40.0487 126.741 40.9416 129.368 40.9416C131.995 40.873 134.069 40.0487 135.452 38.3316Z" fill="#414141"/>
<path d="M158.129 45.2001C155.728 43.9026 153.776 41.9158 152.529 39.4993C151.186 36.8381 150.521 33.8899 150.593 30.9138C150.533 27.8789 151.246 24.8781 152.667 22.1909C153.982 19.7419 155.973 17.7166 158.406 16.3527C161.014 14.9494 163.944 14.2396 166.91 14.2921C168.638 14.2884 170.36 14.5195 172.026 14.979C173.615 15.3834 175.132 16.0323 176.52 16.9022C177.138 17.2436 177.655 17.7407 178.019 18.3435C178.383 18.9463 178.581 19.6335 178.594 20.3364C178.652 21.1507 178.406 21.9578 177.902 22.603C177.691 22.8776 177.419 23.1007 177.107 23.2555C176.796 23.4102 176.453 23.4924 176.105 23.4959C175.581 23.4731 175.066 23.3568 174.584 23.1524C174.041 22.9287 173.51 22.6765 172.994 22.3969C172.122 21.8642 171.195 21.4267 170.228 21.0919C169.276 20.7492 168.268 20.5861 167.255 20.6111C164.559 20.6111 162.485 21.504 161.033 23.2211C159.581 24.9382 158.82 27.4796 158.82 30.7764C158.82 34.0046 159.581 36.4772 161.033 38.263C162.485 39.9801 164.559 40.873 167.255 40.873C168.246 40.9042 169.232 40.7408 170.159 40.3922C170.989 40.0488 171.957 39.6367 172.994 39.0872C173.526 38.753 174.08 38.4547 174.653 38.1943C175.113 38.0043 175.607 37.9107 176.105 37.9196C176.446 37.9086 176.784 37.985 177.087 38.1413C177.389 38.2977 177.646 38.5288 177.833 38.8125C178.317 39.4675 178.561 40.2673 178.525 41.0791C178.554 41.7532 178.386 42.4213 178.041 43.0022C177.649 43.6153 177.1 44.1132 176.45 44.4446C174.996 45.3606 173.411 46.0551 171.749 46.5051C169.97 46.9964 168.134 47.2505 166.287 47.2607C163.441 47.2303 160.644 46.5237 158.129 45.2001Z" fill="#414141"/>
<path d="M185.3 46.0242C184.917 45.6516 184.619 45.2006 184.428 44.7026C184.237 44.2045 184.157 43.6712 184.194 43.1394V4.53875C184.15 4.01663 184.227 3.49141 184.419 3.0033C184.61 2.5152 184.912 2.07715 185.3 1.72269C186.138 1.09852 187.157 0.761108 188.204 0.761108C189.251 0.761108 190.27 1.09852 191.108 1.72269C191.506 2.07248 191.819 2.5079 192.023 2.99586C192.227 3.48383 192.316 4.01149 192.283 4.53875V43.1394C192.308 43.676 192.216 44.2117 192.014 44.7097C191.811 45.2076 191.502 45.6561 191.108 46.0242C190.289 46.6904 189.263 47.0544 188.204 47.0544C187.146 47.0544 186.12 46.6904 185.3 46.0242Z" fill="#414141"/>
<path d="M201.202 7.42357C200.764 7.02398 200.42 6.53412 200.193 5.98832C199.966 5.44253 199.862 4.85402 199.888 4.26408C199.855 3.68347 199.957 3.10307 200.184 2.56733C200.412 2.03159 200.76 1.55474 201.202 1.17328C202.196 0.37311 203.449 -0.0417352 204.728 0.00564535C205.988 -0.0541717 207.223 0.363138 208.185 1.17328C208.627 1.55474 208.975 2.03159 209.202 2.56733C209.43 3.10307 209.531 3.68347 209.498 4.26408C209.525 4.85402 209.421 5.44253 209.194 5.98832C208.967 6.53412 208.623 7.02398 208.185 7.42357C207.207 8.2526 205.942 8.67131 204.659 8.5912C204.032 8.65312 203.399 8.58094 202.803 8.37953C202.207 8.17812 201.661 7.85215 201.202 7.42357ZM201.824 46.0242C201.441 45.6516 201.143 45.2007 200.952 44.7026C200.761 44.2046 200.681 43.6712 200.718 43.1395V18.207C200.674 17.6849 200.751 17.1597 200.942 16.6716C201.134 16.1835 201.436 15.7454 201.824 15.391C202.662 14.7668 203.681 14.4294 204.728 14.4294C205.775 14.4294 206.794 14.7668 207.632 15.391C208.03 15.7408 208.343 16.1762 208.547 16.6641C208.75 17.1521 208.839 17.6798 208.807 18.207V43.2082C208.832 43.7448 208.74 44.2805 208.537 44.7784C208.335 45.2764 208.026 45.7248 207.632 46.0929C206.833 46.7942 205.793 47.1632 204.728 47.1232C203.66 47.1072 202.632 46.7181 201.824 46.0242Z" fill="#414141"/>
<path d="M222.98 45.2001C220.579 43.9026 218.627 41.9158 217.38 39.4993C216.037 36.8381 215.372 33.8899 215.444 30.9138C215.384 27.8789 216.097 24.8781 217.518 22.1909C218.833 19.7419 220.824 17.7166 223.257 16.3527C225.865 14.9494 228.795 14.2396 231.761 14.2921C233.49 14.2884 235.211 14.5195 236.877 14.979C238.467 15.3834 239.983 16.0323 241.371 16.9022C241.989 17.2436 242.506 17.7407 242.87 18.3435C243.234 18.9463 243.433 19.6335 243.445 20.3364C243.503 21.1507 243.257 21.9578 242.753 22.603C242.542 22.8776 242.27 23.1007 241.958 23.2555C241.647 23.4102 241.304 23.4924 240.956 23.4959C240.432 23.4731 239.917 23.3568 239.435 23.1524C238.892 22.9287 238.361 22.6765 237.845 22.3969C236.973 21.8642 236.046 21.4267 235.079 21.0919C234.127 20.7492 233.119 20.5861 232.106 20.6111C229.41 20.6111 227.336 21.504 225.884 23.2211C224.432 24.9382 223.672 27.4796 223.672 30.7764C223.672 34.0046 224.432 36.4772 225.884 38.263C227.336 39.9801 229.41 40.873 232.106 40.873C233.097 40.9042 234.083 40.7408 235.01 40.3922C235.84 40.0488 236.808 39.6367 237.845 39.0872C238.377 38.7529 238.931 38.4546 239.504 38.1943C239.964 38.0043 240.458 37.9107 240.956 37.9196C241.297 37.9086 241.635 37.985 241.938 38.1413C242.24 38.2977 242.498 38.5288 242.684 38.8125C243.168 39.4675 243.412 40.2673 243.376 41.0791C243.405 41.7532 243.237 42.4213 242.892 43.0022C242.501 43.6153 241.952 44.1132 241.302 44.4446C239.847 45.3606 238.262 46.0551 236.6 46.5051C234.821 46.9964 232.985 47.2505 231.138 47.2607C228.292 47.2303 225.495 46.5237 222.98 45.2001Z" fill="#414141"/>
<path d="M278.635 43.1394C278.631 44.1412 278.234 45.1019 277.529 45.8181C277.224 46.18 276.844 46.4719 276.414 46.6735C275.984 46.8751 275.515 46.9816 275.04 46.9857C274.024 46.9542 273.059 46.5362 272.344 45.8181L257.134 32.0812V43.1394C257.166 43.6667 257.077 44.1943 256.873 44.6823C256.67 45.1703 256.357 45.6057 255.958 45.9555C255.121 46.5796 254.102 46.9171 253.055 46.9171C252.007 46.9171 250.989 46.5796 250.151 45.9555C249.763 45.6009 249.461 45.1628 249.269 44.6747C249.078 44.1867 249.001 43.6615 249.045 43.1394V4.53875C249.001 4.01665 249.078 3.49151 249.269 3.00345C249.461 2.51538 249.763 2.07731 250.151 1.72269C250.989 1.09852 252.007 0.761108 253.055 0.761108C254.102 0.761108 255.121 1.09852 255.958 1.72269C256.357 2.07248 256.67 2.5079 256.873 2.99586C257.077 3.48383 257.166 4.01149 257.134 4.53875V28.853L271.03 15.5969C271.376 15.2305 271.794 14.938 272.257 14.7373C272.721 14.5365 273.221 14.4317 273.727 14.4293C274.217 14.4258 274.702 14.5214 275.154 14.7103C275.606 14.8992 276.014 15.1775 276.354 15.5283C276.712 15.862 276.996 16.2668 277.186 16.7164C277.377 17.1661 277.47 17.6505 277.46 18.1383C277.447 18.6555 277.33 19.1649 277.117 19.6366C276.903 20.1084 276.597 20.5331 276.216 20.8857L265.983 30.3641L277.322 40.4607C277.721 40.788 278.045 41.1964 278.271 41.6585C278.498 42.1206 278.622 42.6256 278.635 43.1394Z" fill="#414141"/>
<path d="M317.997 57.97C333.442 57.97 345.963 45.5312 345.963 30.1872C345.963 14.8431 333.442 2.4043 317.997 2.4043C302.552 2.4043 290.031 14.8431 290.031 30.1872C290.031 45.5312 302.552 57.97 317.997 57.97Z" stroke="#414141" stroke-width="1.5"/>
<path d="M318.031 49.968C329.009 49.968 337.908 41.1271 337.908 30.2213C337.908 19.3154 329.009 10.4745 318.031 10.4745C307.054 10.4745 298.154 19.3154 298.154 30.2213C298.154 41.1271 307.054 49.968 318.031 49.968Z" stroke="#414141" stroke-width="1.5"/>
<path d="M317.859 19.5751C315.043 19.5751 312.395 20.6647 310.403 22.643C308.412 24.6214 307.315 27.2517 307.315 30.0495C307.315 32.8473 308.412 35.4777 310.403 37.456C312.395 39.4344 315.043 40.5239 317.859 40.5239C320.675 40.5239 323.323 39.4344 325.314 37.456C327.305 35.4777 328.402 32.8473 328.402 30.0495C328.402 27.2517 327.305 24.6214 325.314 22.643C323.323 20.6647 320.675 19.5751 317.859 19.5751ZM317.859 17.858C324.636 17.858 330.131 23.3163 330.131 30.0495C330.131 36.7827 324.636 42.241 317.859 42.241C311.081 42.241 305.587 36.7827 305.587 30.0495C305.587 23.3163 311.081 17.858 317.859 17.858Z" fill="#414141"/>
</g>
<defs>
<clipPath id="clip0">
<rect width="347" height="59" fill="white"/>
</clipPath>
</defs>
</svg>
