<svg xmlns="http://www.w3.org/2000/svg" xmlns:xlink="http://www.w3.org/1999/xlink" width="125.232" height="112.281" viewBox="0 0 125.232 112.281">
  <defs>
    <linearGradient id="linear-gradient" x1="1.457" y1="-0.176" x2="0" y2="0.559" gradientUnits="objectBoundingBox">
      <stop offset="0" stop-color="#c5f3eb"/>
      <stop offset="0.416" stop-color="#f3fcdf"/>
      <stop offset="1" stop-color="#bbefe6"/>
    </linearGradient>
    <clipPath id="clip-path">
      <rect id="Rectangle_539" data-name="Rectangle 539" width="112" height="94.143" transform="translate(585 270)" fill="#fff" stroke="#707070" stroke-width="1"/>
    </clipPath>
  </defs>
  <g id="Group_1150" data-name="Group 1150" transform="translate(-585.945 -239.719)">
    <path id="Path_4630" data-name="Path 4630" d="M63.8,6.2c53.908-15.905,46.385.642,46.385,28.829S83.28,87.61,55.092,87.61,0,73.064,0,44.877,9.9,22.1,63.8,6.2Z" transform="translate(585.945 260.813) rotate(-11)" fill="url(#linear-gradient)"/>
    <g id="Mask_Group_24" data-name="Mask Group 24" transform="translate(4 -12.143)" clip-path="url(#clip-path)">
      <g id="Group_1137" data-name="Group 1137" transform="translate(339.434 281.736)">
        <path id="path870" d="M102.837-133.834l14.339,20.344-4.93,1.679L98.619-121.7l.617-6.879,3.6-5.251" transform="translate(209.368 160.382)" fill="#f8b68f"/>
        <path id="path872" d="M102.707-142.319c6.461,4.654,1.433,44.5,1.433,44.5l-25.861-5.024s2.018-40.436,24.428-39.48" transform="translate(206.463 159.167)" fill="#24a7b2"/>
        <path id="path874" d="M96.692-141.749l2.521-3.694,4.464,2.324-1.518,4.96a.864.864,0,0,1-.133.059,14.2,14.2,0,0,0-5.334-3.65" transform="translate(209.093 158.724)" fill="#f8b68f"/>
        <path id="path876" d="M99.5-153.248l-1.244,6.86a1.077,1.077,0,0,1,.63,1.553,1.3,1.3,0,0,1,0,.526,7.987,7.987,0,0,0,5.711,2.822c4.483.184,3.838-8.715,3.838-8.715l-8.93-3.046" transform="translate(209.316 157.608)" fill="#f8b68f"/>
        <path id="path878" d="M96.583-148.116a4.268,4.268,0,0,0-.647-2.132c-1.936-2.671.6-3.694,1.482-4.008.981-.349,1.176-1.935,2.482-2.539,2-.925,3.3.824,4.424.876s2.133-1.225,3.524-.1.929,2.319,1.31,2.958,1.642-.584,2.788,1.417c1.742,3.043-3.074,3.04-3.074,3.04a8.5,8.5,0,0,1-5.745-1.626,1.117,1.117,0,0,0-1.354.014c-1.043.895-2.378,6.548-2.378,6.548l-.889-1.175a3.152,3.152,0,0,1-1.924-3.278" transform="translate(208.883 157.063)" fill="#414141"/>
        <path id="path880" d="M98.553-148.065a1.069,1.069,0,0,0,1.224.887,1.07,1.07,0,0,0,.887-1.225,1.069,1.069,0,0,0-1.225-.887,1.068,1.068,0,0,0-.886,1.225" transform="translate(209.357 158.172)" fill="#f8a37b"/>
        <path id="path882" d="M58.8-66.385s-2.056,2.215-3.343,7.27c-.284,1.112.1,2.312-1.74,2.312v-6.132l.883-5.1h-.883v-2.754s4.505-.766,5.083.841v3.564" transform="translate(202.954 169.362)" fill="#414141"/>
        <path id="path884" d="M61.472-66.954l-3.236.541h0a3.116,3.116,0,0,1-.113-3.375l.113-.189,3.236-.8v3.821" transform="translate(203.52 169.39)" fill="#f8a37b"/>
        <path id="path886" d="M95.822-45.859s.015,3.439,6.924,5.5c1.417.426.957.845,1.223,1.44H96.018l-3.114-3.5-.968.832L89.692-43.79s1.048-3.191,2.757-3.22l3.374,1.15" transform="translate(208.093 172.785)" fill="#414141"/>
        <path id="path888" d="M96.769-48.455l-1.291,2.979h0a3.116,3.116,0,0,1-3.231-.981l-.143-.169,1.044-3.063,3.621,1.235" transform="translate(208.438 172.402)" fill="#f8a37b"/>
        <path id="path890" d="M81.411-99.969s.3,10.2,4.21,19.092a4.684,4.684,0,0,1-3.317,6.5c-14.1,2.954-22.053,7.692-22.053,7.692v4.851l32.885-4.5A11.556,11.556,0,0,0,103.064-76.6l1.051-10.171-22.7-13.2" transform="translate(203.887 165.22)" fill="#69bcc4"/>
        <path id="path892" d="M102.53-101.264S113.9-79.946,113.9-73.332s-15.3,32.4-15.3,32.4H94.222S95-57.273,97.958-70.823a7.738,7.738,0,0,0-2.227-7.3c-9.3-8.724-17.547-23.14-17.547-23.14H102.53" transform="translate(206.449 165.035)" fill="#69bcc4"/>
        <path id="path894" d="M57.359-109.263,59.71-84.852l79.35-9.763-2.939-24.254-78.762,9.606" transform="translate(203.474 162.52)" fill="#ffdd6a"/>
        <text id="_" data-name="******" transform="matrix(0.995, -0.105, 0.105, 0.995, 0, 81.644)" fill="#fff" font-size="20" font-family="UrbaneRounded-DemiBold, Urbane Rounded" font-weight="300"><tspan x="274.897" y="20">******</tspan></text>
        <path id="path896" d="M84.523-130.64l9.006,5.568-6.49,7.439L86.113-96.48l-3.5-.682S77.134-113.5,78.226-119.12s6.3-11.52,6.3-11.52" transform="translate(206.434 160.838)" fill="#f8b68f"/>
        <path id="path898" d="M86.044-100.665l-.032,4.2a3.458,3.458,0,0,1-.575,1.895c-.7,1.06-1.955,2.614-3.11,2.39-1.73-.337-3.763-4.323-3.763-4.323l3.979-4.841,3.5.682" transform="translate(206.503 165.023)" fill="#f8b68f"/>
      </g>
    </g>
  </g>
</svg>
