<svg width="37" height="38" viewBox="0 0 37 38" fill="none" xmlns="http://www.w3.org/2000/svg">
<g clip-path="url(#clip0)">
<path d="M0 18.9998V9.17832e-05H37.0006V38H0V18.9998Z" fill="#BCBCBE"/>
<path d="M20.67 33.1161L20.9981 32.8595V33.1021C20.9981 33.3308 21.0263 33.3447 21.4621 33.3447H21.9261L21.9015 31.2781L21.8767 29.2114L21.4366 29.1835L20.9981 29.1538L20.9974 30.3704C20.9964 32.17 20.8223 32.5855 20.0667 32.5855C19.4566 32.5855 19.3862 32.4022 19.3325 30.6986L19.2866 29.2114L18.8006 29.1835L18.3154 29.1555V30.4856C18.3154 32.1159 18.4277 32.7233 18.7931 33.0742C19.1058 33.3744 19.308 33.4338 19.907 33.3989C20.2112 33.3814 20.4416 33.2959 20.67 33.1161Z" fill="white"/>
<path d="M24.5826 33.3797C24.7525 33.3325 24.7899 33.2557 24.7899 32.9538C24.7899 32.5907 24.7858 32.5855 24.4392 32.5855C24.2454 32.5855 24.037 32.5331 23.9768 32.4703C23.9021 32.3934 23.8654 31.9606 23.8654 31.1402V29.9253H24.7899V29.1643H23.8654V27.9302H22.9401V29.1643H22.663C22.4014 29.1643 22.385 29.1852 22.385 29.5448C22.385 29.9044 22.4014 29.9253 22.663 29.9253H22.9401V31.3374C22.9401 32.6361 22.9561 32.7705 23.1379 33.0079C23.2467 33.1493 23.4235 33.3029 23.5316 33.3465C23.7634 33.4425 24.2912 33.4599 24.5826 33.3797Z" fill="white"/>
<path d="M27.7284 33.2924C28.535 32.9468 28.8009 32.4563 28.8086 31.3025C28.8155 30.2413 28.6343 29.8188 27.9987 29.4139C27.641 29.1852 27.4718 29.1416 26.9646 29.1416C26.4564 29.1416 26.2872 29.1852 25.9302 29.4139C25.2929 29.8223 25.1604 30.1522 25.1604 31.3287C25.1604 32.4231 25.2573 32.7251 25.7178 33.062C26.2559 33.4547 27.1193 33.5542 27.7284 33.2924Z" fill="white"/>
<path d="M26.6407 32.6169C26.5642 32.5854 26.4079 32.4737 26.2933 32.3655C26.1071 32.191 26.085 32.0827 26.085 31.306C26.085 30.3058 26.1954 30.0597 26.6883 29.9654C27.1046 29.8851 27.4218 29.9724 27.6554 30.229C27.815 30.4053 27.8433 30.5624 27.8433 31.3042C27.8433 32.0932 27.8229 32.191 27.6247 32.3812C27.4021 32.5959 26.8905 32.7181 26.6407 32.6169Z" fill="#23509C"/>
<path d="M31.8459 33.3255C32.9156 32.9956 33.2718 31.7476 32.4646 31.1576C32.3225 31.0529 31.8806 30.901 31.4822 30.8155C30.6138 30.634 30.4326 30.545 30.4326 30.3076C30.4326 29.8363 31.2392 29.6565 31.7643 30.0126C32.0295 30.1924 32.0353 30.1924 32.3412 29.9881C32.5111 29.8747 32.6369 29.7403 32.6216 29.6879C32.5587 29.4837 31.9819 29.18 31.54 29.1171C30.4812 28.967 29.6252 29.4889 29.5318 30.3407C29.4886 30.737 29.5114 30.8015 29.7969 31.093C30.058 31.3584 30.2371 31.4369 30.8847 31.5696C31.7473 31.7459 31.9129 31.8419 31.9129 32.163C31.9129 32.7007 30.9169 32.87 30.2959 32.4371L29.9492 32.1962L29.6365 32.4144C29.2854 32.6588 29.282 32.7356 29.6117 32.9869C30.1623 33.4093 31.1072 33.5525 31.8459 33.3255Z" fill="white"/>
<path d="M6.10474 31.9117V30.4804L6.37497 30.2028C6.71998 29.8485 7.13229 29.831 7.45079 30.1574C7.67174 30.3861 7.67786 30.4262 7.67786 31.868V33.3447H8.60242V32.0094C8.60242 31.0058 8.63709 30.606 8.74249 30.3983C9.00354 29.8782 9.56672 29.7664 9.94743 30.1574C10.1694 30.3861 10.1752 30.4262 10.1752 31.868V33.3447H11.0998V31.7249C11.0998 29.9777 11.0488 29.742 10.5899 29.3702C10.0902 28.967 9.12319 29.0298 8.69827 29.4941L8.48243 29.7298L8.18331 29.4592C8.01845 29.3109 7.73462 29.1607 7.55106 29.1258C7.134 29.0456 6.55683 29.1992 6.3369 29.4488C6.11256 29.7036 6.01228 29.6896 6.01228 29.4016C6.01228 29.1834 5.97829 29.1642 5.59656 29.1642H5.18018V33.3447H6.10474V31.9117Z" fill="white"/>
<path d="M13.0424 31.2554V29.1642H12.1172V33.3447H13.0424V31.2554Z" fill="white"/>
<path d="M14.8926 32.0094C14.8926 30.3267 15.0591 29.9253 15.7576 29.9253C16.4415 29.9253 16.5581 30.222 16.5581 31.9623V33.3447H17.4827V31.7738C17.4827 30.0579 17.413 29.7263 16.9786 29.3755C16.4766 28.9687 15.5747 29.035 15.0581 29.5151C14.9035 29.66 14.8926 29.653 14.8926 29.4173C14.8926 29.1782 14.8687 29.1642 14.4303 29.1642H13.968V33.3447H14.8926V32.0094Z" fill="white"/>
<path d="M13.0424 27.9774V27.4555H12.1172V28.4992H13.0424V27.9774Z" fill="white"/>
<path d="M28.019 26.1288C29.9779 25.6104 31.5398 24.4095 32.2843 22.8473C32.8655 21.6272 32.8689 21.5906 32.9087 16.3875C32.9478 11.2387 32.8842 9.99581 32.5262 8.98415C32.013 7.53118 31.0748 6.45141 29.7203 5.75218C29.4612 5.6192 29.2251 5.5099 29.1962 5.5099C29.1662 5.5099 29.1306 8.98415 29.1169 13.231L29.0914 20.9516L28.7872 21.5853C28.1805 22.8525 27.104 23.4443 25.5862 23.3465C25.1069 23.3168 24.6606 23.2225 24.3632 23.0917C23.782 22.835 23.1089 22.1456 22.8285 21.5172C22.6171 21.0424 22.616 21.032 22.5882 15.9121C22.5634 11.4264 22.5787 10.7101 22.7096 10.2064C23.1565 8.48323 25.0135 7.50535 26.8711 8.01368C27.5204 8.19099 27.8756 8.39806 28.2868 8.83821L28.6438 9.21946L28.6359 7.24564L28.6292 5.27218L28.1668 5.15242C27.142 4.88646 25.9507 4.80442 24.9139 4.92828C21.9329 5.28442 19.9172 6.75134 19.0843 9.17093L18.8243 9.92709L18.7965 15.3988C18.7659 21.5713 18.7767 21.7074 19.4185 23.0375C20.274 24.811 22.0511 25.9665 24.456 26.3156C25.3908 26.4517 27.1438 26.3592 28.019 26.1288Z" fill="white"/>
<path d="M8.04069 24.5334C9.48298 23.0602 13.0928 18.9946 14.5901 17.1566C15.5238 16.0105 16.0943 15.1353 16.5675 14.1177C18.1474 10.723 17.3316 7.12034 14.6572 5.68059C13.4674 5.03999 12.7597 4.89092 10.9616 4.90173C9.17433 4.91264 8.42479 5.06519 7.26399 5.65405C5.51785 6.54042 4.59668 8.03352 4.46751 10.1886L4.41211 11.1151H7.86224V10.6096C7.86224 9.45441 8.42819 8.49574 9.36229 8.06667C9.77084 7.87891 10.0047 7.84155 10.7849 7.84084C11.6414 7.8395 11.7638 7.86282 12.2607 8.12432C12.8634 8.44095 13.3478 9.00684 13.5007 9.57345C13.6408 10.0897 13.6163 11.5445 13.4566 12.2412C13.289 12.9702 12.791 14.0189 12.2838 14.7118C11.9531 15.1633 7.00497 21.1699 5.48556 22.9659L4.9026 23.6537V26.0294H6.57566L8.04069 24.5334Z" fill="white"/>
<path d="M17.4827 24.509V22.9904H10.2194L8.74186 24.509L7.26392 26.0294H17.4827V24.509Z" fill="white"/>
</g>
<defs>
<clipPath id="clip0">
<rect width="37" height="38" fill="white"/>
</clipPath>
</defs>
</svg>
