<svg width="106" height="36" viewBox="0 0 106 36" fill="none" xmlns="http://www.w3.org/2000/svg">
<g clip-path="url(#clip0)">
<path d="M10.2125 24.1734H24.2204L17.3528 6.3912L10.2125 24.1734ZM28.8026 36L25.3199 27.0354H9.06653L5.49375 36H0V35.0436C2.10881 34.6656 3.11169 33.6156 3.80128 31.8984L15.5696 2.5734C14.8341 1.6704 14.1958 1.287 13.2789 0.9564V0H20.8808L33.3335 31.851C33.9318 33.4266 34.8428 34.8072 37.0435 35.0436V36H28.8026Z" fill="#B9B9BB"/>
<path d="M61.2802 18.9804C59.2803 19.7406 57.188 20.0712 55.5073 20.0712C52.7778 20.0712 50.2815 19.2156 48.9135 18.3126V33.3324C51.0053 33.7104 53.143 33.8046 54.8231 33.8046C59.7362 33.8046 64.4149 32.235 64.4149 25.7016C64.4149 22.0776 62.551 19.788 61.2802 18.9804ZM54.0993 2.196C51.9169 2.196 50.1903 2.3844 48.9135 2.5734V15.8754C50.5094 17.0202 53.143 17.8824 55.5073 17.8824C58.5967 17.8824 62.4604 16.8318 62.4604 10.5876C62.4604 4.9578 59.1891 2.196 54.0993 2.196ZM43.4598 4.9578C43.4598 2.5734 42.4623 1.623 40.4624 0.9564V0H55.9178C62.415 0 68.142 3.435 68.142 9.8208C68.142 13.1136 66.6886 15.4506 64.6428 17.0676C67.5036 18.165 70.0965 20.697 70.0965 25.1766C70.0965 33.5214 63.2801 36 56.055 36H40.4624V35.0436C42.4623 34.377 43.4598 33.4266 43.4598 31.0434V4.9578Z" fill="#B9B9BB"/>
<path d="M101.635 2.2302C102.552 2.2302 103.059 1.2096 103.475 0H104.393L106 10.263H105.082C102.142 6.7338 97.8673 2.6028 91.8041 2.6028C84.771 2.6028 79.3973 7.896 79.3973 16.3056C79.3973 25.4124 85.142 32.2818 93.9182 32.2818C97.776 32.2818 101.726 31.0308 105.356 28.7058L105.863 29.8206C103.703 32.0514 99.0645 36 90.6528 36C81.3289 36 73.5161 29.4018 73.5161 17.835C73.5161 8.4096 81.0044 0 91.3877 0C97.6853 0 100.346 2.2302 101.635 2.2302Z" fill="#B9B9BB"/>
</g>
<defs>
<clipPath id="clip0">
<rect width="106" height="36" fill="white"/>
</clipPath>
</defs>
</svg>
