<svg width="50" height="28" viewBox="0 0 50 28" fill="none" xmlns="http://www.w3.org/2000/svg">
<path d="M16.6016 16.7617C16.6016 18.3568 16.2923 19.8053 15.6738 21.1074C15.0553 22.4095 13.9486 23.321 12.3535 23.8418C11.6048 24.0697 10.7259 24.0534 9.7168 23.793C8.74023 23.5 8.10547 22.7676 7.8125 21.5957C7.19401 18.959 7.77995 17.0872 9.57031 15.9805C11.3932 14.8411 13.737 14.0436 16.6016 13.5879C16.6016 13.5879 16.6016 13.8646 16.6016 14.418C16.6016 14.9388 16.6016 15.7201 16.6016 16.7617ZM47.3633 13.7832C46.1263 12.5137 44.3522 11.6673 42.041 11.2441C39.7624 10.7884 37.7116 10.3815 35.8887 10.0234C34.0983 9.69792 32.7962 9.20964 31.9824 8.55859C31.1686 7.90755 30.7617 7.20768 30.7617 6.45898C30.7617 6.10091 31.071 5.44987 31.6895 4.50586C32.3405 3.5293 33.9681 3.04102 36.5723 3.04102C39.1439 3.04102 40.9993 3.54557 42.1387 4.55469C43.278 5.53125 44.515 7.02865 45.8496 9.04688H47.4609V1.18555H45.8008C45.8008 1.18555 45.4753 1.46224 44.8242 2.01562C44.1732 2.53646 43.8477 2.7806 43.8477 2.74805C43.099 2.42253 42.0898 1.99935 40.8203 1.47852C39.5833 0.92513 38.1348 0.648438 36.4746 0.648438C32.7637 0.648438 30.1107 1.60872 28.5156 3.5293C26.9206 5.41732 26.123 7.24023 26.123 8.99805C26.123 10.5605 26.4486 11.7975 27.0996 12.709C27.7832 13.6204 28.8411 14.5319 30.2734 15.4434C31.6732 16.3548 33.5612 17.0221 35.9375 17.4453C38.3138 17.8685 40.2507 18.2103 41.748 18.4707C43.2454 18.7637 44.1569 19.2194 44.4824 19.8379C44.8079 20.4564 44.9707 21.1074 44.9707 21.791C44.9707 22.4421 44.5312 23.207 43.6523 24.0859C42.806 24.9648 41.1784 25.4043 38.7695 25.4043C36.3932 25.4043 34.2611 24.8021 32.373 23.5977C30.485 22.3932 28.9714 20.5378 27.832 18.0312H25.3906V21.498C25.3906 22.377 25.293 22.9141 25.0977 23.1094C24.9349 23.3047 24.707 23.4023 24.4141 23.4023C24.1862 23.4023 23.9421 23.3047 23.6816 23.1094C23.4212 22.8815 23.291 22.3444 23.291 21.498V9.19336C23.291 5.87305 22.2168 3.64323 20.0684 2.50391C17.9199 1.36458 15.4622 0.794922 12.6953 0.794922C10.4492 0.794922 8.20312 1.2832 5.95703 2.25977C3.74349 3.20378 2.3763 4.63607 1.85547 6.55664C1.69271 7.14258 1.80664 8.05404 2.19727 9.29102C2.58789 10.528 3.56445 11.1465 5.12695 11.1465C6.62435 11.1465 7.60091 10.8861 8.05664 10.3652C8.51237 9.81185 8.80534 9.22591 8.93555 8.60742C9.06576 8.02148 9.04948 7.50065 8.88672 7.04492C8.75651 6.58919 8.49609 6.06836 8.10547 5.48242C7.61719 4.73372 7.84505 4.13151 8.78906 3.67578C9.76562 3.1875 10.7422 2.94336 11.7188 2.94336C13.8021 2.94336 15.1367 3.5293 15.7227 4.70117C16.3086 5.87305 16.6016 7.01237 16.6016 8.11914V11.3418C13.0859 11.9277 10.2376 12.5951 8.05664 13.3438C5.9082 14.0924 4.23177 14.89 3.02734 15.7363C1.85547 16.5501 1.05794 17.429 0.634766 18.373C0.244141 19.2845 0.0488281 20.2122 0.0488281 21.1562C0.0488281 23.0768 0.716146 24.623 2.05078 25.7949C3.41797 26.9668 5.24089 27.5527 7.51953 27.5527C9.79818 27.5527 11.5723 27.1458 12.8418 26.332C14.1113 25.4857 15.4622 24.3626 16.8945 22.9629C17.2526 24.0046 17.8548 25.0299 18.7012 26.0391C19.5801 27.0156 20.9473 27.5039 22.8027 27.5039C24.6582 27.5039 25.9928 26.9993 26.8066 25.9902C27.653 24.9811 28.1087 23.9883 28.1738 23.0117C28.4993 23.4349 29.4596 24.3138 31.0547 25.6484C32.6823 26.9505 35.2051 27.6016 38.623 27.6016C42.9199 27.6016 45.8333 26.7389 47.3633 25.0137C48.9258 23.2559 49.7721 21.6934 49.9023 20.3262C50 18.959 49.9023 17.8359 49.6094 16.957C49.349 16.0781 48.6003 15.0202 47.3633 13.7832Z" fill="#B9B9BB"/>
</svg>
