<svg width="31" height="31" viewBox="0 0 31 31" fill="none" xmlns="http://www.w3.org/2000/svg">
<g clip-path="url(#clip0)">
<path d="M30.8705 27.7375C30.8705 29.1424 29.7466 30.2663 28.3418 30.2663H3.4289C2.02404 30.2663 0.900146 29.1424 0.900146 27.7375V2.82465C0.900146 1.41979 2.02404 0.295898 3.4289 0.295898H28.4354C29.7466 0.295898 30.8705 1.41979 30.8705 2.82465V27.7375Z" fill="#B9B9BB"/>
<path d="M24.5955 12.7524H23.378C22.7224 12.7524 22.1604 12.1904 22.1604 11.5348C22.1604 8.06949 19.3507 5.25977 15.8854 5.25977H12.1391C8.67374 5.25977 5.86401 8.06949 5.86401 11.5348V19.0274C5.86401 22.4927 8.67374 25.3025 12.1391 25.3025H19.6317C23.097 25.3025 25.9067 22.4927 25.9067 19.0274V14.0636C25.9067 13.3143 25.3448 12.7524 24.5955 12.7524ZM12.0454 10.3173H16.541C17.1966 10.3173 17.7585 10.8792 17.7585 11.5348C17.7585 12.1904 17.1966 12.7524 16.541 12.7524H12.0454C11.3898 12.7524 10.8279 12.1904 10.8279 11.5348C10.8279 10.8792 11.3898 10.3173 12.0454 10.3173ZM19.7253 20.245H12.1391C11.4835 20.245 10.9215 19.683 10.9215 19.0274C10.9215 18.3718 11.4835 17.8099 12.1391 17.8099H19.7253C20.3809 17.8099 20.9429 18.3718 20.9429 19.0274C20.9429 19.683 20.3809 20.245 19.7253 20.245Z" fill="white"/>
<path d="M30.8705 27.7375C30.8705 29.1424 29.7466 30.2663 28.3418 30.2663H3.4289C2.02404 30.2663 0.900146 29.1424 0.900146 27.7375V2.82465C0.900146 1.41979 2.02404 0.295898 3.4289 0.295898H28.4354C29.7466 0.295898 30.8705 1.41979 30.8705 2.82465V27.7375Z" fill="url(#paint0_radial)"/>
</g>
<defs>
<radialGradient id="paint0_radial" cx="0" cy="0" r="1" gradientUnits="userSpaceOnUse" gradientTransform="translate(0.962896 0.326805) scale(42.2948)">
<stop stop-color="white" stop-opacity="0.1"/>
<stop offset="1" stop-color="white" stop-opacity="0"/>
</radialGradient>
<clipPath id="clip0">
<rect width="29.9704" height="29.9704" fill="white" transform="translate(0.900146 0.295898)"/>
</clipPath>
</defs>
</svg>
