<svg width="192" height="33" viewBox="0 0 192 33" fill="none" xmlns="http://www.w3.org/2000/svg">
<path d="M2.21826 30.8733V26.8766H5.52735V27.3533H2.80008V28.5633H5.30917V29.04H2.80008V30.3966H5.60008V30.8733H2.21826Z" fill="#B9B9BB"/>
<path d="M7.85449 30.8733V26.8766H8.47267V30.3966H10.7272V30.8733H7.85449Z" fill="#B9B9BB"/>
<path d="M15.7822 30.8733V26.8766H17.3459C17.7095 26.8766 17.964 26.9133 18.1459 26.95C18.4004 26.9866 18.6186 27.0966 18.8004 27.2433C19.055 27.4266 19.2368 27.6466 19.3459 27.94C19.455 28.2333 19.5277 28.5266 19.5277 28.8933C19.5277 29.1866 19.4913 29.48 19.4186 29.7C19.3459 29.92 19.2368 30.14 19.0913 30.2866C18.9822 30.4333 18.8368 30.5433 18.6913 30.6533C18.5459 30.7266 18.364 30.8 18.1459 30.8366C17.9277 30.8733 17.6731 30.91 17.4186 30.91H15.7822V30.8733ZM16.4004 30.3966H17.3822C17.6731 30.3966 17.9277 30.36 18.0731 30.3233C18.255 30.2866 18.364 30.2133 18.4731 30.1033C18.6186 29.9933 18.7277 29.81 18.8004 29.59C18.8731 29.37 18.9095 29.1133 18.9095 28.82C18.9095 28.4166 18.8368 28.0866 18.6913 27.8666C18.5459 27.6466 18.3277 27.5 18.1095 27.4266C17.964 27.39 17.6731 27.3533 17.3459 27.3533H16.4004V30.3966Z" fill="#B9B9BB"/>
<path d="M21.9272 30.8733V26.8766H22.5454V30.8733H21.9272Z" fill="#B9B9BB"/>
<path d="M24.5093 30.8733L26.2547 26.8766H26.9093L28.7638 30.8733H28.0729L27.5275 29.6633H25.6365L25.1275 30.8733H24.5093ZM25.8184 29.2233H27.3456L26.8729 28.1233C26.7275 27.7933 26.6184 27.5 26.5456 27.28C26.4729 27.5366 26.4002 27.7933 26.2911 28.05L25.8184 29.2233Z" fill="#B9B9BB"/>
<path d="M30.6909 30.8733V26.8766H32.7273C33.1273 26.8766 33.4546 26.9133 33.6364 26.9866C33.8546 27.06 34 27.17 34.1455 27.3533C34.2546 27.5366 34.3273 27.72 34.3273 27.94C34.3273 28.2333 34.2182 28.4533 34 28.6733C33.7818 28.8566 33.4546 29.0033 33.0182 29.04C33.1636 29.1133 33.3091 29.1866 33.3818 29.2233C33.5636 29.37 33.7091 29.5533 33.8909 29.7366L34.6909 30.8366H33.9273L33.3091 29.9933C33.1273 29.7366 32.9818 29.5533 32.8727 29.4433C32.7636 29.3333 32.6546 29.2233 32.5818 29.1866C32.5091 29.15 32.4 29.1133 32.2909 29.0766C32.2182 29.0766 32.1091 29.04 31.9636 29.04H31.2727V30.8H30.6909V30.8733ZM31.3091 28.6366H32.6182C32.9091 28.6366 33.0909 28.6 33.2727 28.5633C33.4182 28.5266 33.5636 28.4166 33.6364 28.3066C33.7091 28.1966 33.7455 28.0866 33.7455 27.94C33.7455 27.7566 33.6727 27.61 33.5273 27.4633C33.3818 27.3533 33.1273 27.28 32.8 27.28H31.3455V28.6366H31.3091Z" fill="#B9B9BB"/>
<path d="M36.7998 30.8733V26.8766H37.418V30.8733H36.7998Z" fill="#B9B9BB"/>
<path d="M39.7456 28.93C39.7456 28.27 39.9638 27.7567 40.3638 27.39C40.7638 27.0234 41.3092 26.84 41.9274 26.84C42.3638 26.84 42.7274 26.9134 43.0547 27.0967C43.382 27.28 43.6365 27.5 43.8183 27.83C44.0001 28.16 44.0729 28.49 44.0729 28.8934C44.0729 29.2967 43.9638 29.6634 43.782 29.9934C43.6002 30.3234 43.3456 30.5434 42.982 30.7267C42.6547 30.8734 42.2547 30.9834 41.8911 30.9834C41.4547 30.9834 41.0911 30.91 40.7274 30.7267C40.4001 30.5434 40.1456 30.2867 39.9638 29.9934C39.8183 29.6267 39.7456 29.2967 39.7456 28.93ZM40.3638 28.93C40.3638 29.4067 40.5092 29.7734 40.8001 30.0667C41.0911 30.36 41.4547 30.47 41.9274 30.47C42.3638 30.47 42.7638 30.3234 43.0547 30.0667C43.3456 29.7734 43.4911 29.4067 43.4911 28.8934C43.4911 28.5634 43.4183 28.27 43.3092 28.05C43.2001 27.7934 43.0183 27.61 42.7638 27.5C42.5092 27.3534 42.2547 27.3167 41.9638 27.3167C41.5274 27.3167 41.1638 27.4267 40.8729 27.72C40.5092 27.9034 40.3638 28.3434 40.3638 28.93Z" fill="#B9B9BB"/>
<path d="M49.4912 30.8733V26.8766H51.0548C51.4185 26.8766 51.673 26.9133 51.8548 26.95C52.1094 26.9866 52.3276 27.0966 52.5094 27.2433C52.7639 27.4266 52.9458 27.6466 53.0548 27.94C53.1639 28.2333 53.2367 28.5266 53.2367 28.8933C53.2367 29.1866 53.2003 29.48 53.1276 29.7C53.0549 29.92 52.9458 30.14 52.8003 30.2866C52.6912 30.4333 52.5458 30.5433 52.4003 30.6533C52.2548 30.7266 52.073 30.8 51.8548 30.8366C51.6367 30.8733 51.3821 30.91 51.1276 30.91H49.4912V30.8733ZM50.073 30.3966H51.0548C51.3458 30.3966 51.6003 30.36 51.7458 30.3233C51.9276 30.2866 52.0367 30.2133 52.1458 30.1033C52.2912 29.9933 52.4003 29.81 52.473 29.59C52.5458 29.37 52.5821 29.1133 52.5821 28.82C52.5821 28.4166 52.5094 28.0866 52.3639 27.8666C52.2185 27.6466 52.0003 27.5 51.7821 27.4266C51.6367 27.39 51.3458 27.3533 51.0185 27.3533H50.073V30.3966Z" fill="#B9B9BB"/>
<path d="M55.5273 30.8733V26.8766H58.8364V27.3533H56.1455V28.5633H58.6546V29.04H56.1455V30.3966H58.9455V30.8733H55.5273Z" fill="#B9B9BB"/>
<path d="M64.3638 30.8733V26.8766H64.982V30.3966H67.2365V30.8733H64.3638Z" fill="#B9B9BB"/>
<path d="M69.1636 28.93C69.1636 28.27 69.3818 27.7567 69.7818 27.39C70.1818 27.0234 70.7272 26.84 71.3454 26.84C71.7818 26.84 72.1454 26.9134 72.4727 27.0967C72.7999 27.28 73.0545 27.5 73.2363 27.83C73.4181 28.16 73.4909 28.49 73.4909 28.8934C73.4909 29.2967 73.3818 29.6634 73.1999 29.9934C73.0181 30.3234 72.7636 30.5434 72.3999 30.7267C72.0727 30.8734 71.6727 30.9834 71.309 30.9834C70.8727 30.9834 70.509 30.91 70.1454 30.7267C69.8181 30.5434 69.5636 30.2867 69.3818 29.9934C69.2363 29.6267 69.1636 29.2967 69.1636 28.93ZM69.7818 28.93C69.7818 29.4067 69.9272 29.7734 70.2181 30.0667C70.509 30.36 70.8727 30.47 71.3454 30.47C71.7818 30.47 72.1818 30.3234 72.4727 30.0667C72.7636 29.7734 72.909 29.4067 72.909 28.8934C72.909 28.5634 72.8363 28.27 72.7272 28.05C72.6181 27.7934 72.4363 27.61 72.1818 27.5C71.9272 27.3534 71.6727 27.3167 71.3818 27.3167C70.9454 27.3167 70.5818 27.4267 70.2908 27.72C69.9272 27.9034 69.7818 28.3434 69.7818 28.93Z" fill="#B9B9BB"/>
<path d="M75.5273 29.59L76.1092 29.5533C76.1455 29.7367 76.1819 29.92 76.291 30.03C76.4001 30.14 76.5455 30.25 76.7637 30.3233C76.9819 30.3967 77.2001 30.4333 77.4546 30.4333C77.6728 30.4333 77.891 30.3967 78.0728 30.36C78.2546 30.2867 78.3637 30.2133 78.4728 30.1033C78.5455 29.9933 78.6183 29.8833 78.6183 29.7733C78.6183 29.6633 78.5819 29.5533 78.5092 29.4433C78.4364 29.3333 78.291 29.26 78.1092 29.2233C78.0001 29.1867 77.7092 29.1133 77.3092 29.04C76.9092 28.9667 76.5819 28.8567 76.4364 28.7833C76.2183 28.6733 76.0728 28.5633 75.9637 28.4167C75.8546 28.27 75.8183 28.0867 75.8183 27.9033C75.8183 27.6833 75.891 27.5 76.0001 27.3533C76.1455 27.17 76.3273 27.06 76.5819 26.95C76.8364 26.8767 77.1273 26.8033 77.4183 26.8033C77.7455 26.8033 78.0364 26.84 78.3273 26.95C78.5819 27.06 78.8001 27.17 78.9092 27.3533C79.0546 27.5367 79.1273 27.7567 79.1273 27.9767L78.5455 28.0133C78.5092 27.7567 78.4001 27.5733 78.2183 27.4267C78.0364 27.28 77.7819 27.2433 77.4183 27.2433C77.0546 27.2433 76.8001 27.3167 76.6183 27.4267C76.4364 27.5367 76.3637 27.6833 76.3637 27.8667C76.3637 28.0133 76.4364 28.1233 76.5455 28.2333C76.6546 28.3433 76.9819 28.4167 77.4546 28.5267C77.9273 28.6367 78.291 28.71 78.4728 28.7833C78.7273 28.8933 78.9455 29.04 79.0546 29.1867C79.1637 29.3333 79.2364 29.5533 79.2364 29.7367C79.2364 29.9567 79.1637 30.14 79.0183 30.3233C78.8728 30.5067 78.691 30.6533 78.4364 30.7633C78.1819 30.8733 77.891 30.91 77.5637 30.91C77.1637 30.91 76.8001 30.8733 76.5455 30.7633C76.2546 30.6533 76.0364 30.5067 75.891 30.2867C75.6001 30.1033 75.5273 29.8467 75.5273 29.59Z" fill="#B9B9BB"/>
<path d="M84.582 30.8733V26.8766H85.2002V30.3966H87.4548V30.8733H84.582Z" fill="#B9B9BB"/>
<path d="M89.5635 30.8733V26.8766H92.8726V27.3533H90.1817V28.5633H92.6908V29.04H90.1817V30.3966H92.9817V30.8733H89.5635Z" fill="#B9B9BB"/>
<path d="M98.4729 29.48L99.0911 29.6267C98.982 30.0667 98.7274 30.3967 98.4001 30.6167C98.0729 30.8367 97.6729 30.9467 97.2001 30.9467C96.7274 30.9467 96.3274 30.8733 96.0001 30.69C95.7092 30.5067 95.4547 30.25 95.3092 29.92C95.1638 29.59 95.0547 29.2233 95.0547 28.8567C95.0547 28.4533 95.1274 28.0867 95.3092 27.7567C95.4911 27.4633 95.7456 27.2067 96.0729 27.06C96.4001 26.9133 96.7638 26.8033 97.1638 26.8033C97.6365 26.8033 98.0001 26.9133 98.3274 27.0967C98.6547 27.3167 98.8365 27.5733 98.982 27.94L98.4001 28.05C98.2911 27.7567 98.1456 27.5367 97.9274 27.4267C97.7092 27.28 97.4911 27.2433 97.1638 27.2433C96.8002 27.2433 96.5092 27.3167 96.291 27.4633C96.0729 27.61 95.8911 27.7933 95.782 28.05C95.6729 28.3067 95.6365 28.5633 95.6365 28.82C95.6365 29.15 95.7092 29.4433 95.8183 29.7C95.9274 29.9567 96.1092 30.14 96.3274 30.25C96.582 30.36 96.8365 30.4333 97.0911 30.4333C97.4183 30.4333 97.7092 30.36 97.9638 30.1767C98.2547 30.0667 98.4001 29.81 98.4729 29.48Z" fill="#B9B9BB"/>
<path d="M102.4 30.8733V27.3533H100.909V26.8766H104.509V27.3533H103.018V30.8733H102.4Z" fill="#B9B9BB"/>
<path d="M106.291 28.93C106.291 28.27 106.509 27.7567 106.909 27.39C107.309 27.0234 107.855 26.84 108.473 26.84C108.909 26.84 109.273 26.9134 109.6 27.0967C109.927 27.28 110.182 27.5 110.364 27.83C110.546 28.16 110.618 28.49 110.618 28.8934C110.618 29.2967 110.509 29.6634 110.327 29.9934C110.146 30.3234 109.891 30.5434 109.527 30.7267C109.2 30.8734 108.8 30.9834 108.436 30.9834C108 30.9834 107.636 30.91 107.273 30.7267C106.946 30.5434 106.691 30.2867 106.509 29.9934C106.364 29.6267 106.291 29.2967 106.291 28.93ZM106.909 28.93C106.909 29.4067 107.055 29.7734 107.346 30.0667C107.636 30.36 108 30.47 108.473 30.47C108.909 30.47 109.309 30.3234 109.6 30.0667C109.891 29.81 110.036 29.4067 110.036 28.8934C110.036 28.5634 109.964 28.27 109.855 28.05C109.746 27.7934 109.564 27.61 109.309 27.5C109.055 27.3534 108.8 27.3167 108.509 27.3167C108.073 27.3167 107.709 27.4267 107.418 27.72C107.055 27.9034 106.909 28.3434 106.909 28.93Z" fill="#B9B9BB"/>
<path d="M112.836 30.8733V26.8766H114.873C115.273 26.8766 115.6 26.9133 115.782 26.9866C116 27.06 116.146 27.17 116.291 27.3533C116.4 27.5366 116.473 27.72 116.473 27.94C116.473 28.2333 116.364 28.4533 116.146 28.6733C115.927 28.8566 115.6 29.0033 115.164 29.04C115.309 29.1133 115.455 29.1866 115.527 29.2233C115.709 29.37 115.855 29.5533 116.036 29.7366L116.836 30.8366H116.073L115.455 29.9933C115.273 29.7366 115.127 29.5533 115.018 29.4433C114.909 29.3333 114.8 29.2233 114.727 29.1866C114.655 29.15 114.546 29.1133 114.436 29.0766C114.364 29.0766 114.255 29.04 114.109 29.04H113.455V30.8H112.836V30.8733ZM113.455 28.6366H114.764C115.055 28.6366 115.236 28.6 115.418 28.5633C115.564 28.5266 115.709 28.4166 115.782 28.3066C115.855 28.1966 115.891 28.0866 115.891 27.94C115.891 27.7566 115.818 27.61 115.673 27.4633C115.527 27.3533 115.273 27.28 114.946 27.28H113.491V28.6366H113.455Z" fill="#B9B9BB"/>
<path d="M118.873 30.8733V26.8766H122.182V27.3533H119.491V28.5633H122V29.04H119.491V30.3966H122.291V30.8733H118.873Z" fill="#B9B9BB"/>
<path d="M124.328 29.59L124.909 29.5533C124.946 29.7367 124.982 29.92 125.091 30.03C125.2 30.14 125.346 30.25 125.564 30.3233C125.782 30.3967 126 30.4333 126.255 30.4333C126.473 30.4333 126.691 30.3967 126.873 30.36C127.055 30.2867 127.164 30.2133 127.273 30.1033C127.346 29.9933 127.419 29.8833 127.419 29.7733C127.419 29.6633 127.382 29.5533 127.309 29.4433C127.237 29.3333 127.091 29.26 126.909 29.2233C126.8 29.1867 126.509 29.1133 126.109 29.04C125.709 28.9667 125.382 28.8567 125.237 28.7833C125.019 28.6733 124.873 28.5633 124.764 28.4167C124.655 28.27 124.619 28.0867 124.619 27.9033C124.619 27.6833 124.691 27.5 124.8 27.3533C124.946 27.17 125.128 27.06 125.382 26.95C125.637 26.8767 125.928 26.8033 126.219 26.8033C126.546 26.8033 126.837 26.84 127.128 26.95C127.382 27.06 127.6 27.17 127.709 27.3533C127.855 27.5367 127.928 27.7567 127.928 27.9767L127.346 28.0133C127.309 27.7567 127.2 27.5733 127.019 27.4267C126.837 27.28 126.582 27.2433 126.219 27.2433C125.855 27.2433 125.6 27.3167 125.419 27.4267C125.237 27.5367 125.164 27.6833 125.164 27.8667C125.164 28.0133 125.237 28.1233 125.346 28.2333C125.455 28.3433 125.782 28.4167 126.255 28.5267C126.728 28.6367 127.091 28.71 127.273 28.7833C127.528 28.8933 127.746 29.04 127.855 29.1867C127.964 29.3333 128.037 29.5533 128.037 29.7367C128.037 29.9567 127.964 30.14 127.819 30.3233C127.673 30.5067 127.491 30.6533 127.237 30.7633C126.982 30.8733 126.691 30.91 126.364 30.91C125.964 30.91 125.6 30.8733 125.346 30.7633C125.055 30.6533 124.837 30.5067 124.691 30.2867C124.4 30.1033 124.328 29.8467 124.328 29.59Z" fill="#B9B9BB"/>
<path d="M133.491 30.8733V26.8766H134.109V30.8733H133.491Z" fill="#B9B9BB"/>
<path d="M136.582 30.8733V26.8766H137.2L139.6 29.9933V26.8766H140.182V30.8733H139.564L137.164 27.72V30.8733H136.582Z" fill="#B9B9BB"/>
<path d="M142.654 30.8733V26.8766H145.709V27.3533H143.236V28.6H145.382V29.0766H143.236V30.8733H142.654Z" fill="#B9B9BB"/>
<path d="M147.891 30.8733V26.8766H148.509V30.3966H150.764V30.8733H147.891Z" fill="#B9B9BB"/>
<path d="M155.891 26.8766H156.509V29.1866C156.509 29.59 156.473 29.92 156.363 30.14C156.254 30.36 156.073 30.58 155.818 30.7266C155.563 30.8733 155.2 30.9466 154.763 30.9466C154.327 30.9466 154 30.8733 153.709 30.7633C153.454 30.6166 153.236 30.4333 153.127 30.2133C153.018 29.9566 152.945 29.6266 152.945 29.2233V26.9133H153.563V29.2233C153.563 29.5533 153.6 29.81 153.673 29.9933C153.745 30.14 153.854 30.2866 154.036 30.36C154.218 30.4333 154.436 30.5066 154.691 30.5066C155.127 30.5066 155.454 30.4333 155.636 30.25C155.818 30.0666 155.927 29.7366 155.927 29.2233V26.8766H155.891Z" fill="#B9B9BB"/>
<path d="M160.218 30.8733V29.1866L158.473 26.8766H159.2L160.109 28.0866C160.291 28.3066 160.436 28.5266 160.582 28.7466C160.727 28.5266 160.873 28.3066 161.091 28.05L161.964 26.8766H162.654L160.836 29.1866V30.8733H160.218Z" fill="#B9B9BB"/>
<path d="M164.618 30.8733V26.8766H167.927V27.3533H165.236V28.5633H167.745V29.04H165.236V30.3966H168.036V30.8733H164.618Z" fill="#B9B9BB"/>
<path d="M170.254 30.8733V26.8766H170.873L173.273 29.9933V26.8766H173.854V30.8733H173.236L170.836 27.72V30.8733H170.254Z" fill="#B9B9BB"/>
<path d="M177.455 30.8733V27.3533H175.964V26.8766H179.564V27.3533H178.073V30.8733H177.455Z" fill="#B9B9BB"/>
<path d="M181.637 30.8733V26.8766H184.946V27.3533H182.255V28.5633H184.764V29.04H182.255V30.3966H185.055V30.8733H181.637Z" fill="#B9B9BB"/>
<path d="M187.091 29.59L187.673 29.5533C187.709 29.7367 187.745 29.92 187.854 30.03C187.964 30.14 188.109 30.25 188.327 30.3233C188.545 30.3967 188.764 30.4333 189.018 30.4333C189.236 30.4333 189.454 30.3967 189.636 30.36C189.818 30.2867 189.927 30.2133 190.036 30.1033C190.109 29.9933 190.182 29.8833 190.182 29.7733C190.182 29.6633 190.145 29.5533 190.073 29.4433C190 29.3333 189.854 29.26 189.673 29.2233C189.564 29.1867 189.273 29.1133 188.873 29.04C188.473 28.9667 188.145 28.8567 188 28.7833C187.782 28.6733 187.636 28.5633 187.527 28.4167C187.418 28.27 187.382 28.0867 187.382 27.9033C187.382 27.6833 187.454 27.5 187.564 27.3533C187.709 27.17 187.891 27.06 188.145 26.95C188.4 26.8767 188.691 26.8033 188.982 26.8033C189.309 26.8033 189.6 26.84 189.891 26.95C190.145 27.06 190.364 27.17 190.473 27.3533C190.618 27.5367 190.691 27.7567 190.691 27.9767L190.109 28.0133C190.073 27.7567 189.964 27.5733 189.782 27.4267C189.6 27.28 189.345 27.2433 188.982 27.2433C188.618 27.2433 188.364 27.3167 188.182 27.4267C188 27.5367 187.927 27.6833 187.927 27.8667C187.927 28.0133 188 28.1233 188.109 28.2333C188.218 28.3433 188.545 28.4167 189.018 28.5267C189.491 28.6367 189.854 28.71 190.036 28.7833C190.291 28.8933 190.509 29.04 190.618 29.1867C190.727 29.3333 190.8 29.5533 190.8 29.7367C190.8 29.9567 190.727 30.14 190.582 30.3233C190.436 30.5067 190.254 30.6533 190 30.7633C189.745 30.8733 189.454 30.91 189.127 30.91C188.727 30.91 188.364 30.8733 188.109 30.7633C187.818 30.6533 187.6 30.5067 187.454 30.2867C187.164 30.1033 187.091 29.8467 187.091 29.59Z" fill="#B9B9BB"/>
<path d="M1.56396 22.44V20.8267H3.85487V4.07H1.56396V2.45667H17.6367V7.18666H16.0003V4.29H8.47305V10.7067H13.164V8.17666H14.8003V15.1067H13.164V12.5767H8.47305V20.68H16.2185V17.7833H17.8549V22.5133H1.56396V22.44Z" fill="#B9B9BB"/>
<path d="M24.6184 20.8267H26.4366V22.44H18.582V20.8267H20.4002V3.18999H18.582V1.57666H24.6184V20.8267Z" fill="#B9B9BB"/>
<path d="M51.0913 16.72C50.6186 18.7733 49.7822 20.3133 48.5459 21.3033C47.3095 22.2933 45.6732 22.8067 43.6368 22.8067C40.6186 22.8067 38.2186 21.89 36.4732 20.02C34.7277 18.15 33.855 15.62 33.855 12.43C33.855 9.24001 34.7277 6.71001 36.4732 4.84001C38.2186 2.97001 40.6186 2.05334 43.6368 2.05334C44.6913 2.05334 45.7822 2.20001 46.9459 2.49334C48.1095 2.78668 49.3095 3.22668 50.5822 3.77668V8.69001H49.0913C48.7641 7.00335 48.2186 5.75668 47.3822 4.91334C46.5459 4.07001 45.4913 3.66668 44.1459 3.66668C42.4004 3.66668 41.0913 4.40001 40.255 5.83001C39.4186 7.26001 38.9822 9.46001 38.9822 12.43C38.9822 15.4 39.4186 17.6 40.255 19.03C41.0913 20.46 42.4004 21.1567 44.1459 21.1567C45.3459 21.1567 46.3277 20.79 47.055 20.0567C47.8186 19.3233 48.3641 18.1867 48.6913 16.6833H51.0913V16.72Z" fill="#B9B9BB"/>
<path d="M59.1636 22.8433C56.9091 22.8433 55.1636 22.1833 53.8909 20.8267C52.6182 19.5067 52 17.6367 52 15.3267C52 12.98 52.6182 11.1467 53.8909 9.82668C55.1636 8.50668 56.9091 7.84668 59.1636 7.84668C61.4182 7.84668 63.1636 8.50668 64.4364 9.82668C65.7091 11.1467 66.3273 12.98 66.3273 15.3267C66.3273 17.6733 65.6727 19.5067 64.4 20.8267C63.1273 22.1833 61.3818 22.8433 59.1636 22.8433ZM59.1636 21.34C60.0364 21.34 60.6909 20.9 61.0545 20.0567C61.4182 19.2133 61.6 17.6367 61.6 15.3267C61.6 13.0533 61.4182 11.4767 61.0545 10.6333C60.6909 9.79001 60.0727 9.35001 59.1636 9.35001C58.2545 9.35001 57.6364 9.79001 57.2727 10.6333C56.9091 11.4767 56.7273 13.0533 56.7273 15.3267C56.7273 17.6 56.9091 19.1767 57.2727 20.02C57.6 20.9 58.2545 21.34 59.1636 21.34Z" fill="#B9B9BB"/>
<path d="M66.1455 22.44V20.8267H67.9637V9.82668H66.1455V8.21335H72.1819V10.23C72.691 9.38668 73.2728 8.76335 73.9273 8.39668C74.5819 8.03001 75.4182 7.84668 76.4001 7.84668C77.8182 7.84668 78.9091 8.32335 79.6364 9.27668C80.3637 10.23 80.7273 11.6233 80.7273 13.4567V20.9H82.5455V22.5133H74.9455V20.9H76.4728V13.2367C76.4728 12.0267 76.3273 11.1833 76.0728 10.7067C75.7819 10.23 75.3091 10.01 74.6546 10.01C73.8182 10.01 73.1637 10.3767 72.7637 11.0733C72.3637 11.77 72.1819 12.9067 72.1819 14.41V20.79H73.7091V22.4033H66.1455V22.44Z" fill="#B9B9BB"/>
<path d="M94.2552 5.17001H92.9097C92.837 4.47334 92.6552 3.96001 92.3643 3.63001C92.0734 3.30001 91.637 3.11668 91.0916 3.11668C90.437 3.11668 90.0006 3.37334 89.7097 3.88668C89.4188 4.40001 89.2734 5.24334 89.2734 6.38001V8.21334H92.4734V9.82668H89.2734V20.8267H91.7097V22.44H83.2007V20.8267H85.0188V9.82668H83.1279V8.21334H85.0188V6.41668C85.0188 4.84001 85.4552 3.63001 86.3643 2.82334C87.2734 2.01668 88.5825 1.61334 90.3279 1.61334C91.0188 1.61334 91.6734 1.65001 92.3279 1.72334C92.9825 1.79668 93.6006 1.94334 94.2188 2.09001V5.17001H94.2552Z" fill="#B9B9BB"/>
<path d="M99.4187 20.8267H101.237V22.44H93.3823V20.8267H95.2005V9.82668H93.3823V8.21334H99.4187V20.8267ZM94.7641 4.18001C94.7641 3.44668 94.9823 2.86001 95.4187 2.34668C95.8551 1.83334 96.4005 1.61334 97.0551 1.61334C97.6732 1.61334 98.2187 1.87001 98.655 2.34668C99.0914 2.82334 99.3096 3.44668 99.3096 4.18001C99.3096 4.87668 99.0914 5.50001 98.655 5.97668C98.2187 6.45334 97.6732 6.71001 97.0551 6.71001C96.4005 6.71001 95.8551 6.45334 95.4187 5.97668C94.9823 5.50001 94.7641 4.87668 94.7641 4.18001Z" fill="#B9B9BB"/>
<path d="M115.237 20.8267H117.055V22.44H111.018V20.6433C110.655 21.3767 110.182 21.9267 109.564 22.2933C108.946 22.66 108.182 22.8433 107.309 22.8433C105.528 22.8433 104.109 22.1833 103.055 20.8267C102.037 19.47 101.491 17.6367 101.491 15.3267C101.491 12.98 102 11.1467 103.055 9.82666C104.073 8.50666 105.491 7.84666 107.309 7.84666C108.218 7.84666 108.946 8.02999 109.564 8.39666C110.182 8.76333 110.655 9.31333 111.018 10.0467V3.18999H109.2V1.57666H115.273V20.8267H115.237ZM110.982 16.0233V14.63C110.982 12.98 110.8 11.77 110.4 11.0367C110.037 10.3033 109.418 9.93666 108.582 9.93666C107.709 9.93666 107.091 10.34 106.728 11.11C106.364 11.88 106.182 13.31 106.182 15.3633C106.182 17.4167 106.364 18.81 106.728 19.6167C107.091 20.3867 107.709 20.79 108.582 20.79C109.418 20.79 110.037 20.4233 110.4 19.69C110.8 18.8833 110.982 17.6733 110.982 16.0233Z" fill="#B9B9BB"/>
<path d="M130.691 15.9866H121.964V16.0966C121.964 17.93 122.219 19.25 122.691 20.0933C123.2 20.9 124 21.3033 125.091 21.3033C126 21.3033 126.728 21.0466 127.31 20.4966C127.891 19.9466 128.255 19.1766 128.4 18.1133H130.4C130.037 19.7266 129.382 20.9366 128.364 21.67C127.346 22.44 125.928 22.8066 124.11 22.8066C121.891 22.8066 120.219 22.1466 119.055 20.8633C117.891 19.58 117.31 17.71 117.31 15.29C117.31 12.9433 117.891 11.0733 119.128 9.75332C120.328 8.43332 122 7.77332 124.146 7.77332C126.255 7.77332 127.855 8.46998 128.982 9.86332C130.037 11.2933 130.619 13.31 130.691 15.9866ZM126.037 14.41C126.037 12.54 125.891 11.22 125.564 10.45C125.237 9.67998 124.728 9.31332 123.964 9.31332C123.237 9.31332 122.728 9.67998 122.4 10.4133C122.073 11.1466 121.928 12.3933 121.928 14.1533V14.41H126.037Z" fill="#B9B9BB"/>
<path d="M130.837 22.44V20.8267H132.655V9.82668H130.837V8.21335H136.873V10.23C137.382 9.38668 137.964 8.76335 138.619 8.39668C139.273 8.03001 140.11 7.84668 141.091 7.84668C142.51 7.84668 143.601 8.32335 144.328 9.27668C145.055 10.23 145.419 11.6233 145.419 13.4567V20.9H147.237V22.5133H139.637V20.9H141.164V13.2367C141.164 12.0267 141.019 11.1833 140.764 10.7067C140.473 10.23 140.001 10.01 139.346 10.01C138.51 10.01 137.855 10.3767 137.455 11.0733C137.055 11.77 136.873 12.9067 136.873 14.41V20.79H138.401V22.4033H130.837V22.44Z" fill="#B9B9BB"/>
<path d="M160.255 18.0033C159.927 19.6167 159.309 20.8267 158.4 21.6333C157.455 22.44 156.182 22.8433 154.582 22.8433C152.327 22.8433 150.546 22.1833 149.309 20.8633C148.073 19.5433 147.455 17.71 147.455 15.3267C147.455 12.98 148.073 11.11 149.309 9.79C150.546 8.47 152.255 7.81 154.4 7.81C155.273 7.81 156.182 7.92 157.091 8.10333C158 8.28666 158.909 8.58 159.855 8.94666V12.9067H158.509C158.4 11.6967 158.073 10.8167 157.564 10.23C157.055 9.64333 156.364 9.35 155.455 9.35C154.291 9.35 153.418 9.79 152.946 10.7067C152.436 11.5867 152.182 13.1633 152.182 15.3633C152.182 17.5267 152.436 19.0667 152.909 19.9833C153.382 20.9 154.182 21.3767 155.273 21.3767C156.109 21.3767 156.8 21.0833 157.309 20.5333C157.818 19.9467 158.146 19.14 158.255 18.0767H160.255V18.0033Z" fill="#B9B9BB"/>
<path d="M166.873 20.8267H168.691V22.44H160.837V20.8267H162.655V9.82668H160.837V8.21334H166.873V20.8267ZM162.219 4.18001C162.219 3.44668 162.437 2.86001 162.873 2.34668C163.31 1.83334 163.855 1.61334 164.51 1.61334C165.128 1.61334 165.673 1.87001 166.11 2.34668C166.546 2.82334 166.764 3.44668 166.764 4.18001C166.764 4.87668 166.546 5.50001 166.11 5.97668C165.673 6.45334 165.128 6.71001 164.51 6.71001C163.855 6.71001 163.31 6.45334 162.873 5.97668C162.473 5.50001 162.219 4.87668 162.219 4.18001Z" fill="#B9B9BB"/>
<path d="M181.419 13.7133V20.8266H183.237V22.44H177.201V20.6433C176.655 21.3766 176.037 21.9633 175.346 22.2933C174.655 22.66 173.892 22.8433 173.019 22.8433C171.71 22.8433 170.728 22.44 170.037 21.67C169.346 20.9 168.982 19.7633 168.982 18.2966C168.982 16.6833 169.492 15.51 170.473 14.7033C171.455 13.8966 172.982 13.4933 174.982 13.4933H177.201V12.65C177.201 11.5133 176.946 10.6333 176.473 10.0833C176.001 9.53332 175.237 9.27665 174.219 9.27665C173.382 9.27665 172.728 9.45998 172.255 9.86332C171.782 10.2666 171.492 10.89 171.273 11.77H169.928V8.68998C170.692 8.39665 171.492 8.13998 172.292 7.99331C173.092 7.84665 173.964 7.77332 174.873 7.77332C177.164 7.77332 178.801 8.24998 179.855 9.20332C180.91 10.1933 181.419 11.66 181.419 13.7133ZM177.201 17.9667V15.1066H175.601C174.801 15.1066 174.219 15.3633 173.782 15.84C173.346 16.3166 173.128 17.0133 173.128 17.93C173.128 18.8467 173.273 19.5066 173.601 19.9467C173.928 20.3867 174.364 20.6067 175.019 20.6067C175.673 20.6067 176.219 20.35 176.582 19.8733C176.982 19.3967 177.201 18.7733 177.201 17.9667Z" fill="#B9B9BB"/>
<path d="M189.782 20.8267H191.6V22.44H183.746V20.8267H185.564V3.18999H183.746V1.57666H189.782V20.8267Z" fill="#B9B9BB"/>
</svg>
