<svg width="145" height="34" viewBox="0 0 145 34" fill="none" xmlns="http://www.w3.org/2000/svg">
<path fill-rule="evenodd" clip-rule="evenodd" d="M144.389 33.0117L144.856 27.13H144.64L142.95 30.0896C142.015 31.738 141.44 32.0002 139.93 32.0002H137.916V11.6953C137.916 8.47349 138.312 7.87409 139.678 7.31214V7.16229H132.882V7.31214C134.248 7.87409 134.644 8.47349 134.644 11.6953V28.4787C134.644 31.7005 134.248 32.2999 132.882 32.8619V33.0117H144.389Z" fill="#B9B9BB"/>
<path fill-rule="evenodd" clip-rule="evenodd" d="M121.919 33.5736C117.676 33.5736 114.691 30.4267 114.691 20.5365C114.691 10.3091 117.892 6.63776 122.351 6.63776C126.234 6.63776 129.507 9.26016 129.507 19.6749C129.507 29.6025 126.594 33.5736 121.919 33.5736ZM122.063 32.7494C124.868 32.7494 125.767 29.4527 125.767 20.0495C125.767 10.4964 124.832 7.46194 122.135 7.46194C119.366 7.46194 118.395 10.7212 118.395 20.2743C118.395 29.6775 119.33 32.7494 122.063 32.7494Z" fill="#B9B9BB"/>
<path fill-rule="evenodd" clip-rule="evenodd" d="M108.007 0.793457L108.294 0.868385C108.079 1.69257 107.359 4.16513 105.382 4.16513C103.871 4.16513 102.721 2.74153 101.606 2.74153C100.851 2.74153 100.132 3.45333 99.8439 4.20259L99.5562 4.12766C99.772 3.30348 100.491 0.830921 102.469 0.830921C103.907 0.830921 105.094 2.14212 106.281 2.14212C107.036 2.14212 107.719 1.54272 108.007 0.793457ZM110.02 33.3862H108.366L99.2326 12.5568V26.6054C99.2326 31.7004 99.8798 32.2998 101.246 32.8618V33.0116H95.9962V32.8618C97.3627 32.2998 97.938 31.7004 97.938 26.6054V11.6952C97.938 8.47336 97.2908 7.87396 95.9243 7.31201V7.16216H100.527L108.726 26.1933V13.5683C108.726 8.47336 108.079 7.87396 106.712 7.31201V7.16216H111.926V7.31201C110.56 7.87396 110.02 8.47336 110.02 13.5683V33.3862Z" fill="#B9B9BB"/>
<path fill-rule="evenodd" clip-rule="evenodd" d="M94.0937 33.0118H87.4413V32.8619C89.3111 32.3 89.0235 30.3519 87.693 23.6835H82.4429C81.0405 30.3894 80.7529 32.1127 82.8385 32.8619V33.0118H77.8042V32.8619C78.9549 32.0752 79.4583 30.8764 81.2203 22.9342L84.7803 6.90009H87.4053L90.7855 22.8968C92.3317 30.3519 92.8351 32.0377 94.0937 32.8619V33.0118ZM87.4413 22.5221L85.1399 10.8337L82.6947 22.5221H87.4413Z" fill="#B9B9BB"/>
<path fill-rule="evenodd" clip-rule="evenodd" d="M72.5944 32.8619V33.0117H65.4385V32.8619C66.8049 32.2999 67.2005 31.7005 67.2005 28.4787V11.6953C67.2005 8.47349 66.8049 7.87409 65.4385 7.31214V7.16229H72.019C76.7297 7.16229 78.7074 8.84812 78.7074 13.8682C78.7074 19.8248 75.8307 21.3608 71.7673 21.3608H70.4728V28.4787C70.4728 31.7005 70.9402 32.2999 72.5944 32.8619ZM70.4728 8.17379V20.3867H71.4077C74.4642 20.3867 75.3992 18.0265 75.3992 14.018C75.3992 10.1968 74.5721 8.17379 71.6594 8.17379H70.4728Z" fill="#B9B9BB"/>
<path fill-rule="evenodd" clip-rule="evenodd" d="M53.0366 32.5996C53.9356 33.1615 56.0932 33.5736 57.3877 33.5736C60.8038 33.5736 63.0692 30.7639 63.0692 26.081C63.0692 17.3896 55.2301 17.5769 55.2301 11.3206C55.2301 9.26016 56.2729 7.87403 57.999 7.87403C60.0846 7.87403 61.1634 9.89703 62.0264 12.7068H62.2781V7.61179C61.3432 7.12477 60.1925 6.63776 58.7901 6.63776C55.5897 6.63776 53.0366 9.18524 53.0366 13.7557C53.0366 21.7353 60.8398 21.8103 60.8398 28.4037C60.8398 31.1385 59.5093 32.5247 57.7473 32.5247C55.7695 32.5247 54.2952 30.8388 53.2883 26.6055H53.0366V32.5996Z" fill="#B9B9BB"/>
<path fill-rule="evenodd" clip-rule="evenodd" d="M50.4524 33.0117L50.9199 27.13H50.7041L49.014 30.0896C48.0791 31.738 47.5038 32.0002 45.9935 32.0002H43.4044V20.2369H45.8856C47.1801 20.2369 47.7195 20.7613 48.7264 22.597H48.8702V16.8277H48.7264C47.6116 18.6634 47.1801 19.2254 45.8856 19.2254H43.4044V8.17379H45.7418C46.8925 8.17379 47.6116 8.54842 48.4387 10.1219L49.6973 12.4446H49.8411V7.16229H38.3701V7.31214C39.7366 7.87409 40.1321 8.47349 40.1321 11.6953V28.4787C40.1321 31.7005 39.7366 32.2999 38.3701 32.8619V33.0117H50.4524Z" fill="#B9B9BB"/>
<path fill-rule="evenodd" clip-rule="evenodd" d="M27.1935 33.0117L27.6609 27.13H27.4452L25.7551 30.0896C24.8202 31.738 24.2448 32.0002 22.7345 32.0002H20.7208V11.6953C20.7208 8.47349 21.1164 7.87409 22.4828 7.31214V7.16229H15.6865V7.31214C17.053 7.87409 17.4485 8.47349 17.4485 11.6953V28.4787C17.4485 31.7005 17.053 32.2999 15.6865 32.8619V33.0117H27.1935Z" fill="#B9B9BB"/>
<path fill-rule="evenodd" clip-rule="evenodd" d="M12.7063 33.0117L13.1738 27.13H12.958L11.268 30.0896C10.333 31.738 9.75766 32.0002 8.24738 32.0002H5.65831V20.2369H8.1395C9.43403 20.2369 9.97342 20.7613 10.9803 22.597H11.1241V16.8277H10.9803C9.86554 18.6634 9.43403 19.2254 8.1395 19.2254H5.65831V8.17379H7.99566C9.14636 8.17379 9.86554 8.54842 10.6926 10.1219L11.9512 12.4446H12.095V7.16229H0.624023V7.31214C1.99047 7.87409 2.38602 8.47349 2.38602 11.6953V28.4787C2.38602 31.7005 1.99047 32.2999 0.624023 32.8619V33.0117H12.7063Z" fill="#B9B9BB"/>
</svg>
