<svg width="232" height="31" viewBox="0 0 232 31" fill="none" xmlns="http://www.w3.org/2000/svg">
<g clip-path="url(#clip0)">
<path d="M83.8794 29.3978H93.6509V28.1178H91.5534C91.3753 28.0984 91.1997 28.0603 91.0295 28.0042C90.7249 27.9412 90.4332 27.8266 90.1669 27.6651C90.0043 27.4748 89.8835 27.252 89.8125 27.0113C89.7416 26.7707 89.7219 26.5177 89.755 26.2689V4.22838L98.1787 29.4004H100.951L109.493 4.18769V26.7597C109.494 26.9354 109.454 27.1089 109.376 27.2662C109.298 27.4235 109.185 27.5604 109.045 27.6659C108.647 27.9126 108.199 28.067 107.735 28.1178H105.561V29.3978H119.385V28.1178H117.323C117.07 28.1481 116.813 28.1221 116.57 28.0416C116.328 27.9611 116.106 27.828 115.92 27.6518C115.735 27.4756 115.59 27.2605 115.496 27.0217C115.401 26.7829 115.361 26.5262 115.376 26.2698V5.43129C115.376 4.60223 115.452 4.33859 115.864 4.07495C116.272 3.786 116.752 3.61667 117.25 3.58582H119.422V2.22948H108.181L101.628 21.4488L95.2632 2.22778H83.9165V3.58412H85.9769C86.2244 3.56485 86.4732 3.59909 86.7064 3.68454C86.9397 3.76999 87.1521 3.90467 87.3294 4.07955C87.5067 4.25442 87.6447 4.46545 87.7343 4.69844C87.8239 4.93144 87.8629 5.18103 87.8487 5.43044V25.517L87.8866 26.2698C87.8891 26.5227 87.8397 26.7734 87.7413 27.0062C87.6429 27.2389 87.4977 27.4487 87.3149 27.6223C87.132 27.7958 86.9155 27.9295 86.6789 28.0147C86.4422 28.1 86.1906 28.1351 85.9398 28.1178H83.8794V29.3978ZM119.92 3.47223H122.055C122.234 3.50619 122.409 3.5567 122.578 3.62312C122.874 3.67582 123.155 3.79142 123.403 3.9622C123.545 4.07939 123.657 4.22984 123.729 4.40047C123.801 4.57111 123.83 4.75676 123.814 4.94131V22.1617C123.814 25.2534 124.636 27.0225 126.586 28.1178C128.846 29.3156 131.372 29.9121 133.925 29.8505C137.032 29.8505 140.104 28.946 141.638 27.6651C142.496 26.8689 143.096 25.8316 143.36 24.6879C143.679 23.4966 143.832 22.2663 143.813 21.0326V5.35839C143.805 5.09894 143.852 4.84067 143.95 4.6007C144.048 4.36072 144.196 4.14452 144.384 3.96642C144.572 3.78831 144.795 3.65238 145.039 3.56762C145.282 3.48286 145.541 3.45121 145.798 3.47477H147.895V2.22778H138.044V3.47223H140.142C140.384 3.46917 140.624 3.51678 140.846 3.61204C141.069 3.7073 141.269 3.84812 141.435 4.02553C141.6 4.20294 141.727 4.41307 141.807 4.64254C141.888 4.872 141.92 5.11579 141.901 5.35839V21.2216C141.901 25.5178 140.142 27.287 135.723 27.287C132.801 27.287 130.629 26.2698 129.956 24.4997C129.681 23.5458 129.58 22.5499 129.657 21.5599V5.35839C129.646 5.10482 129.688 4.85184 129.781 4.61584C129.874 4.37985 130.015 4.16611 130.195 3.9885C130.375 3.81089 130.59 3.67338 130.827 3.58487C131.063 3.49637 131.315 3.45886 131.567 3.47477H133.621V2.22778H119.92V3.47223ZM148.426 29.3978H158.351V28.1178H156.217C156.179 28.1178 155.952 28.0796 155.656 28.0415C155.341 27.9534 155.039 27.827 154.755 27.6651C154.418 27.3616 154.305 27.0607 154.305 26.2689V7.73198L168.049 29.3995H172.206V4.90401C172.206 4.33859 172.654 3.88676 173.479 3.66042C173.705 3.62397 173.966 3.54682 174.004 3.54682H176.1V2.22778H166.44V3.54682H168.495C168.747 3.52772 169.001 3.56307 169.239 3.65051C169.477 3.73795 169.693 3.87547 169.874 4.05386C170.054 4.23226 170.195 4.44742 170.287 4.68496C170.378 4.9225 170.418 5.17695 170.404 5.43129V22.238L157.676 2.22778H148.464V3.58412H150.524C150.773 3.56376 151.024 3.59694 151.26 3.68147C151.496 3.76601 151.712 3.89996 151.892 4.07449C152.073 4.24901 152.214 4.46013 152.308 4.69388C152.401 4.92763 152.444 5.17868 152.434 5.43044V26.2698C152.437 26.5226 152.387 26.7732 152.289 27.0058C152.191 27.2385 152.045 27.4481 151.863 27.6217C151.68 27.7952 151.464 27.9288 151.227 28.0142C150.991 28.0996 150.739 28.1348 150.488 28.1178H148.427V29.3978H148.426Z" fill="#B9B9BB"/>
<path fill-rule="evenodd" clip-rule="evenodd" d="M176.816 29.397H191.344C198.872 29.397 204.3 23.5554 204.3 15.4547C204.35 13.2522 203.849 11.0726 202.841 9.1169C201.833 7.16121 200.352 5.49252 198.534 4.26486C196.259 2.8376 193.612 2.12896 190.933 2.23035H176.816V3.546H178.913C179.163 3.52768 179.415 3.56386 179.65 3.6521C179.886 3.74033 180.099 3.87855 180.277 4.05734C180.455 4.23614 180.592 4.45132 180.679 4.68826C180.767 4.9252 180.803 5.17834 180.785 5.43046V26.2689C180.817 26.5294 180.789 26.7937 180.705 27.042C180.621 27.2903 180.481 27.5161 180.298 27.7024C179.867 27.914 179.415 28.0783 178.95 28.1924H176.816V29.397ZM186.588 26.4571V5.05408C186.588 3.77318 186.888 3.4341 188.048 3.4341H191.493C192.418 3.42357 193.332 3.64128 194.154 4.06821C194.976 4.49513 195.682 5.11827 196.21 5.88314C197.017 7.33441 197.515 8.93906 197.672 10.5947C197.867 12.3716 197.966 14.1578 197.969 15.9455C197.969 24.3497 195.797 28.2314 191.08 28.2314H188.085C186.968 28.2297 186.594 27.8152 186.594 26.4571H186.588ZM206.791 15.8302C206.791 24.1598 211.845 29.7734 219.375 29.7734C226.904 29.7734 231.995 24.1598 231.995 15.8302C232.098 12.1961 230.887 8.64788 228.587 5.84415C226.34 3.16961 223.344 1.84973 219.375 1.84973C217.633 1.76538 215.896 2.08124 214.294 2.77334C212.692 3.46544 211.268 4.5156 210.13 5.84415C207.868 8.66505 206.686 12.2082 206.797 15.831L206.791 15.8302ZM213.796 7.95495C214.543 4.97778 216.453 3.43325 219.375 3.43325C222.296 3.43325 224.168 4.97778 224.992 7.95495C225.514 9.87671 225.665 11.9121 225.665 15.831C225.665 19.7119 225.515 21.7108 224.992 23.6698C224.205 26.6097 222.296 28.1932 219.375 28.1932C216.453 28.1932 214.581 26.6097 213.796 23.6698C213.233 21.7489 213.046 19.7509 213.046 15.831C213.052 11.8748 213.239 9.91571 213.801 7.9558L213.796 7.95495Z" fill="#B9B9BB"/>
<path d="M0 29.3978H24.2654L25.0143 20.6562H23.5865C23.0246 25.517 19.9542 28.1932 14.862 28.1932H11.1193C10.1085 28.1932 9.69573 27.7032 9.69573 26.6097V15.2291H11.6441C13.6279 15.2291 15.3885 15.681 16.1753 16.3973C17.0384 17.3282 17.5199 18.5531 17.5231 19.8263C17.5283 20.0783 17.5159 20.3305 17.486 20.5808H18.8692V8.71278L17.4843 8.67548V8.97642C17.4843 12.2554 15.4239 14.0271 11.6433 14.0271H9.69826V4.75227C9.69826 3.73502 9.99898 3.43408 10.9349 3.43408H14.6792C17.6376 3.43408 19.1733 3.88591 20.7831 5.24225C21.9714 6.19257 22.8031 7.52136 23.1417 9.01033C23.2231 9.45837 23.2732 9.91159 23.2916 10.3667H24.8652L24.2284 2.22863H0V3.54682H2.09667C2.34244 3.5279 2.58937 3.56268 2.82054 3.64876C3.05171 3.73484 3.26166 3.8702 3.43599 4.04556C3.61033 4.22092 3.74493 4.43213 3.83058 4.66473C3.91623 4.89732 3.95089 5.1458 3.9322 5.39314V26.3079C3.94271 26.5548 3.90091 26.8011 3.80956 27.0305C3.71821 27.2599 3.57941 27.4671 3.40238 27.6383C3.22535 27.8096 3.01414 27.941 2.78277 28.0238C2.5514 28.1066 2.30518 28.1389 2.06045 28.1186H0V29.3987V29.3978ZM25.4111 3.54682H27.4715C27.7246 3.52471 27.9794 3.55799 28.2185 3.64435C28.4577 3.73072 28.6753 3.86814 28.8567 4.04717C29.038 4.2262 29.1787 4.4426 29.2691 4.68152C29.3595 4.92044 29.3974 5.17622 29.3803 5.43129V26.2316C29.4116 26.489 29.3876 26.7502 29.31 26.9975C29.2324 27.2448 29.103 27.4724 28.9305 27.6651C28.516 27.9053 28.0576 28.059 27.5827 28.1169H25.4111V29.397H48.5898L49.1517 18.6954H47.6161C46.7172 24.7261 43.8338 28.1898 39.5655 28.1898H36.57C35.5591 28.1898 35.1085 27.6999 35.1085 26.569V5.43129C35.0934 5.17993 35.1314 4.9282 35.2201 4.69273C35.3088 4.45727 35.4462 4.24342 35.6231 4.06532C35.8 3.88721 36.0124 3.7489 36.2464 3.65953C36.4803 3.57015 36.7304 3.53174 36.9802 3.54682H39.0777V2.22778H25.4111V3.54682Z" fill="#B9B9BB"/>
<path d="M80.8519 22.2694C81.7656 20.3763 82.2848 18.315 82.3775 16.2125H67.8886V22.3898H80.7921C80.7921 22.3898 80.7862 22.405 80.8536 22.2694H80.8519ZM66.2578 8.01512H53.4663C52.3599 10.0348 51.7172 12.2782 51.5853 14.5807H66.2578V8.01512ZM67.8827 8.01512V14.5807H82.364C82.2336 12.2794 81.5947 10.0364 80.4939 8.01512H67.8827ZM66.2578 16.2125H51.5769C51.6727 18.3599 52.212 20.4637 53.1606 22.3898H66.2629V16.2125H66.2578ZM66.2578 24.0199H54.0914C55.4277 26.0674 57.2268 27.7674 59.3415 28.9806C61.4562 30.1938 63.8263 30.8858 66.2578 31V24.0199ZM67.8827 6.38751H79.4528C78.1141 4.52904 76.3822 2.9928 74.3819 1.88967C72.3817 0.786533 70.163 0.144013 67.8861 0.00847713L67.8827 6.38751ZM67.8827 24.0199V30.9881C70.2804 30.8465 72.612 30.1427 74.6913 28.9328C76.7705 27.7229 78.5399 26.0405 79.8579 24.0199H67.8827ZM66.2578 6.38412V0C63.9473 0.107185 61.6906 0.736764 59.655 1.84199C57.6195 2.94721 55.8575 4.49968 54.4999 6.38412H66.2578Z" fill="#B9B9BB"/>
</g>
<defs>
<clipPath id="clip0">
<rect width="232" height="31" fill="white"/>
</clipPath>
</defs>
</svg>
