<svg width="161" height="37" viewBox="0 0 161 37" fill="none" xmlns="http://www.w3.org/2000/svg">
<path d="M0 36.0768V32.735H2.401C3.86561 32.735 4.67046 32.2891 4.67046 29.5841V12.0467C4.67046 10.1209 4.17147 9.51819 1.91767 9.51819H0V6.2063H28.3626V18.0941H25.1755C24.5476 11.9673 24.0162 9.53212 18.2685 9.53212H10.7043V18.9239H12.9737C15.5653 18.9239 16.7083 17.5554 16.7083 13.9112V13.3384H19.8954V28.3745H16.7083V27.2908C16.7083 23.6466 15.5496 22.2461 12.9737 22.2461H10.7043V32.735H19.2999C23.2438 32.735 24.7887 30.1729 25.1912 23.4572H28.3788V36.0768H0Z" fill="#BDBDBE"/>
<path d="M30.6807 36.0768V32.735H33.447C34.6543 32.735 35.4592 32.2891 35.4592 30.7617V11.474C35.4592 10.1214 34.9116 9.53264 33.1897 9.53264H30.6807V6.2063H46.4234V9.53212H44.0224C42.1392 9.53212 41.4789 9.97797 41.4789 11.5689V32.7819H48.4809C52.9076 32.7819 53.9698 30.2018 54.3723 23.2353H57.5614V36.0768H30.6807Z" fill="#BDBDBE"/>
<path d="M65.9966 36.0768V32.735H68.7629C69.7447 32.735 70.5982 32.3851 70.5982 31.207V11.0761C70.5982 9.89851 69.7291 9.53264 68.7629 9.53264H65.9966V6.2063H82.85C89.2889 6.2063 92.976 9.30971 92.976 14.4019C92.976 19.94 89.1135 22.5661 83.3501 22.5661H76.6205V31.2075C76.6205 32.3851 77.6988 32.7355 78.6806 32.7355H81.4329V36.0773L65.9966 36.0768ZM76.6205 19.2237H80.532C84.5563 19.2237 86.713 17.9187 86.713 14.4494C86.713 10.9801 85.0068 9.53212 80.532 9.53212H76.6205V19.2237Z" fill="#BDBDBE"/>
<path d="M88.1783 36.0768H101.587V32.735H98.2385C97.4336 32.735 96.8543 32.56 96.8543 31.9393C96.8637 31.614 96.9234 31.2921 97.0312 30.9846L98.4478 26.4807H108.203L109.619 30.9846C109.737 31.334 109.797 31.7 109.796 32.0683C109.796 32.5136 109.458 32.7391 108.46 32.7391H105.064V36.0809H134.151V32.735H131.656C130.191 32.735 129.547 31.9873 129.547 30.5387V11.6969C129.547 9.97798 130.883 9.53264 132.267 9.53264H134.151V6.2063H118.958V9.53212H121.359C123.032 9.53212 123.548 10.4393 123.548 11.5689V31.1265C123.548 32.2881 122.856 32.7339 121.101 32.7339H120.023C117.753 32.7339 116.288 32.4316 115.516 30.3148L106.915 6.2063H100.895L92.6854 30.3163C91.9609 32.4321 90.4478 32.7355 88.1621 32.7355C88.1783 32.735 88.1783 36.0768 88.1783 36.0768ZM106.947 23.1389H99.7036L103.132 12.2697H103.229L106.947 23.1389Z" fill="#BDBDBE"/>
<path d="M156.895 6.20628H159.39V17.5528H156.299C155.269 12.6505 152.565 9.13424 147.462 9.13424C143.47 9.13424 141.828 10.2179 141.828 13.2083C141.828 19.956 161 14.9112 161 27.4833C161 34.6448 155.671 37 149.651 37C146.432 37 143.212 35.552 140.717 33.4512L139.784 36.1088H136.823V23.8711H139.994C140.589 29.9185 144.131 33.1648 150.215 33.1648C153.998 33.1648 155.8 31.319 155.8 29.1542C155.8 21.4519 136.629 27.2604 136.629 14.3699C136.629 8.02271 142.086 5.31458 147.285 5.31458C150.553 5.31458 153.305 6.89002 155.446 8.46547L156.895 6.20628Z" fill="#BDBDBE"/>
<path d="M134.247 0V3.75568H118.569L134.247 0Z" fill="#BDBDBE"/>
</svg>
