<svg width="111" height="37" viewBox="0 0 111 37" fill="none" xmlns="http://www.w3.org/2000/svg">
<path d="M47.2361 18.9745C47.2361 24.1103 43.1593 27.8948 38.1561 27.8948C33.153 27.8948 29.0762 24.1103 29.0762 18.9745C29.0762 13.8026 33.153 10.0543 38.1561 10.0543C43.1593 10.0543 47.2361 13.8026 47.2361 18.9745ZM43.2613 18.9745C43.2613 15.7652 40.8985 13.5693 38.1561 13.5693C35.4138 13.5693 33.051 15.7652 33.051 18.9745C33.051 22.1517 35.4138 24.3798 38.1561 24.3798C40.8985 24.3798 43.2613 22.1477 43.2613 18.9745Z" fill="#BDBDBE"/>
<path d="M66.8245 18.9745C66.8245 24.1103 62.7477 27.8948 57.7445 27.8948C52.7414 27.8948 48.6646 24.1103 48.6646 18.9745C48.6646 13.8066 52.7414 10.0543 57.7445 10.0543C62.7477 10.0543 66.8245 13.8026 66.8245 18.9745ZM62.8497 18.9745C62.8497 15.7652 60.4869 13.5693 57.7445 13.5693C55.0022 13.5693 52.6393 15.7652 52.6393 18.9745C52.6393 22.1517 55.0022 24.3798 57.7445 24.3798C60.4869 24.3798 62.8497 22.1477 62.8497 18.9745Z" fill="#BDBDBE"/>
<path d="M85.5965 10.5932V26.6078C85.5965 33.1954 81.6544 35.886 76.994 35.886C72.6071 35.886 69.9668 32.9943 68.971 30.6295L72.4316 29.2099C73.0478 30.6617 74.5578 32.375 76.99 32.375C79.9731 32.375 81.8217 30.5612 81.8217 27.1467V25.8638H81.683C80.7934 26.9456 79.0794 27.8907 76.9165 27.8907C72.3908 27.8907 68.2446 24.0057 68.2446 19.0067C68.2446 13.9715 72.3908 10.0543 76.9165 10.0543C79.0753 10.0543 80.7893 10.9994 81.683 12.0491H81.8217V10.5973H85.5965V10.5932ZM82.1033 19.0067C82.1033 15.8657 79.9772 13.5693 77.2715 13.5693C74.5292 13.5693 72.2317 15.8657 72.2317 19.0067C72.2317 22.1155 74.5292 24.3798 77.2715 24.3798C79.9772 24.3798 82.1033 22.1155 82.1033 19.0067Z" fill="#BDBDBE"/>
<path d="M91.8197 1.20654V27.3478H87.9429V1.20654H91.8197Z" fill="#BDBDBE"/>
<path d="M106.927 21.9105L110.012 23.9374C109.017 25.3893 106.617 27.8908 102.471 27.8908C97.3289 27.8908 93.4888 23.9736 93.4888 18.9706C93.4888 13.6659 97.3615 10.0504 102.026 10.0504C106.723 10.0504 109.021 13.7343 109.771 15.725L110.184 16.7385L98.0838 21.6772C99.0102 23.4669 100.451 24.3798 102.471 24.3798C104.495 24.3798 105.899 23.3985 106.927 21.9105ZM97.4309 18.7011L105.519 15.3912C105.074 14.2772 103.736 13.501 102.161 13.501C100.141 13.501 97.3289 15.2585 97.4309 18.7011Z" fill="#BDBDBE"/>
<path d="M14.4015 16.654V12.8696H27.342C27.4685 13.5291 27.5338 14.3094 27.5338 15.1539C27.5338 17.9933 26.7462 21.5042 24.2079 24.0058C21.7389 26.5395 18.5844 27.8908 14.4056 27.8908C6.66006 27.8908 0.146973 21.6732 0.146973 14.0399C0.146973 6.40663 6.66006 0.189026 14.4056 0.189026C18.6905 0.189026 21.743 1.84598 24.0365 4.00566L21.3268 6.67609C19.6822 5.15587 17.454 3.97348 14.4015 3.97348C8.74539 3.97348 4.32172 8.46576 4.32172 14.0399C4.32172 19.614 8.74539 24.1063 14.4015 24.1063C18.0702 24.1063 20.1596 22.6545 21.4981 21.3353C22.5837 20.2655 23.2978 18.7373 23.5794 16.65L14.4015 16.654Z" fill="#BDBDBE"/>
</svg>
