<svg width="107" height="36" viewBox="0 0 107 36" fill="none" xmlns="http://www.w3.org/2000/svg">
<g clip-path="url(#clip0)">
<path d="M101.822 35.9999C104.682 35.9999 107 33.7228 107 30.9138C107 28.1049 104.682 25.8278 101.822 25.8278C98.963 25.8278 96.645 28.1049 96.645 30.9138C96.645 33.7228 98.963 35.9999 101.822 35.9999Z" fill="#B9B9BB"/>
<path d="M47.2241 4.13244C48.1655 5.32449 48.5577 7.47017 48.5577 9.37745L48.4792 24.7152C48.3224 28.6887 46.0474 33.0596 42.4389 34.4106C38.8304 36.0794 33.1823 35.841 30.0445 33.3775C27.2989 31.3112 25.8869 28.2913 25.73 24.9536V7.8675C25.9653 5.40393 27.2204 2.86089 29.26 1.66884C30.7505 0.715193 32.3979 0.0794513 34.1237 -1.88798e-05C37.8106 -0.3179 44.4785 -0.39736 47.2241 4.13244ZM38.4382 8.34435C37.8891 7.86753 37.1046 7.78804 36.4771 8.02645C35.8495 8.26486 35.4573 8.82114 35.3788 9.45691V24.5562C35.4573 25.192 35.9279 25.7483 36.5555 25.9072C37.0262 26.0662 37.5753 25.9867 37.9675 25.9072C38.4382 25.5894 38.9089 25.351 38.9089 24.3973V9.5364C38.9089 8.98011 38.6735 8.66223 38.4382 8.34435Z" fill="#B9B9BB"/>
<path d="M89.35 -0.0795288C89.5853 -5.85988e-05 94.9196 35.1258 94.9196 35.2847C94.8412 35.2847 86.1337 35.2847 86.1337 35.2847L85.1923 30.0397H78.5245L77.5047 35.2847C77.4262 35.2847 68.4834 35.2847 68.4834 35.2847C68.4834 35.2847 75.1513 -5.85988e-05 75.0728 -0.0795288C74.9944 -5.85988e-05 89.35 -0.0795288 89.35 -0.0795288ZM83.7803 22.2516C83.7803 22.2516 81.8192 12.1589 81.8192 12.0795C81.8192 12.0795 81.8192 11.9205 79.7796 22.2516C79.7011 22.2516 83.7019 22.3311 83.7803 22.2516Z" fill="#B9B9BB"/>
<path d="M61.5017 26.0662H67.1498V35.2847H52.0098V-0.0795288H61.4233C61.5017 -0.0795288 61.5017 26.1457 61.5017 26.0662Z" fill="#B9B9BB"/>
<path d="M9.57039 12.5563H13.2574V0H22.4355V35.2847H13.3358V21.457H9.64884V35.2847H0.235352V0H9.57039V12.5563Z" fill="#B9B9BB"/>
<path d="M100.724 17.245V19.7086H99.7046C99.3908 19.7086 99.1555 19.7086 98.9986 19.788C98.8417 19.8675 98.8417 19.947 98.8417 20.1059C98.8417 20.2649 98.9201 20.3444 98.9986 20.4238C99.077 20.5033 99.3124 20.5033 99.7046 20.5033H103.784C104.098 20.5033 104.333 20.4238 104.49 20.3443C104.647 20.2649 104.725 20.1854 104.725 20.0265C104.725 19.8675 104.647 19.7086 104.49 19.6291C104.333 19.5497 104.019 19.5496 103.627 19.5496H102.607V17.1655C103.313 17.1655 103.784 17.1656 104.176 17.245C104.49 17.3245 104.882 17.4039 105.196 17.7218C105.588 17.9602 105.823 18.2781 105.98 18.6755C106.137 19.0728 106.216 19.5496 106.216 20.1854C106.216 20.9006 106.059 21.5364 105.823 21.9337C105.588 22.4106 105.196 22.649 104.725 22.8874C104.254 23.0463 103.627 23.1258 102.764 23.1258H100.332C99.6262 23.1258 99.077 23.0463 98.6848 22.8874C98.2926 22.7285 97.9788 22.4106 97.665 21.9337C97.3512 21.4569 97.1943 20.8211 97.1943 20.1854C97.1943 19.4702 97.3512 18.9139 97.665 18.4371C97.9788 17.9603 98.2926 17.6424 98.7633 17.4834C99.3124 17.3245 99.9399 17.245 100.724 17.245Z" fill="#B9B9BB"/>
<path d="M100.489 10.3311H102.607C103.392 10.3311 103.941 10.3311 104.333 10.4106C104.725 10.49 105.039 10.649 105.353 10.8874C105.666 11.1258 105.902 11.4437 106.059 11.841C106.216 12.2384 106.294 12.7152 106.294 13.2715C106.294 13.8278 106.216 14.3841 106.137 14.7814C105.98 15.1788 105.823 15.4967 105.588 15.7351C105.353 15.9735 105.039 16.1324 104.647 16.2119C104.254 16.2914 103.705 16.3708 102.999 16.3708H100.803C100.018 16.3708 99.3908 16.2914 98.9202 16.1324C98.4495 15.9735 98.1357 15.6556 97.8219 15.1788C97.5866 14.702 97.4297 14.1457 97.4297 13.4304C97.4297 12.8741 97.5081 12.3179 97.665 11.9205C97.8219 11.5232 98.0573 11.2053 98.371 10.9669C98.6848 10.7285 98.9202 10.5695 99.2339 10.4901C99.4693 10.4106 99.9399 10.3311 100.489 10.3311ZM99.8615 12.9536C99.3908 12.9536 99.1555 12.9536 98.9986 13.0331C98.9202 13.1125 98.8417 13.192 98.8417 13.351C98.8417 13.5099 98.9202 13.5894 98.9986 13.6689C99.077 13.7483 99.3908 13.7483 99.8615 13.7483H103.705C104.098 13.7483 104.411 13.7483 104.49 13.6689C104.647 13.5894 104.647 13.5099 104.647 13.351C104.647 13.192 104.568 13.1125 104.49 13.0331C104.411 12.9536 104.098 12.9536 103.784 12.9536H99.8615Z" fill="#B9B9BB"/>
<path d="M97.508 6.75497L98.2924 6.83442C97.9786 6.59601 97.7433 6.35763 97.5864 6.11922C97.4295 5.80133 97.3511 5.48344 97.3511 5.16556C97.3511 4.45033 97.6649 3.89401 98.2924 3.49666C97.9786 3.25825 97.7433 3.01987 97.5864 2.78146C97.4295 2.46358 97.3511 2.22516 97.3511 1.8278C97.3511 1.35098 97.4295 1.03308 97.6649 0.715203C97.9002 0.397322 98.1355 0.23842 98.4493 0.15895C98.7631 0.0794799 99.2338 0 99.9398 0H106.059V2.54306H100.489C99.7829 2.54306 99.3122 2.54304 99.1553 2.62251C98.9984 2.70198 98.92 2.78147 98.92 2.94041C98.92 3.09935 98.9984 3.25829 99.1553 3.33776C99.3122 3.41723 99.7829 3.41721 100.489 3.41721H106.059V5.88077H100.646C99.7829 5.88077 99.3122 5.88079 99.1553 5.96027C98.9984 6.03974 98.92 6.11918 98.92 6.27812C98.92 6.35759 98.9984 6.51655 99.0769 6.59602C99.1553 6.67549 99.2338 6.75497 99.3907 6.75497C99.5476 6.75497 99.7829 6.75497 100.175 6.75497H106.137V9.29802H97.5864V6.75497H97.508Z" fill="#B9B9BB"/>
</g>
<defs>
<clipPath id="clip0">
<rect width="107" height="36" fill="white"/>
</clipPath>
</defs>
</svg>
