<svg width="216" height="33" viewBox="0 0 216 33" fill="none" xmlns="http://www.w3.org/2000/svg">
<g clip-path="url(#clip0)">
<path d="M22.833 27.1358V16.4988L24.7579 14.7514V11.9616H24.3808V12.385L22.833 13.7589V11.7719C22.833 9.59716 22.9719 9.78687 24.616 8.03749L24.1 7.51828C22.7834 9.03002 21.9847 9.88173 20.4339 11.1099L20.811 11.5822C20.9995 11.3465 21.4688 11.015 21.7516 11.015C22.2199 11.015 22.2199 12.0085 22.2199 12.9541V14.2781L20.295 15.9326V18.6735H20.7167V18.344L22.2199 16.9741V27.2307C22.0314 27.2786 21.8458 27.2786 21.6097 27.2786C20.0599 27.2786 18.5091 26.6166 16.1606 24.3949C17.7104 23.5911 19.4963 22.2202 19.4963 19.7139C19.4963 13.9007 12.8716 10.2112 12.8716 5.10591C12.8716 3.68801 13.5284 2.40993 14.7984 1.70111C15.6913 6.43 18.7899 6.85637 19.6849 6.85637C21.3745 6.85637 23.4899 5.48345 23.4899 2.78926C23.4899 0.850417 22.456 0.00151966 21.4242 0.00151966C20.4339 0.00151966 19.5886 0.802362 19.5886 1.79696C19.5886 2.74249 20.2484 3.54614 21.2823 3.54614C21.7516 3.54614 22.2199 3.30867 22.7388 2.78926C22.6445 4.30302 21.8458 5.0121 20.7643 5.0121C19.028 5.0121 17.758 3.02494 17.758 0.00151966C12.3556 0.89822 9.67872 4.82243 9.67872 7.66007C9.67872 12.7175 15.8332 16.5467 15.8332 21.0849C15.8332 22.1732 15.6447 23.025 15.4086 23.7808C13.3428 21.9366 10.9467 19.9037 7.70427 19.9037C2.72652 19.9037 0 23.3565 0 26.6635C0 29.8787 2.538 32.1952 5.26152 32.1952C7.14172 32.1952 9.02189 31.1068 9.02189 29.689C9.02189 29.3595 8.8304 29.2177 8.59725 29.2177C7.98705 29.2177 8.0813 29.8787 7.70427 30.4937C7.37687 30.967 6.76468 31.629 5.30815 31.629C3.52224 31.629 1.03187 30.4458 1.03187 27.3285C1.03187 25.2936 2.67889 23.2616 5.72984 23.2616C10.7106 23.2616 12.5908 29.2177 20.2008 29.2177C23.2071 29.2177 25.1795 27.5152 27.0122 25.1987L26.6828 24.8193C25.9307 25.5751 24.5694 26.7114 22.833 27.1358Z" fill="#B9B9BB"/>
<path d="M40.1188 26.1923L38.4272 24.6795V15.2707L38.9908 14.4679C38.7576 14.3251 33.1666 10.6856 33.1666 10.6856C31.5692 12.2452 29.8298 13.6631 27.4834 15.1768L28.047 15.8378V24.6326L27.4834 25.4354L32.1349 29.2177C33.0724 28.2242 33.9177 27.1858 34.9525 26.2402C36.1254 27.1858 37.3456 28.1773 38.4272 29.2177C39.3677 28.1313 40.4017 26.9012 41.3867 25.8608L40.8709 25.3416L40.1188 26.1923ZM34.9525 25.1988L33.7767 26.3341L31.5217 24.5367V13.1918L34.9525 15.3635V25.1988Z" fill="#B9B9BB"/>
<path d="M66.848 4.91629C69.6191 4.91629 71.4517 2.31617 72.3923 0.093589L72.0151 0.00156831C71.4517 1.13497 70.5587 1.74896 69.386 1.74896C68.1655 1.74896 67.1782 1.04013 66.6148 0.00156831H66.4739C65.958 1.08794 64.923 2.97924 62.2443 4.3501V25.2457C61.116 25.9077 59.6149 26.7594 58.5334 27.6101V16.6416L60.4612 14.9412V12.1034H60.0366V12.5747L58.5334 13.9487V11.9617C58.5334 9.78692 58.6754 9.97664 60.2697 8.17933L59.8013 7.66012C58.4869 9.17286 57.6881 10.0715 56.0907 11.2997L56.5144 11.7719C56.7008 11.5363 57.1245 11.2048 57.4074 11.2048C57.8766 11.2048 57.9233 12.1983 57.9233 13.0969V14.4679L55.9965 16.0755V18.8154H56.3734V18.5338L57.9233 17.1609V27.6101C55.4328 25.3416 52.615 21.7969 52.615 18.392C52.615 13.9487 55.2921 10.7335 55.2921 6.10056C55.2921 2.6955 52.238 0.472922 49.2317 0.00156831C49.2317 3.07203 48.0113 5.01215 46.2254 5.01215C45.1916 5.01215 44.3928 4.53977 44.2539 2.97924C44.77 3.54619 45.2381 3.73611 45.757 3.73611C46.7413 3.73611 47.4489 2.97923 47.4489 1.98668C47.4489 0.992077 46.6006 0.236222 45.6153 0.236222C44.5815 0.236222 43.5 1.08793 43.5 2.97924C43.5 5.72097 45.6628 6.90319 47.3547 6.90319C48.2444 6.90319 51.2985 6.66649 52.2858 2.55287C53.1786 2.78931 53.4138 4.30307 53.4138 5.10596C53.4138 9.88178 48.3864 11.724 48.3864 17.5872C48.3864 23.025 54.1181 24.4898 57.9708 29.2177C59.8013 27.4684 64.1719 25.009 66.6148 24.4429L66.0025 23.4484V4.82248C66.2377 4.86926 66.5681 4.91629 66.848 4.91629Z" fill="#B9B9BB"/>
<path d="M80.1434 14.4679C79.9103 14.3251 74.3195 10.6856 74.3195 10.6856C72.7221 12.2452 70.9838 13.6631 68.6343 15.1768L69.1979 15.8378V24.6326L68.6343 25.4354C68.8705 25.5782 74.4585 29.2177 74.4585 29.2177C76.0558 27.6581 77.795 26.2402 80.1434 24.7265L79.5811 24.0655V15.2707L80.1434 14.4679ZM76.1034 26.7115L72.6754 24.5367V13.1918L76.1034 15.3665V26.7115Z" fill="#B9B9BB"/>
<path d="M85.0772 10.6855C83.854 11.9137 82.3508 13.2836 81.0361 14.2781L81.6462 14.8443L83.5266 13.2836L87.7066 16.0754C85.7818 18.0125 83.6655 19.7619 81.6462 21.4174L82.1624 21.9835L83.8073 20.5657C85.6873 21.4643 86.5804 22.5028 86.5804 23.5911C86.5804 26.0025 82.3041 27.2307 82.3041 30.2112C82.3041 31.6291 83.4799 33 85.8283 33C87.7066 33 89.5867 31.9116 89.5867 30.4938C89.5867 30.1642 89.3983 30.0215 89.162 30.0215C88.5519 30.0215 88.6462 30.6835 88.2692 31.2996C87.9416 31.7718 87.3315 32.4329 85.8761 32.4329C84.5583 32.4329 83.4798 31.676 83.4798 30.2112C83.4798 26.6166 90.1026 26.0025 90.1026 21.7968C90.1026 19.9516 88.5519 19.1948 86.8136 18.0125L90.9014 14.4679L85.0772 10.6855Z" fill="#B9B9BB"/>
<path d="M109.128 1.98668L109.644 1.41947L109.128 0.898268C106.732 3.45136 104.901 3.64128 103.351 3.64128C103.961 3.35652 104.288 2.74253 104.288 2.12855C104.288 1.18175 103.678 0.472924 102.694 0.472924C101.659 0.472924 100.86 1.32464 100.86 2.26811C100.86 3.87773 102.457 4.63256 104.147 4.63256C104.618 4.63256 105.134 4.63256 105.65 4.44494V11.8658L103.866 10.6856C102.269 12.2452 100.531 13.6631 98.1812 15.1768L98.7448 15.8378V24.6326L98.1812 25.4354C98.4174 25.5752 104.005 29.2177 104.005 29.2177C105.606 27.6581 107.342 26.2402 109.69 24.7265L109.128 24.0655V1.98668ZM105.65 26.7115L102.222 24.5367V13.1918L105.65 15.3665V26.7115Z" fill="#B9B9BB"/>
<path d="M115.845 20.2812V20.8952C117.959 20.8952 121.81 19.8568 121.81 15.5083C121.81 12.3411 119.273 10.8733 118.053 10.6856C115.235 13.0021 112.792 14.4679 111.242 15.1768L111.807 15.8378V24.6326L111.242 25.4354L117.066 29.2177C118.616 27.7519 119.933 26.7115 121.294 25.5782L120.873 25.009L118.758 26.7594L115.282 24.5367V13.711C115.424 13.6162 115.798 13.5213 116.034 13.5213C117.772 13.5213 118.147 14.9392 118.147 16.4988C118.147 17.4933 118.053 19.6671 115.845 20.2812Z" fill="#B9B9BB"/>
<path d="M151.549 11.7719L151.172 11.2997L145.065 15.696L145.392 16.1693C145.816 15.8378 146.143 15.743 146.52 15.743C148.728 15.743 149.763 18.2023 149.763 20.4229C149.763 25.1988 146.379 28.0375 142.244 28.0375C137.452 28.0375 132.801 24.4429 132.801 15.5063C132.801 10.401 134.401 6.80631 137.266 4.3501L136.795 5.05892C136.279 6.05046 136.137 7.32854 136.137 8.1314C136.137 13.2397 142.338 16.7365 142.338 21.9366C142.338 23.4484 141.399 24.9641 139.851 26.1443L140.036 26.38C144.455 24.7724 145.392 22.1733 145.392 19.9037C145.392 14.9871 139.285 10.2582 139.285 5.4835C139.285 4.63256 139.615 2.40998 141.118 1.70116C142.011 6.43005 145.112 6.85642 146.002 6.85642C147.696 6.85642 149.809 5.4835 149.809 2.78931C149.809 0.850466 148.775 0.00156831 147.741 0.00156831C146.756 0.00156831 145.91 0.802411 145.91 1.79701C145.91 2.74253 146.615 3.54619 147.602 3.54619C148.118 3.54619 148.587 3.30872 149.103 2.78931C148.961 4.30307 148.165 5.01215 147.131 5.01215C145.345 5.01215 144.077 3.02704 144.077 0.00156831C141.306 0.472922 139.521 1.60709 137.923 3.26169C131.722 5.81478 128.857 10.6376 128.857 16.5468C128.857 24.6795 135.669 29.2177 142.244 29.2177C148.822 29.2177 153.285 24.7724 153.285 19.714C153.285 15.5562 150.935 14.42 150.935 12.8603C150.935 12.5278 151.124 12.1983 151.549 11.7719Z" fill="#B9B9BB"/>
<path d="M167.284 26.1923L165.593 24.6795V15.2707L166.158 14.4679C165.922 14.3251 160.331 10.6856 160.331 10.6856C158.734 12.2452 156.995 13.6631 154.646 15.1768L155.211 15.8378V24.6326L154.646 25.4354L159.297 29.2177C160.237 28.2242 161.083 27.1858 162.117 26.2402C163.291 27.1858 164.513 28.1773 165.593 29.2177C166.532 28.1313 167.567 26.9012 168.551 25.8608L168.035 25.3416L167.284 26.1923ZM162.117 25.1988L160.941 26.3341L158.687 24.5367V13.1918L162.117 15.3635V25.1988Z" fill="#B9B9BB"/>
<path d="M174.614 26.3341L172.828 24.5367V3.87568C172.828 3.02704 172.875 1.37167 174.8 1.18175C174.567 1.32464 174.519 1.56134 174.519 1.84379C174.519 2.31617 174.894 2.74253 175.366 2.74253C175.882 2.74253 176.303 2.31617 176.303 1.74896C176.303 0.992079 175.601 0.472924 174.661 0.472924C172.029 0.472924 171.888 2.88517 168.318 4.44494L169.35 5.24885V24.6326L168.787 25.4354C169.916 26.4269 171.7 28.0345 172.828 29.2177C173.721 28.1313 175.13 26.9012 176.067 25.8608L175.551 25.3416L174.614 26.3341Z" fill="#B9B9BB"/>
<path d="M178.324 9.59717C179.404 9.59717 180.297 8.69853 180.297 7.61216C180.297 6.47679 179.404 5.62508 178.324 5.62508C177.196 5.62508 176.35 6.47679 176.35 7.61216C176.35 8.69853 177.196 9.59717 178.324 9.59717Z" fill="#B9B9BB"/>
<path d="M182.13 26.3321L180.344 24.5367V13.6162L180.907 12.8124L177.857 10.6856L175.834 13.0021L176.869 13.9007V24.6326L176.304 25.4354C177.432 26.4269 179.218 28.0375 180.344 29.2177C181.237 28.1313 182.646 26.9012 183.586 25.8608L183.07 25.3416L182.13 26.3321Z" fill="#B9B9BB"/>
<path d="M190.022 13.6162C190.022 14.4679 190.869 15.3186 191.853 15.3186C192.84 15.3186 193.684 14.4679 193.684 13.4734C193.684 12.1034 192.511 10.6856 190.35 10.6856C187.721 10.6856 186.404 13.5213 183.821 15.1768L184.385 15.8378V24.6326L183.821 25.4354L189.645 29.2177C191.196 27.7519 191.995 27.0909 193.545 25.9077L193.073 25.3416L191.337 26.7594L187.859 24.5367V13.8059C187.859 12.3411 188.941 11.4424 190.209 11.4424C190.677 11.4424 191.196 11.5363 191.618 11.8189C190.117 12.2452 190.022 13.1419 190.022 13.6162Z" fill="#B9B9BB"/>
<path d="M196.599 9.59717C197.677 9.59717 198.57 8.69853 198.57 7.61216C198.57 6.47679 197.677 5.62508 196.599 5.62508C195.469 5.62508 194.624 6.47679 194.624 7.61216C194.624 8.69853 195.469 9.59717 196.599 9.59717Z" fill="#B9B9BB"/>
<path d="M200.404 26.3321L198.618 24.5367V13.6162L199.18 12.8124L196.129 10.6856L194.108 13.0021L195.142 13.9007V24.6326L194.58 25.4354C195.706 26.4269 197.492 28.0375 198.618 29.2177C199.511 28.1313 200.92 26.9012 201.859 25.8608L201.343 25.3416L200.404 26.3321Z" fill="#B9B9BB"/>
<path d="M215.481 25.3416L214.73 26.1923L213.039 24.6795V15.2707L213.604 14.4679C213.368 14.3251 207.777 10.6856 207.777 10.6856C206.18 12.2452 204.443 13.6631 202.095 15.1768L202.658 15.8378V24.6326L202.095 25.4354L206.745 29.2177C207.686 28.2242 208.529 27.1858 209.563 26.2402C210.737 27.1858 211.957 28.1773 213.039 29.2177C213.978 28.1313 215.013 26.9012 216 25.8608L215.481 25.3416ZM209.563 25.1988L208.388 26.3341L206.133 24.5367V13.1918L209.563 15.3635V25.1988Z" fill="#B9B9BB"/>
</g>
<defs>
<clipPath id="clip0">
<rect width="216" height="33" fill="white"/>
</clipPath>
</defs>
</svg>
