<svg width="266" height="28" viewBox="0 0 266 28" fill="none" xmlns="http://www.w3.org/2000/svg">
<path d="M218.077 2.11207H207.185V3.5L210.029 4.16379V24.1983C209.666 24.681 209.061 25.2241 208.032 25.2241C206.156 25.2241 205.067 23.5948 204.523 22.6293L201.8 17.8017C200.71 15.75 199.44 14.7845 196.838 14.4828V14.1207C200.468 14.0603 203.736 11.4655 203.736 7.96552C203.736 3.80172 199.924 2.17241 195.567 2.17241H185.704V3.56034L188.911 4.22414V24.5603L185.22 25.2845L175.841 0C174.752 1.32759 173.542 2.2931 172.513 2.83621L172.876 3.86207L164.405 24.5L161.863 25.1638V26.5517H169.548V25.1638L167.007 24.5L169.851 16.9569H177.717L180.44 24.4397L177.475 25.1638V26.5517H196.233V25.1638L193.086 24.5V15.0259C195.204 15.1466 196.233 16.1121 197.261 18.1034L200.952 24.7414C202.223 26.9138 204.038 28 206.338 28C208.093 28 209.484 26.9741 209.847 26.5517H218.258C225.398 26.5517 231.207 21.0603 231.207 14.3621C231.207 7.18103 225.701 2.11207 218.077 2.11207ZM170.516 15.0862L173.844 6.39655L177.051 15.0862H170.516ZM194.78 13.2759C194.417 13.2759 193.631 13.2759 193.086 13.2759V4.16379H195.204C197.806 4.16379 199.561 6.09483 199.5 8.50862C199.379 10.9224 197.624 13.2759 194.78 13.2759ZM217.774 24.5H214.265V4.16379H217.835C223.402 4.16379 226.79 7.96552 226.79 14.3621C226.851 20.5776 223.341 24.5 217.774 24.5Z" fill="#B9B9BB"/>
<path d="M39.3311 24.5L30.2547 0C29.1655 1.32759 27.9553 2.2931 26.9267 2.83621L27.2897 3.86207L18.8184 24.5L17.0031 25.1638L16.519 26.5517H24.0222V25.1638L21.4808 24.5L24.3248 16.9569H32.191L34.9139 24.4397L31.949 25.1638V26.5517H41.9936V25.1638L39.3311 24.5ZM24.9299 15.0862L28.2579 6.39655L31.4649 15.0862H24.9299Z" fill="#B9B9BB"/>
<path d="M17.7293 20.3362L16.8217 19.8534L11.5573 24.6207H7.01911V4.16378L9.74204 3.49999V2.11206H0V3.49999L2.72293 4.16378V24.5L0 25.1638V26.5517H15.3089L17.7293 20.3362Z" fill="#B9B9BB"/>
<path d="M60.3278 2.11206V3.49999L63.2323 4.16378L56.8788 20.5172L50.1017 4.16378L53.3087 3.49999V2.11206H42.417V3.49999L45.503 4.16378L55.1845 27.3965H56.2132L65.8342 4.16378H65.9552L68.9807 3.49999V2.11206H60.3278Z" fill="#B9B9BB"/>
<path d="M156.841 2.11206V3.49999L159.745 4.16378C159.745 4.16378 159.987 16.2931 159.866 19.3103C159.745 22.8707 156.962 25.2845 153.271 25.2845C149.519 25.2845 146.796 23.0517 146.675 19.0086V4.10344L149.519 3.43965V2.11206H139.656V3.49999L142.44 4.16378V19.1896C142.621 24.3793 146.796 27.7586 152.182 27.7586C157.567 27.7586 161.742 24.6207 161.924 19.1896L162.166 4.16378L165.01 3.49999V2.11206H156.841Z" fill="#B9B9BB"/>
<path d="M263.277 24.4397L254.261 0C253.172 1.32759 251.962 2.2931 250.933 2.83621L251.296 3.86207L242.825 24.6207L241.373 25.2241L239.436 24.6207V4.16379L242.462 3.5V2.11207H232.236V3.5L235.201 4.22414V24.5603L232.357 25.2241V26.5517H248.029V25.1638L245.487 24.5L248.331 16.9569H256.197L258.92 24.4397L255.955 25.1638V26.5517H266V25.1638L263.277 24.4397ZM248.936 15.0862L252.264 6.39655L255.471 15.0862H248.936Z" fill="#B9B9BB"/>
<path d="M104.258 2.11207V3.5L107.223 4.22414L107.404 20.2155L92.0954 2.11207H85.5603V3.5L88.5253 4.16379L88.7673 4.28448L88.5253 24.5L85.4998 25.2241L76.2419 0C75.1527 1.32759 73.9425 2.2931 72.9138 2.83621L73.2769 3.86207L64.8056 24.5L62.2642 25.1638V26.5517H69.9489V25.1638L67.4075 24.5L70.2514 16.9569H78.1177L80.8406 24.4397L77.8756 25.1638V26.5517H93.9712V25.1638L90.8247 24.5L90.6431 6.81896L108.191 27.3965H109.341L109.583 4.16379L112.548 3.5V2.11207H104.258ZM70.917 15.0862L74.2451 6.39655L77.4521 15.0862H70.917Z" fill="#B9B9BB"/>
<path d="M130.035 14.0603V15.4483L132.819 16.1121V23.9569C131.487 25.0431 129.37 25.7672 127.312 25.7672C121.745 25.7672 118.175 21.0603 118.175 14.6034C118.115 8.38793 121.624 3.01724 127.312 3.01724C131.003 3.01724 134.331 5.61206 135.481 9.65517L136.268 9.17241V1.50861L135.542 1.14655L134.029 3.01724C132.456 2.17241 129.793 1.32758 127.252 1.32758C119.688 1.32758 113.516 7.48275 113.516 14.7845C113.516 22.3879 118.901 27.819 126.223 27.819C129.188 27.819 131.972 26.9138 134.15 25.2241L136.328 26.6724H137.054V16.0517L139.354 15.1465V14H130.035V14.0603Z" fill="#B9B9BB"/>
</svg>
