<svg width="115" height="32" viewBox="0 0 115 32" fill="none" xmlns="http://www.w3.org/2000/svg">
<path d="M0 25.0064H1.68482V6.7816H0V0H10.2568C11.7134 3.44 12.3972 7.256 14.0868 10.596L17.9923 0H28.0106V6.7816H26.3281V25.0064H28.0129V32H17.2712V25.0064H19.1667V13.9864H19.0076L14.0351 27.1304C12.1348 22.9128 10.8388 18.3608 9.16432 14.0216L9.05936 25.0064H10.7418V32H0V25.0064ZM29.0657 25.0064H30.2845L34.4222 0H45.9154V0.1952L49.9251 25.0064H51.1806V32H41.2824V25.0064H42.5458V22.252H37.7012V25.0072H38.9646V32H29.0657V25.0064ZM40.1525 8.54L38.544 18.2248H41.703C41.3499 14.9864 40.8125 11.7344 40.1525 8.54ZM52.238 25.0064H53.9228V6.7816H52.238V0H68.5678L71.8229 3.2944V13.4688L69.1252 16.16L71.8221 18.6984V25.0072H73.5069V32H64.0294V19.2848H61.7124V25.0064H62.9759V32H52.238V25.0064ZM64.0294 7.0328L61.7116 6.888V14.408H64.0294V7.0328ZM74.5604 28.4944V3.2752L77.8347 0H88.5741L91.8292 3.2944V13.1392H84.6701V6.9936H82.1425V25.0064H84.6701V18.8608H91.834V28.7248L88.5574 32H78.0263L74.5604 28.4944ZM92.8843 25.0064C93.3071 25.0342 93.7317 25.0073 94.1477 24.9264C95.4453 16.6384 96.8598 8.3664 98.1495 0.0792007L109.62 0.107201L113.62 25.008H114.999V32H104.89V25.0064H106.364V22.252H101.52V25.0072H102.783V32H92.8843V25.0064ZM103.97 8.4696L102.191 18.2256H105.574L103.97 8.4696Z" fill="#B9B9BB"/>
</svg>
