<svg width="87" height="37" viewBox="0 0 87 37" fill="none" xmlns="http://www.w3.org/2000/svg">
<path d="M4.10511 36.9572C1.91212 36.9572 0.0429688 35.6038 0.0429688 32.5359C0.0429688 27.7999 4.18778 24.2034 6.06832 23.1862C6.06832 23.1862 8.69943 24.6766 11.429 25.6357C6.00555 22.2616 2.53996 16.1139 2.53996 9.29064C2.53996 2.91385 5.96303 0.0427856 9.05357 0.0427856C11.5398 0.0427856 17.434 2.73205 17.434 13.0514C17.434 24.1554 11.5415 36.9572 4.10511 36.9572Z" fill="#B9B9BB"/>
<path d="M58.0938 29.5808H55.5256V20.5267C55.5256 18.7816 55.2516 17.519 54.7035 16.7388C54.1554 15.9586 53.2341 15.5686 51.9396 15.5685C50.8434 15.5686 49.9116 16.0613 49.1443 17.0468C48.377 18.0323 47.9933 19.2128 47.9933 20.5883V29.5808H45.4252V20.2188C45.4252 17.1186 44.2089 15.5686 41.7765 15.5685C40.649 15.5686 39.7198 16.0331 38.9891 16.9621C38.2583 17.8911 37.8929 19.0999 37.8929 20.5883V29.5808H35.3247V13.8132H37.8929V16.3077H37.9555C39.0934 14.3983 40.7533 13.4436 42.9353 13.4436C44.0314 13.4436 44.9867 13.7439 45.801 14.3444C46.6153 14.9449 47.1738 15.7328 47.4765 16.708C48.6667 14.5318 50.4414 13.4436 52.8008 13.4436C56.3294 13.4436 58.0937 15.584 58.0938 19.8646L58.0938 29.5808Z" fill="#B9B9BB"/>
<path d="M86.9567 29.576H84.3885V20.5835C84.3885 17.2369 83.1461 15.5637 80.6615 15.5637C79.3774 15.5637 78.3152 16.0385 77.4748 16.988C76.6344 17.9376 76.2142 19.136 76.2142 20.5835V29.576H73.646V13.8083H76.2142V16.426H76.2768C77.4878 14.4345 79.2417 13.4387 81.5384 13.4387C83.2923 13.4387 84.6338 13.9956 85.5629 15.1094C86.492 16.2232 86.9566 17.8323 86.9566 19.9367L86.9567 29.576Z" fill="#B9B9BB"/>
<path d="M60.8975 26.2739V28.9788C60.8975 28.9788 62.261 29.9475 64.9213 29.9475C68.9593 29.9475 70.7332 27.7322 70.7332 25.3146C70.7332 20.0753 63.5587 21.3277 63.5587 17.851C63.5587 16.5444 64.6167 15.599 66.3927 15.599C68.4666 15.599 69.9944 16.6873 69.9944 16.6873V14.1837C69.9944 14.1837 68.5743 13.41 66.527 13.41C63.0743 13.41 60.9231 15.5303 60.9231 18.0775C60.9231 23.2574 68.0752 22.2441 68.0752 25.6197C68.0752 27.1711 66.778 27.7333 65.1005 27.7333C62.6991 27.7333 60.8975 26.2739 60.8975 26.2739Z" fill="#B9B9BB"/>
<path d="M13.5835 33.4387C13.5835 35.048 14.1552 35.6781 15.0293 35.6781C17.2167 35.6781 20.7016 30.6578 20.5693 25.3869C23.8861 21.9464 27.8622 16.5567 27.8622 12.2399C27.8622 11.195 27.5608 10.3151 26.3012 10.3151C24.3755 10.3151 21.6238 13.5786 19.8784 16.8194C18.1951 20.1768 16.6205 24.0062 14.5303 29.2618C14.0419 30.5801 13.5835 32.1767 13.5835 33.4387Z" fill="#B9B9BB"/>
</svg>
