<svg width="148" height="34" viewBox="0 0 148 34" fill="none" xmlns="http://www.w3.org/2000/svg">
<path d="M76.0371 2.90771H77.8157V4.70673H76.0371V2.90771ZM76.0371 10.8569H77.8157V30.9738H76.0371V10.8569Z" fill="#BCBCBE"/>
<path d="M82.0208 17.0488C82.6826 11.9864 85.2264 10.2083 91.2032 10.2083C96.9456 10.2083 100.268 11.6029 100.268 16.1144V27.3966C100.268 28.8888 100.268 29.7953 101.571 29.7953C102.164 29.7883 102.743 29.6767 103.302 29.4815V31.0434C102.757 31.2387 102.019 31.3572 101.144 31.3572C98.7241 31.3572 98.7241 29.6279 98.7241 26.9643H98.6552C96.4492 31.0922 91.8167 31.5943 89.2316 31.5943C87.522 31.5943 81.1384 31.5943 81.1384 25.4721C81.1384 21.3441 84.5784 19.9286 88.5905 19.6845L95.4979 19.2034C97.5384 19.036 98.5104 18.8199 98.5104 16.3445C98.5104 13.632 97.0145 11.7842 91.1756 11.7842C85.9778 11.7842 84.3371 13.4438 83.7925 17.0418L82.0208 17.0488ZM98.4967 19.7124H98.4277C98.0003 20.1935 96.9594 20.6468 95.2704 20.7653L88.5974 21.2465C85.2746 21.4835 82.9239 22.4249 82.9239 25.4442C82.9239 29.5233 86.9842 30.0045 89.3557 30.0045C93.2988 30.0045 98.4967 28.2054 98.4967 23.4011V19.7124Z" fill="#BCBCBE"/>
<path d="M105.163 10.8498H106.941V15.6054H107.01C108.313 12.0771 111.333 10.2292 115.2 10.2292C115.745 10.2292 116.124 10.299 116.668 10.4663V12.2653C116.241 12.098 115.745 12.0283 114.628 12.0283C109.499 12.0283 106.935 15.9889 106.935 20.068V30.9458H105.156L105.163 10.8498Z" fill="#BCBCBE"/>
<path d="M118.881 2.90771H120.66V4.70673H118.881V2.90771ZM118.881 10.8569H120.66V30.9738H118.881V10.8569Z" fill="#BCBCBE"/>
<path d="M134.475 10.2014C128.684 10.2014 123.982 14.9779 123.982 20.8839C123.982 26.79 128.684 31.5665 134.475 31.5665C140.265 31.5665 144.967 26.79 144.967 20.8839C144.967 14.9779 140.265 10.2014 134.475 10.2014ZM134.475 29.7675C129.656 29.7675 125.761 25.7789 125.761 20.8839C125.761 15.9889 129.656 12.0004 134.475 12.0004C139.293 12.0004 143.188 15.9889 143.188 20.8839C143.209 25.8068 139.293 29.7675 134.475 29.7675Z" fill="#BCBCBE"/>
<path d="M69.7706 2.90771V15.201C67.8679 12.0911 64.5107 10.2084 60.8916 10.2084C55.1009 10.2084 50.3994 14.9848 50.3994 20.8909C50.3994 26.797 55.1009 31.5734 60.8916 31.5734C64.5038 31.5665 67.861 29.6838 69.7706 26.5808V30.9249H71.5492V2.90771H69.7706ZM60.9191 29.7674C56.1005 29.7674 52.2056 25.7789 52.2056 20.8839C52.2056 15.9889 56.1005 12.0004 60.9191 12.0004C65.7378 12.0004 69.6258 15.9889 69.6258 20.8839C69.6327 25.8068 65.7102 29.7674 60.9191 29.7674Z" fill="#BCBCBE"/>
<path d="M12.9738 10.2014C7.18317 10.2014 2.48169 15.0058 2.48169 20.8839C2.48169 26.79 7.18317 31.5665 12.9738 31.5665C18.7645 31.5665 23.466 26.79 23.466 20.8839C23.466 15.0058 18.7645 10.2014 12.9738 10.2014ZM12.9738 27.299C9.48565 27.299 6.68682 24.4192 6.68682 20.8909C6.68682 17.3626 9.51322 14.4828 12.9738 14.4828C16.4345 14.4828 19.2609 17.3626 19.2609 20.8909C19.2609 24.4192 16.462 27.299 12.9738 27.299Z" fill="#BCBCBE"/>
<path d="M26.4578 17.9553L29.4221 14.936L29.7806 14.5944V2.90771H25.5754V18.8688L26.4578 17.9553Z" fill="#BCBCBE"/>
<path d="M29.4221 22.7876L26.4578 19.7822L25.5754 18.8688V30.9459H29.7806V23.1432L29.4221 22.7876Z" fill="#BCBCBE"/>
<path d="M37.1566 22.7875L34.1648 25.8068L39.2247 30.9459H45.1602L37.1566 22.7875Z" fill="#BCBCBE"/>
<path d="M42.1894 9.797L33.2897 18.8688L30.3254 15.8425L27.3542 18.8688L30.3254 21.895L33.2897 24.9213L35.3302 22.8294L45.1606 12.8232L42.1894 9.797Z" fill="#BCBCBE"/>
</svg>
